<?xml version="1.0" encoding="UTF-8" standalone="no"?><svg xmlns="http://www.w3.org/2000/svg" xmlns:xlink="http://www.w3.org/1999/xlink" contentScriptType="application/ecmascript" contentStyleType="text/css" height="175px" preserveAspectRatio="none" style="width:93px;height:175px;" version="1.1" viewBox="0 0 93 175" width="93px" zoomAndPan="magnify"><defs><filter height="300%" id="f1uco859v39ilo" width="300%" x="-1" y="-1"><feGaussianBlur result="blurOut" stdDeviation="2.0"/><feColorMatrix in="blurOut" result="blurOut2" type="matrix" values="0 0 0 0 0 0 0 0 0 0 0 0 0 0 0 0 0 0 .4 0"/><feOffset dx="4.0" dy="4.0" in="blurOut2" result="blurOut3"/><feBlend in="SourceGraphic" in2="blurOut3" mode="normal"/></filter></defs><g><!--class Person--><rect fill="#FEFECE" filter="url(#f1uco859v39ilo)" height="48" id="Person" style="stroke: #A80036; stroke-width: 1.5;" width="76" x="6" y="116"/><ellipse cx="21" cy="132" fill="#ADD1B2" rx="11" ry="11" style="stroke: #A80036; stroke-width: 1.0;"/><path d="M23.9688,137.6406 Q23.3906,137.9375 22.75,138.0859 Q22.1094,138.2344 21.4063,138.2344 Q18.9063,138.2344 17.5859,136.5859 Q16.2656,134.9375 16.2656,131.8125 Q16.2656,128.6875 17.5859,127.0313 Q18.9063,125.375 21.4063,125.375 Q22.1094,125.375 22.7578,125.5313 Q23.4063,125.6875 23.9688,125.9844 L23.9688,128.7031 Q23.3438,128.125 22.75,127.8516 Q22.1563,127.5781 21.5313,127.5781 Q20.1875,127.5781 19.5,128.6484 Q18.8125,129.7188 18.8125,131.8125 Q18.8125,133.9063 19.5,134.9766 Q20.1875,136.0469 21.5313,136.0469 Q22.1563,136.0469 22.75,135.7734 Q23.3438,135.5 23.9688,134.9219 L23.9688,137.6406 Z "/><text fill="#000000" font-family="sans-serif" font-size="12" lengthAdjust="spacingAndGlyphs" textLength="44" x="35" y="136.1543">Person</text><line style="stroke: #A80036; stroke-width: 1.5;" x1="7" x2="81" y1="148" y2="148"/><line style="stroke: #A80036; stroke-width: 1.5;" x1="7" x2="81" y1="156" y2="156"/><!--class Book--><rect fill="#FEFECE" filter="url(#f1uco859v39ilo)" height="48" id="Book" style="stroke: #A80036; stroke-width: 1.5;" width="63" x="12.5" y="8"/><ellipse cx="27.5" cy="24" fill="#ADD1B2" rx="11" ry="11" style="stroke: #A80036; stroke-width: 1.0;"/><path d="M30.4688,29.6406 Q29.8906,29.9375 29.25,30.0859 Q28.6094,30.2344 27.9063,30.2344 Q25.4063,30.2344 24.0859,28.5859 Q22.7656,26.9375 22.7656,23.8125 Q22.7656,20.6875 24.0859,19.0313 Q25.4063,17.375 27.9063,17.375 Q28.6094,17.375 29.2578,17.5313 Q29.9063,17.6875 30.4688,17.9844 L30.4688,20.7031 Q29.8438,20.125 29.25,19.8516 Q28.6563,19.5781 28.0313,19.5781 Q26.6875,19.5781 26,20.6484 Q25.3125,21.7188 25.3125,23.8125 Q25.3125,25.9063 26,26.9766 Q26.6875,28.0469 28.0313,28.0469 Q28.6563,28.0469 29.25,27.7734 Q29.8438,27.5 30.4688,26.9219 L30.4688,29.6406 Z "/><text fill="#000000" font-family="sans-serif" font-size="12" lengthAdjust="spacingAndGlyphs" textLength="31" x="41.5" y="28.1543">Book</text><line style="stroke: #A80036; stroke-width: 1.5;" x1="13.5" x2="74.5" y1="40" y2="40"/><line style="stroke: #A80036; stroke-width: 1.5;" x1="13.5" x2="74.5" y1="48" y2="48"/><!--link Book to Person--><path d="M44,56.2373 C44,69.8553 44,87.1457 44,102.4766 " fill="none" id="Book-Person" style="stroke: #A80036; stroke-width: 1.0;"/><polygon fill="#FFFFFF" points="44,115.8436,48,109.8436,44,103.8436,40,109.8436,44,115.8436" style="stroke: #A80036; stroke-width: 1.0;"/><!--
@startuml Aggregation

class Person {
    
}

class Book {

}

Book - -o Person

@enduml

PlantUML version 1.2017.18(Fri Oct 06 18:56:32 CEST 2017)
(GPL source distribution)
Java Runtime: OpenJDK Runtime Environment
JVM: OpenJDK 64-Bit Server VM
Java Version: 1.8.0_144-b01
Operating System: Linux
OS Version: 4.13.11-1-ARCH
Default Encoding: UTF-8
Language: en
Country: US
--></g></svg>