<?xml version="1.0" encoding="UTF-8" standalone="no"?><svg xmlns="http://www.w3.org/2000/svg" xmlns:xlink="http://www.w3.org/1999/xlink" contentScriptType="application/ecmascript" contentStyleType="text/css" height="175px" preserveAspectRatio="none" style="width:125px;height:175px;" version="1.1" viewBox="0 0 125 175" width="125px" zoomAndPan="magnify"><defs><filter height="300%" id="f171e2ap3ljhu1" width="300%" x="-1" y="-1"><feGaussianBlur result="blurOut" stdDeviation="2.0"/><feColorMatrix in="blurOut" result="blurOut2" type="matrix" values="0 0 0 0 0 0 0 0 0 0 0 0 0 0 0 0 0 0 .4 0"/><feOffset dx="4.0" dy="4.0" in="blurOut2" result="blurOut3"/><feBlend in="SourceGraphic" in2="blurOut3" mode="normal"/></filter></defs><g><!--class SimpleList--><rect fill="#FEFECE" filter="url(#f171e2ap3ljhu1)" height="48" id="SimpleList" style="stroke: #A80036; stroke-width: 1.5;" width="105" x="6" y="116"/><ellipse cx="21" cy="132" fill="#ADD1B2" rx="11" ry="11" style="stroke: #A80036; stroke-width: 1.0;"/><path d="M23.9688,137.6406 Q23.3906,137.9375 22.75,138.0859 Q22.1094,138.2344 21.4063,138.2344 Q18.9063,138.2344 17.5859,136.5859 Q16.2656,134.9375 16.2656,131.8125 Q16.2656,128.6875 17.5859,127.0313 Q18.9063,125.375 21.4063,125.375 Q22.1094,125.375 22.7578,125.5313 Q23.4063,125.6875 23.9688,125.9844 L23.9688,128.7031 Q23.3438,128.125 22.75,127.8516 Q22.1563,127.5781 21.5313,127.5781 Q20.1875,127.5781 19.5,128.6484 Q18.8125,129.7188 18.8125,131.8125 Q18.8125,133.9063 19.5,134.9766 Q20.1875,136.0469 21.5313,136.0469 Q22.1563,136.0469 22.75,135.7734 Q23.3438,135.5 23.9688,134.9219 L23.9688,137.6406 Z "/><text fill="#000000" font-family="sans-serif" font-size="12" lengthAdjust="spacingAndGlyphs" textLength="62" x="35" y="136.1543">SimpleList</text><rect fill="#FFFFFF" height="15.9688" style="stroke: #000000; stroke-width: 1.0; stroke-dasharray: 2.0,2.0;" width="9" x="105" y="113"/><text fill="#000000" font-family="sans-serif" font-size="12" font-style="italic" lengthAdjust="spacingAndGlyphs" textLength="7" x="106" y="125.1387">T</text><line style="stroke: #A80036; stroke-width: 1.5;" x1="7" x2="110" y1="148" y2="148"/><line style="stroke: #A80036; stroke-width: 1.5;" x1="7" x2="110" y1="156" y2="156"/><!--class ListElement--><rect fill="#FEFECE" filter="url(#f171e2ap3ljhu1)" height="48" id="ListElement" style="stroke: #A80036; stroke-width: 1.5;" width="104" x="6.5" y="8"/><ellipse cx="21.5" cy="24" fill="#ADD1B2" rx="11" ry="11" style="stroke: #A80036; stroke-width: 1.0;"/><path d="M24.4688,29.6406 Q23.8906,29.9375 23.25,30.0859 Q22.6094,30.2344 21.9063,30.2344 Q19.4063,30.2344 18.0859,28.5859 Q16.7656,26.9375 16.7656,23.8125 Q16.7656,20.6875 18.0859,19.0313 Q19.4063,17.375 21.9063,17.375 Q22.6094,17.375 23.2578,17.5313 Q23.9063,17.6875 24.4688,17.9844 L24.4688,20.7031 Q23.8438,20.125 23.25,19.8516 Q22.6563,19.5781 22.0313,19.5781 Q20.6875,19.5781 20,20.6484 Q19.3125,21.7188 19.3125,23.8125 Q19.3125,25.9063 20,26.9766 Q20.6875,28.0469 22.0313,28.0469 Q22.6563,28.0469 23.25,27.7734 Q23.8438,27.5 24.4688,26.9219 L24.4688,29.6406 Z "/><text fill="#000000" font-family="sans-serif" font-size="12" lengthAdjust="spacingAndGlyphs" textLength="72" x="35.5" y="28.1543">ListElement</text><line style="stroke: #A80036; stroke-width: 1.5;" x1="7.5" x2="109.5" y1="40" y2="40"/><line style="stroke: #A80036; stroke-width: 1.5;" x1="7.5" x2="109.5" y1="48" y2="48"/><!--link ListElement to SimpleList--><path d="M58.5,56.2373 C58.5,69.8553 58.5,87.1457 58.5,102.4766 " fill="none" id="ListElement-SimpleList" style="stroke: #A80036; stroke-width: 1.0;"/><polygon fill="#A80036" points="58.5,115.8436,62.5,109.8436,58.5,103.8436,54.5,109.8436,58.5,115.8436" style="stroke: #A80036; stroke-width: 1.0;"/><!--
@startuml Composition

class SimpleList <T>{

}

class ListElement {

}

ListElement - -* SimpleList

@enduml

PlantUML version 1.2017.18(Fri Oct 06 18:56:32 CEST 2017)
(GPL source distribution)
Java Runtime: OpenJDK Runtime Environment
JVM: OpenJDK 64-Bit Server VM
Java Version: 1.8.0_144-b01
Operating System: Linux
OS Version: 4.13.11-1-ARCH
Default Encoding: UTF-8
Language: en
Country: US
--></g></svg>