<?xml version="1.0" encoding="UTF-8" standalone="no"?><svg xmlns="http://www.w3.org/2000/svg" xmlns:xlink="http://www.w3.org/1999/xlink" contentScriptType="application/ecmascript" contentStyleType="text/css" height="175px" preserveAspectRatio="none" style="width:90px;height:175px;" version="1.1" viewBox="0 0 90 175" width="90px" zoomAndPan="magnify"><defs><filter height="300%" id="fs3lhr0gao53i" width="300%" x="-1" y="-1"><feGaussianBlur result="blurOut" stdDeviation="2.0"/><feColorMatrix in="blurOut" result="blurOut2" type="matrix" values="0 0 0 0 0 0 0 0 0 0 0 0 0 0 0 0 0 0 .4 0"/><feOffset dx="4.0" dy="4.0" in="blurOut2" result="blurOut3"/><feBlend in="SourceGraphic" in2="blurOut3" mode="normal"/></filter></defs><g><!--class ClassA--><rect fill="#FEFECE" filter="url(#fs3lhr0gao53i)" height="48" id="ClassA" style="stroke: #A80036; stroke-width: 1.5;" width="73" x="6" y="8"/><ellipse cx="21" cy="24" fill="#ADD1B2" rx="11" ry="11" style="stroke: #A80036; stroke-width: 1.0;"/><path d="M23.9688,29.6406 Q23.3906,29.9375 22.75,30.0859 Q22.1094,30.2344 21.4063,30.2344 Q18.9063,30.2344 17.5859,28.5859 Q16.2656,26.9375 16.2656,23.8125 Q16.2656,20.6875 17.5859,19.0313 Q18.9063,17.375 21.4063,17.375 Q22.1094,17.375 22.7578,17.5313 Q23.4063,17.6875 23.9688,17.9844 L23.9688,20.7031 Q23.3438,20.125 22.75,19.8516 Q22.1563,19.5781 21.5313,19.5781 Q20.1875,19.5781 19.5,20.6484 Q18.8125,21.7188 18.8125,23.8125 Q18.8125,25.9063 19.5,26.9766 Q20.1875,28.0469 21.5313,28.0469 Q22.1563,28.0469 22.75,27.7734 Q23.3438,27.5 23.9688,26.9219 L23.9688,29.6406 Z "/><text fill="#000000" font-family="sans-serif" font-size="12" lengthAdjust="spacingAndGlyphs" textLength="41" x="35" y="28.1543">ClassA</text><line style="stroke: #A80036; stroke-width: 1.5;" x1="7" x2="78" y1="40" y2="40"/><line style="stroke: #A80036; stroke-width: 1.5;" x1="7" x2="78" y1="48" y2="48"/><!--class ClassB--><rect fill="#FEFECE" filter="url(#fs3lhr0gao53i)" height="48" id="ClassB" style="stroke: #A80036; stroke-width: 1.5;" width="73" x="6" y="116"/><ellipse cx="21" cy="132" fill="#ADD1B2" rx="11" ry="11" style="stroke: #A80036; stroke-width: 1.0;"/><path d="M23.9688,137.6406 Q23.3906,137.9375 22.75,138.0859 Q22.1094,138.2344 21.4063,138.2344 Q18.9063,138.2344 17.5859,136.5859 Q16.2656,134.9375 16.2656,131.8125 Q16.2656,128.6875 17.5859,127.0313 Q18.9063,125.375 21.4063,125.375 Q22.1094,125.375 22.7578,125.5313 Q23.4063,125.6875 23.9688,125.9844 L23.9688,128.7031 Q23.3438,128.125 22.75,127.8516 Q22.1563,127.5781 21.5313,127.5781 Q20.1875,127.5781 19.5,128.6484 Q18.8125,129.7188 18.8125,131.8125 Q18.8125,133.9063 19.5,134.9766 Q20.1875,136.0469 21.5313,136.0469 Q22.1563,136.0469 22.75,135.7734 Q23.3438,135.5 23.9688,134.9219 L23.9688,137.6406 Z "/><text fill="#000000" font-family="sans-serif" font-size="12" lengthAdjust="spacingAndGlyphs" textLength="41" x="35" y="136.1543">ClassB</text><line style="stroke: #A80036; stroke-width: 1.5;" x1="7" x2="78" y1="148" y2="148"/><line style="stroke: #A80036; stroke-width: 1.5;" x1="7" x2="78" y1="156" y2="156"/><!--link ClassA to ClassB--><path d="M42.5,76.2911 C42.5,89.8171 42.5,104.1835 42.5,115.8436 " fill="none" id="ClassA-ClassB" style="stroke: #A80036; stroke-width: 1.0;"/><polygon fill="none" points="35.5001,76.2373,42.5,56.2373,49.5001,76.2373,35.5001,76.2373" style="stroke: #A80036; stroke-width: 1.0;"/><!--
@startuml inheritance

class ClassA {

}

class ClassB extends ClassA {

}

@enduml

PlantUML version 1.2017.18(Fri Oct 06 18:56:32 CEST 2017)
(GPL source distribution)
Java Runtime: OpenJDK Runtime Environment
JVM: OpenJDK 64-Bit Server VM
Java Version: 1.8.0_144-b01
Operating System: Linux
OS Version: 4.13.11-1-ARCH
Default Encoding: UTF-8
Language: en
Country: US
--></g></svg>