<?xml version="1.0" encoding="UTF-8" standalone="no"?><svg xmlns="http://www.w3.org/2000/svg" xmlns:xlink="http://www.w3.org/1999/xlink" contentScriptType="application/ecmascript" contentStyleType="text/css" height="175px" preserveAspectRatio="none" style="width:114px;height:175px;" version="1.1" viewBox="0 0 114 175" width="114px" zoomAndPan="magnify"><defs><filter height="300%" id="fvyefe90pprc3" width="300%" x="-1" y="-1"><feGaussianBlur result="blurOut" stdDeviation="2.0"/><feColorMatrix in="blurOut" result="blurOut2" type="matrix" values="0 0 0 0 0 0 0 0 0 0 0 0 0 0 0 0 0 0 .4 0"/><feOffset dx="4.0" dy="4.0" in="blurOut2" result="blurOut3"/><feBlend in="SourceGraphic" in2="blurOut3" mode="normal"/></filter></defs><g><!--class InterfaceA--><rect fill="#FEFECE" filter="url(#fvyefe90pprc3)" height="48" id="InterfaceA" style="stroke: #A80036; stroke-width: 1.5;" width="97" x="6" y="8"/><ellipse cx="21" cy="24" fill="#B4A7E5" rx="11" ry="11" style="stroke: #A80036; stroke-width: 1.0;"/><path d="M16.9219,19.7656 L16.9219,17.6094 L24.3125,17.6094 L24.3125,19.7656 L21.8438,19.7656 L21.8438,27.8438 L24.3125,27.8438 L24.3125,30 L16.9219,30 L16.9219,27.8438 L19.3906,27.8438 L19.3906,19.7656 L16.9219,19.7656 Z "/><text fill="#000000" font-family="sans-serif" font-size="12" font-style="italic" lengthAdjust="spacingAndGlyphs" textLength="65" x="35" y="28.1543">InterfaceA</text><line style="stroke: #A80036; stroke-width: 1.5;" x1="7" x2="102" y1="40" y2="40"/><line style="stroke: #A80036; stroke-width: 1.5;" x1="7" x2="102" y1="48" y2="48"/><!--class ClassA--><rect fill="#FEFECE" filter="url(#fvyefe90pprc3)" height="48" id="ClassA" style="stroke: #A80036; stroke-width: 1.5;" width="73" x="18" y="116"/><ellipse cx="33" cy="132" fill="#ADD1B2" rx="11" ry="11" style="stroke: #A80036; stroke-width: 1.0;"/><path d="M35.9688,137.6406 Q35.3906,137.9375 34.75,138.0859 Q34.1094,138.2344 33.4063,138.2344 Q30.9063,138.2344 29.5859,136.5859 Q28.2656,134.9375 28.2656,131.8125 Q28.2656,128.6875 29.5859,127.0313 Q30.9063,125.375 33.4063,125.375 Q34.1094,125.375 34.7578,125.5313 Q35.4063,125.6875 35.9688,125.9844 L35.9688,128.7031 Q35.3438,128.125 34.75,127.8516 Q34.1563,127.5781 33.5313,127.5781 Q32.1875,127.5781 31.5,128.6484 Q30.8125,129.7188 30.8125,131.8125 Q30.8125,133.9063 31.5,134.9766 Q32.1875,136.0469 33.5313,136.0469 Q34.1563,136.0469 34.75,135.7734 Q35.3438,135.5 35.9688,134.9219 L35.9688,137.6406 Z "/><text fill="#000000" font-family="sans-serif" font-size="12" lengthAdjust="spacingAndGlyphs" textLength="41" x="47" y="136.1543">ClassA</text><line style="stroke: #A80036; stroke-width: 1.5;" x1="19" x2="90" y1="148" y2="148"/><line style="stroke: #A80036; stroke-width: 1.5;" x1="19" x2="90" y1="156" y2="156"/><!--link InterfaceA to ClassA--><path d="M54.5,76.2911 C54.5,89.8171 54.5,104.1835 54.5,115.8436 " fill="none" id="InterfaceA-ClassA" style="stroke: #A80036; stroke-width: 1.0; stroke-dasharray: 7.0,7.0;"/><polygon fill="none" points="47.5001,76.2373,54.5,56.2373,61.5001,76.2373,47.5001,76.2373" style="stroke: #A80036; stroke-width: 1.0;"/><!--
@startuml interfaces
interface InterfaceA {

}

class ClassA implements InterfaceA {
    
}
@enduml

PlantUML version 1.2017.18(Fri Oct 06 18:56:32 CEST 2017)
(GPL source distribution)
Java Runtime: OpenJDK Runtime Environment
JVM: OpenJDK 64-Bit Server VM
Java Version: 1.8.0_144-b01
Operating System: Linux
OS Version: 4.13.11-1-ARCH
Default Encoding: UTF-8
Language: en
Country: US
--></g></svg>