<?xml version="1.0" encoding="UTF-8" standalone="no"?><svg xmlns="http://www.w3.org/2000/svg" xmlns:xlink="http://www.w3.org/1999/xlink" contentScriptType="application/ecmascript" contentStyleType="text/css" height="175px" preserveAspectRatio="none" style="width:117px;height:175px;" version="1.1" viewBox="0 0 117 175" width="117px" zoomAndPan="magnify"><defs><filter height="300%" id="f1nnhgiatf13hm" width="300%" x="-1" y="-1"><feGaussianBlur result="blurOut" stdDeviation="2.0"/><feColorMatrix in="blurOut" result="blurOut2" type="matrix" values="0 0 0 0 0 0 0 0 0 0 0 0 0 0 0 0 0 0 .4 0"/><feOffset dx="4.0" dy="4.0" in="blurOut2" result="blurOut3"/><feBlend in="SourceGraphic" in2="blurOut3" mode="normal"/></filter></defs><g><!--class OuterClass--><rect fill="#FEFECE" filter="url(#f1nnhgiatf13hm)" height="48" id="OuterClass" style="stroke: #A80036; stroke-width: 1.5;" width="100" x="6" y="116"/><ellipse cx="21" cy="132" fill="#ADD1B2" rx="11" ry="11" style="stroke: #A80036; stroke-width: 1.0;"/><path d="M23.9688,137.6406 Q23.3906,137.9375 22.75,138.0859 Q22.1094,138.2344 21.4063,138.2344 Q18.9063,138.2344 17.5859,136.5859 Q16.2656,134.9375 16.2656,131.8125 Q16.2656,128.6875 17.5859,127.0313 Q18.9063,125.375 21.4063,125.375 Q22.1094,125.375 22.7578,125.5313 Q23.4063,125.6875 23.9688,125.9844 L23.9688,128.7031 Q23.3438,128.125 22.75,127.8516 Q22.1563,127.5781 21.5313,127.5781 Q20.1875,127.5781 19.5,128.6484 Q18.8125,129.7188 18.8125,131.8125 Q18.8125,133.9063 19.5,134.9766 Q20.1875,136.0469 21.5313,136.0469 Q22.1563,136.0469 22.75,135.7734 Q23.3438,135.5 23.9688,134.9219 L23.9688,137.6406 Z "/><text fill="#000000" font-family="sans-serif" font-size="12" lengthAdjust="spacingAndGlyphs" textLength="68" x="35" y="136.1543">OuterClass</text><line style="stroke: #A80036; stroke-width: 1.5;" x1="7" x2="105" y1="148" y2="148"/><line style="stroke: #A80036; stroke-width: 1.5;" x1="7" x2="105" y1="156" y2="156"/><!--class InnerClass--><rect fill="#FEFECE" filter="url(#f1nnhgiatf13hm)" height="48" id="InnerClass" style="stroke: #A80036; stroke-width: 1.5;" width="97" x="7.5" y="8"/><ellipse cx="22.5" cy="24" fill="#ADD1B2" rx="11" ry="11" style="stroke: #A80036; stroke-width: 1.0;"/><path d="M25.4688,29.6406 Q24.8906,29.9375 24.25,30.0859 Q23.6094,30.2344 22.9063,30.2344 Q20.4063,30.2344 19.0859,28.5859 Q17.7656,26.9375 17.7656,23.8125 Q17.7656,20.6875 19.0859,19.0313 Q20.4063,17.375 22.9063,17.375 Q23.6094,17.375 24.2578,17.5313 Q24.9063,17.6875 25.4688,17.9844 L25.4688,20.7031 Q24.8438,20.125 24.25,19.8516 Q23.6563,19.5781 23.0313,19.5781 Q21.6875,19.5781 21,20.6484 Q20.3125,21.7188 20.3125,23.8125 Q20.3125,25.9063 21,26.9766 Q21.6875,28.0469 23.0313,28.0469 Q23.6563,28.0469 24.25,27.7734 Q24.8438,27.5 25.4688,26.9219 L25.4688,29.6406 Z "/><text fill="#000000" font-family="sans-serif" font-size="12" lengthAdjust="spacingAndGlyphs" textLength="65" x="36.5" y="28.1543">InnerClass</text><line style="stroke: #A80036; stroke-width: 1.5;" x1="8.5" x2="103.5" y1="40" y2="40"/><line style="stroke: #A80036; stroke-width: 1.5;" x1="8.5" x2="103.5" y1="48" y2="48"/><!--link InnerClass to OuterClass--><path d="M56,56.2373 C56,69.2994 56,85.7404 56,100.59 " fill="none" id="InnerClass-OuterClass" style="stroke: #A80036; stroke-width: 1.0;"/><ellipse cx="56" cy="107.8436" fill="#FFFFFF" rx="8" ry="8" style="stroke: #A80036; stroke-width: 1.0;"/><line style="stroke: #A80036; stroke-width: 1.0;" x1="56" x2="56" y1="99.8436" y2="115.8436"/><line style="stroke: #A80036; stroke-width: 1.0;" x1="64" x2="48" y1="107.8436" y2="107.8436"/><!--
@startuml Nested-Class

class OuterClass {

}

class InnerClass {

}

InnerClass - -+ OuterClass

@enduml

PlantUML version 1.2017.18(Fri Oct 06 18:56:32 CEST 2017)
(GPL source distribution)
Java Runtime: OpenJDK Runtime Environment
JVM: OpenJDK 64-Bit Server VM
Java Version: 1.8.0_144-b01
Operating System: Linux
OS Version: 4.13.11-1-ARCH
Default Encoding: UTF-8
Language: en
Country: US
--></g></svg>