<?xml version="1.0" encoding="UTF-8" standalone="no"?><svg xmlns="http://www.w3.org/2000/svg" xmlns:xlink="http://www.w3.org/1999/xlink" contentScriptType="application/ecmascript" contentStyleType="text/css" height="146px" preserveAspectRatio="none" style="width:245px;height:146px;" version="1.1" viewBox="0 0 245 146" width="245px" zoomAndPan="magnify"><defs><filter height="300%" id="fq39ucvk7s4s3" width="300%" x="-1" y="-1"><feGaussianBlur result="blurOut" stdDeviation="2.0"/><feColorMatrix in="blurOut" result="blurOut2" type="matrix" values="0 0 0 0 0 0 0 0 0 0 0 0 0 0 0 0 0 0 .4 0"/><feOffset dx="4.0" dy="4.0" in="blurOut2" result="blurOut3"/><feBlend in="SourceGraphic" in2="blurOut3" mode="normal"/></filter></defs><g><!--cluster de.fhro.prg3--><polygon fill="#FFFFFF" filter="url(#fq39ucvk7s4s3)" points="14,16,120,16,127,38.2969,223,38.2969,223,134,14,134,14,16" style="stroke: #000000; stroke-width: 2.0;"/><line style="stroke: #000000; stroke-width: 2.0;" x1="14" x2="127" y1="38.2969" y2="38.2969"/><text fill="#000000" font-family="sans-serif" font-size="14" font-weight="bold" lengthAdjust="spacingAndGlyphs" textLength="100" x="18" y="30.9951">de.fhro.prg3</text><!--cluster subpackage--><polygon fill="#FFFFFF" filter="url(#fq39ucvk7s4s3)" points="104,43,205,43,212,65.2969,215,65.2969,215,126,104,126,104,43" style="stroke: #000000; stroke-width: 2.0;"/><line style="stroke: #000000; stroke-width: 2.0;" x1="104" x2="212" y1="65.2969" y2="65.2969"/><text fill="#000000" font-family="sans-serif" font-size="14" font-weight="bold" lengthAdjust="spacingAndGlyphs" textLength="95" x="108" y="57.9951">subpackage</text><!--class ClassA--><rect fill="#FEFECE" filter="url(#fq39ucvk7s4s3)" height="48" id="ClassA" style="stroke: #A80036; stroke-width: 1.5;" width="73" x="22.5" y="70"/><ellipse cx="37.5" cy="86" fill="#ADD1B2" rx="11" ry="11" style="stroke: #A80036; stroke-width: 1.0;"/><path d="M40.4688,91.6406 Q39.8906,91.9375 39.25,92.0859 Q38.6094,92.2344 37.9063,92.2344 Q35.4063,92.2344 34.0859,90.5859 Q32.7656,88.9375 32.7656,85.8125 Q32.7656,82.6875 34.0859,81.0313 Q35.4063,79.375 37.9063,79.375 Q38.6094,79.375 39.2578,79.5313 Q39.9063,79.6875 40.4688,79.9844 L40.4688,82.7031 Q39.8438,82.125 39.25,81.8516 Q38.6563,81.5781 38.0313,81.5781 Q36.6875,81.5781 36,82.6484 Q35.3125,83.7188 35.3125,85.8125 Q35.3125,87.9063 36,88.9766 Q36.6875,90.0469 38.0313,90.0469 Q38.6563,90.0469 39.25,89.7734 Q39.8438,89.5 40.4688,88.9219 L40.4688,91.6406 Z "/><text fill="#000000" font-family="sans-serif" font-size="12" lengthAdjust="spacingAndGlyphs" textLength="41" x="51.5" y="90.1543">ClassA</text><line style="stroke: #A80036; stroke-width: 1.5;" x1="23.5" x2="94.5" y1="102" y2="102"/><line style="stroke: #A80036; stroke-width: 1.5;" x1="23.5" x2="94.5" y1="110" y2="110"/><!--class ClassB--><rect fill="#FEFECE" filter="url(#fq39ucvk7s4s3)" height="48" id="ClassB" style="stroke: #A80036; stroke-width: 1.5;" width="73" x="131.5" y="70"/><ellipse cx="146.5" cy="86" fill="#ADD1B2" rx="11" ry="11" style="stroke: #A80036; stroke-width: 1.0;"/><path d="M149.4688,91.6406 Q148.8906,91.9375 148.25,92.0859 Q147.6094,92.2344 146.9063,92.2344 Q144.4063,92.2344 143.0859,90.5859 Q141.7656,88.9375 141.7656,85.8125 Q141.7656,82.6875 143.0859,81.0313 Q144.4063,79.375 146.9063,79.375 Q147.6094,79.375 148.2578,79.5313 Q148.9063,79.6875 149.4688,79.9844 L149.4688,82.7031 Q148.8438,82.125 148.25,81.8516 Q147.6563,81.5781 147.0313,81.5781 Q145.6875,81.5781 145,82.6484 Q144.3125,83.7188 144.3125,85.8125 Q144.3125,87.9063 145,88.9766 Q145.6875,90.0469 147.0313,90.0469 Q147.6563,90.0469 148.25,89.7734 Q148.8438,89.5 149.4688,88.9219 L149.4688,91.6406 Z "/><text fill="#000000" font-family="sans-serif" font-size="12" lengthAdjust="spacingAndGlyphs" textLength="41" x="160.5" y="90.1543">ClassB</text><line style="stroke: #A80036; stroke-width: 1.5;" x1="132.5" x2="203.5" y1="102" y2="102"/><line style="stroke: #A80036; stroke-width: 1.5;" x1="132.5" x2="203.5" y1="110" y2="110"/><!--
@startuml Packages

package de.fhro.prg3 {
    class ClassA {

    }

    package subpackage {
        class ClassB {

        }
    }
}

@enduml

PlantUML version 1.2017.18(Fri Oct 06 18:56:32 CEST 2017)
(GPL source distribution)
Java Runtime: OpenJDK Runtime Environment
JVM: OpenJDK 64-Bit Server VM
Java Version: 1.8.0_144-b01
Operating System: Linux
OS Version: 4.13.11-1-ARCH
Default Encoding: UTF-8
Language: en
Country: US
--></g></svg>