<?xml version="1.0" encoding="UTF-8" standalone="no"?><svg xmlns="http://www.w3.org/2000/svg" xmlns:xlink="http://www.w3.org/1999/xlink" contentScriptType="application/ecmascript" contentStyleType="text/css" height="146px" preserveAspectRatio="none" style="width:235px;height:146px;" version="1.1" viewBox="0 0 235 146" width="235px" zoomAndPan="magnify"><defs><filter height="300%" id="f1hqaek14bzl5a" width="300%" x="-1" y="-1"><feGaussianBlur result="blurOut" stdDeviation="2.0"/><feColorMatrix in="blurOut" result="blurOut2" type="matrix" values="0 0 0 0 0 0 0 0 0 0 0 0 0 0 0 0 0 0 .4 0"/><feOffset dx="4.0" dy="4.0" in="blurOut2" result="blurOut3"/><feBlend in="SourceGraphic" in2="blurOut3" mode="normal"/></filter></defs><g><!--cluster ohm.softa--><polygon fill="#FFFFFF" filter="url(#f1hqaek14bzl5a)" points="14,16,92,16,99,38.4883,213,38.4883,213,134,14,134,14,16" style="stroke: #000000; stroke-width: 1.5;"/><line style="stroke: #000000; stroke-width: 1.5;" x1="14" x2="99" y1="38.4883" y2="38.4883"/><text fill="#000000" font-family="sans-serif" font-size="14" font-weight="bold" lengthAdjust="spacingAndGlyphs" textLength="72" x="18" y="31.5352">ohm.softa</text><!--cluster subpackage--><polygon fill="#FFFFFF" filter="url(#f1hqaek14bzl5a)" points="105,43,195,43,202,65.4883,205,65.4883,205,126,105,126,105,43" style="stroke: #000000; stroke-width: 1.5;"/><line style="stroke: #000000; stroke-width: 1.5;" x1="105" x2="202" y1="65.4883" y2="65.4883"/><text fill="#000000" font-family="sans-serif" font-size="14" font-weight="bold" lengthAdjust="spacingAndGlyphs" textLength="84" x="109" y="58.5352">subpackage</text><!--class ClassA--><rect fill="#FEFECE" filter="url(#f1hqaek14bzl5a)" height="48" id="ClassA" style="stroke: #A80036; stroke-width: 1.5;" width="70" x="22" y="70"/><ellipse cx="37" cy="86" fill="#ADD1B2" rx="11" ry="11" style="stroke: #A80036; stroke-width: 1.0;"/><path d="M39.4731,92.1431 Q38.8921,92.4419 38.2529,92.5913 Q37.6138,92.7407 36.9082,92.7407 Q34.4014,92.7407 33.0815,91.0889 Q31.7617,89.437 31.7617,86.3159 Q31.7617,83.1865 33.0815,81.5347 Q34.4014,79.8828 36.9082,79.8828 Q37.6138,79.8828 38.2612,80.0322 Q38.9087,80.1816 39.4731,80.4805 L39.4731,83.2031 Q38.8423,82.6221 38.2488,82.3523 Q37.6553,82.0825 37.0244,82.0825 Q35.6797,82.0825 34.9949,83.1492 Q34.3101,84.2158 34.3101,86.3159 Q34.3101,88.4077 34.9949,89.4744 Q35.6797,90.541 37.0244,90.541 Q37.6553,90.541 38.2488,90.2712 Q38.8423,90.0015 39.4731,89.4204 Z "/><text fill="#000000" font-family="sans-serif" font-size="12" lengthAdjust="spacingAndGlyphs" textLength="38" x="51" y="90.5352">ClassA</text><line style="stroke: #A80036; stroke-width: 1.5;" x1="23" x2="91" y1="102" y2="102"/><line style="stroke: #A80036; stroke-width: 1.5;" x1="23" x2="91" y1="110" y2="110"/><!--class ClassB--><rect fill="#FEFECE" filter="url(#f1hqaek14bzl5a)" height="48" id="ClassB" style="stroke: #A80036; stroke-width: 1.5;" width="69" x="127.5" y="70"/><ellipse cx="142.5" cy="86" fill="#ADD1B2" rx="11" ry="11" style="stroke: #A80036; stroke-width: 1.0;"/><path d="M144.9731,92.1431 Q144.3921,92.4419 143.7529,92.5913 Q143.1138,92.7407 142.4082,92.7407 Q139.9014,92.7407 138.5815,91.0889 Q137.2617,89.437 137.2617,86.3159 Q137.2617,83.1865 138.5815,81.5347 Q139.9014,79.8828 142.4082,79.8828 Q143.1138,79.8828 143.7612,80.0322 Q144.4087,80.1816 144.9731,80.4805 L144.9731,83.2031 Q144.3423,82.6221 143.7488,82.3523 Q143.1553,82.0825 142.5244,82.0825 Q141.1797,82.0825 140.4949,83.1492 Q139.8101,84.2158 139.8101,86.3159 Q139.8101,88.4077 140.4949,89.4744 Q141.1797,90.541 142.5244,90.541 Q143.1553,90.541 143.7488,90.2712 Q144.3423,90.0015 144.9731,89.4204 Z "/><text fill="#000000" font-family="sans-serif" font-size="12" lengthAdjust="spacingAndGlyphs" textLength="37" x="156.5" y="90.5352">ClassB</text><line style="stroke: #A80036; stroke-width: 1.5;" x1="128.5" x2="195.5" y1="102" y2="102"/><line style="stroke: #A80036; stroke-width: 1.5;" x1="128.5" x2="195.5" y1="110" y2="110"/><!--
@startuml Packages

package ohm.softa {
    class ClassA {

    }

    package subpackage {
        class ClassB {

        }
    }
}

@enduml

PlantUML version 1.2019.03(Sun Mar 10 12:04:44 CET 2019)
(GPL source distribution)
Java Runtime: OpenJDK Runtime Environment
JVM: OpenJDK 64-Bit Server VM
Java Version: 12.0.1+12
Operating System: Mac OS X
OS Version: 10.14.6
Default Encoding: UTF-8
Language: en
Country: GB
--></g></svg>