<?xml version="1.0" encoding="UTF-8" standalone="no"?><svg xmlns="http://www.w3.org/2000/svg" xmlns:xlink="http://www.w3.org/1999/xlink" contentScriptType="application/ecmascript" contentStyleType="text/css" height="92px" preserveAspectRatio="none" style="width:146px;height:92px;" version="1.1" viewBox="0 0 146 92" width="146px" zoomAndPan="magnify"><defs><filter height="300%" id="f1vxya8m05lyqx" width="300%" x="-1" y="-1"><feGaussianBlur result="blurOut" stdDeviation="2.0"/><feColorMatrix in="blurOut" result="blurOut2" type="matrix" values="0 0 0 0 0 0 0 0 0 0 0 0 0 0 0 0 0 0 .4 0"/><feOffset dx="4.0" dy="4.0" in="blurOut2" result="blurOut3"/><feBlend in="SourceGraphic" in2="blurOut3" mode="normal"/></filter></defs><g><!--class ClassA--><rect fill="#FEFECE" filter="url(#f1vxya8m05lyqx)" height="73.6094" id="ClassA" style="stroke: #A80036; stroke-width: 1.5;" width="129" x="6" y="8"/><ellipse cx="46.2" cy="24" fill="#ADD1B2" rx="11" ry="11" style="stroke: #A80036; stroke-width: 1.0;"/><path d="M49.1688,29.6406 Q48.5906,29.9375 47.95,30.0859 Q47.3094,30.2344 46.6063,30.2344 Q44.1063,30.2344 42.7859,28.5859 Q41.4656,26.9375 41.4656,23.8125 Q41.4656,20.6875 42.7859,19.0313 Q44.1063,17.375 46.6063,17.375 Q47.3094,17.375 47.9578,17.5313 Q48.6063,17.6875 49.1688,17.9844 L49.1688,20.7031 Q48.5438,20.125 47.95,19.8516 Q47.3563,19.5781 46.7313,19.5781 Q45.3875,19.5781 44.7,20.6484 Q44.0125,21.7188 44.0125,23.8125 Q44.0125,25.9063 44.7,26.9766 Q45.3875,28.0469 46.7313,28.0469 Q47.3563,28.0469 47.95,27.7734 Q48.5438,27.5 49.1688,26.9219 L49.1688,29.6406 Z "/><text fill="#000000" font-family="sans-serif" font-size="12" lengthAdjust="spacingAndGlyphs" textLength="41" x="65.8" y="28.1543">ClassA</text><line style="stroke: #A80036; stroke-width: 1.5;" x1="7" x2="134" y1="40" y2="40"/><rect fill="none" height="6" style="stroke: #C82930; stroke-width: 1.0;" width="6" x="14" y="48.9023"/><text fill="#000000" font-family="sans-serif" font-size="11" lengthAdjust="spacingAndGlyphs" text-decoration="underline" textLength="79" x="26" y="54.2104">staticField: int</text><line style="stroke: #000000; stroke-width: 1.0;" x1="26" x2="105" y1="56.2104" y2="56.2104"/><ellipse cx="17" cy="64.707" fill="none" rx="3" ry="3" style="stroke: #038048; stroke-width: 1.0;"/><text fill="#000000" font-family="sans-serif" font-size="11" lengthAdjust="spacingAndGlyphs" text-decoration="underline" textLength="103" x="26" y="67.0151">staticMethod: void</text><line style="stroke: #000000; stroke-width: 1.0;" x1="26" x2="129" y1="69.0151" y2="69.0151"/><line style="stroke: #A80036; stroke-width: 1.5;" x1="7" x2="134" y1="73.6094" y2="73.6094"/><!--
@startuml StaticFieldsMethods

class ClassA {
    -{static} staticField: int

    +{static} staticMethod: void
}

@enduml

PlantUML version 1.2017.18(Fri Oct 06 18:56:32 CEST 2017)
(GPL source distribution)
Java Runtime: OpenJDK Runtime Environment
JVM: OpenJDK 64-Bit Server VM
Java Version: 1.8.0_144-b01
Operating System: Linux
OS Version: 4.13.11-1-ARCH
Default Encoding: UTF-8
Language: en
Country: US
--></g></svg>