<?xml version="1.0" encoding="UTF-8" standalone="no"?><svg xmlns="http://www.w3.org/2000/svg" xmlns:xlink="http://www.w3.org/1999/xlink" contentScriptType="application/ecmascript" contentStyleType="text/css" height="169px" preserveAspectRatio="none" style="width:220px;height:169px;" version="1.1" viewBox="0 0 220 169" width="220px" zoomAndPan="magnify"><defs><filter height="300%" id="fw1i2d90e9vuv" width="300%" x="-1" y="-1"><feGaussianBlur result="blurOut" stdDeviation="2.0"/><feColorMatrix in="blurOut" result="blurOut2" type="matrix" values="0 0 0 0 0 0 0 0 0 0 0 0 0 0 0 0 0 0 .4 0"/><feOffset dx="4.0" dy="4.0" in="blurOut2" result="blurOut3"/><feBlend in="SourceGraphic" in2="blurOut3" mode="normal"/></filter></defs><g><!--class ClassA--><rect fill="#FEFECE" filter="url(#fw1i2d90e9vuv)" height="150.4375" id="ClassA" style="stroke: #A80036; stroke-width: 1.5;" width="203" x="6" y="8"/><ellipse cx="82.75" cy="24" fill="#ADD1B2" rx="11" ry="11" style="stroke: #A80036; stroke-width: 1.0;"/><path d="M85.7188,29.6406 Q85.1406,29.9375 84.5,30.0859 Q83.8594,30.2344 83.1563,30.2344 Q80.6563,30.2344 79.3359,28.5859 Q78.0156,26.9375 78.0156,23.8125 Q78.0156,20.6875 79.3359,19.0313 Q80.6563,17.375 83.1563,17.375 Q83.8594,17.375 84.5078,17.5313 Q85.1563,17.6875 85.7188,17.9844 L85.7188,20.7031 Q85.0938,20.125 84.5,19.8516 Q83.9063,19.5781 83.2813,19.5781 Q81.9375,19.5781 81.25,20.6484 Q80.5625,21.7188 80.5625,23.8125 Q80.5625,25.9063 81.25,26.9766 Q81.9375,28.0469 83.2813,28.0469 Q83.9063,28.0469 84.5,27.7734 Q85.0938,27.5 85.7188,26.9219 L85.7188,29.6406 Z "/><text fill="#000000" font-family="sans-serif" font-size="12" lengthAdjust="spacingAndGlyphs" textLength="41" x="103.25" y="28.1543">ClassA</text><line style="stroke: #A80036; stroke-width: 1.5;" x1="7" x2="208" y1="40" y2="40"/><rect fill="none" height="6" style="stroke: #C82930; stroke-width: 1.0;" width="6" x="14" y="48.9023"/><text fill="#000000" font-family="sans-serif" font-size="11" lengthAdjust="spacingAndGlyphs" textLength="87" x="26" y="54.2104">privateField: int</text><polygon fill="none" points="17,59.707,21,63.707,17,67.707,13,63.707" style="stroke: #B38D22; stroke-width: 1.0;"/><text fill="#000000" font-family="sans-serif" font-size="11" lengthAdjust="spacingAndGlyphs" textLength="122" x="26" y="67.0151">protectedField: String</text><polygon fill="none" points="17,73.5117,13,79.5117,21,79.5117" style="stroke: #1963A0; stroke-width: 1.0;"/><text fill="#000000" font-family="sans-serif" font-size="11" lengthAdjust="spacingAndGlyphs" textLength="158" x="26" y="79.8198">packagePrivateField: double</text><ellipse cx="17" cy="90.3164" fill="none" rx="3" ry="3" style="stroke: #038048; stroke-width: 1.0;"/><text fill="#000000" font-family="sans-serif" font-size="11" lengthAdjust="spacingAndGlyphs" textLength="92" x="26" y="92.6245">publicField: float</text><line style="stroke: #A80036; stroke-width: 1.5;" x1="7" x2="208" y1="99.2188" y2="99.2188"/><rect fill="#F24D5C" height="6" style="stroke: #C82930; stroke-width: 1.0;" width="6" x="14" y="108.1211"/><text fill="#000000" font-family="sans-serif" font-size="11" lengthAdjust="spacingAndGlyphs" textLength="119" x="26" y="113.4292">privateMethod(): void</text><polygon fill="#FFFF44" points="17,118.9258,21,122.9258,17,126.9258,13,122.9258" style="stroke: #B38D22; stroke-width: 1.0;"/><text fill="#000000" font-family="sans-serif" font-size="11" lengthAdjust="spacingAndGlyphs" textLength="141" x="26" y="126.2339">protectedMethod(): short</text><polygon fill="#4177AF" points="17,132.7305,13,138.7305,21,138.7305" style="stroke: #1963A0; stroke-width: 1.0;"/><text fill="#000000" font-family="sans-serif" font-size="11" lengthAdjust="spacingAndGlyphs" textLength="177" x="26" y="139.0386">packagePrivateMethod(): String</text><ellipse cx="17" cy="149.5352" fill="#84BE84" rx="3" ry="3" style="stroke: #038048; stroke-width: 1.0;"/><text fill="#000000" font-family="sans-serif" font-size="11" lengthAdjust="spacingAndGlyphs" textLength="104" x="26" y="151.8433">publicMethod(): int</text><!--
@startuml Visibility

class ClassA {
    - privateField: int
    # protectedField: String
    ~ packagePrivateField: double
    + publicField: float

    - privateMethod(): void
    # protectedMethod(): short
    ~ packagePrivateMethod(): String
    + publicMethod(): int
}

@enduml

PlantUML version 1.2017.18(Fri Oct 06 18:56:32 CEST 2017)
(GPL source distribution)
Java Runtime: OpenJDK Runtime Environment
JVM: OpenJDK 64-Bit Server VM
Java Version: 1.8.0_144-b01
Operating System: Linux
OS Version: 4.13.11-1-ARCH
Default Encoding: UTF-8
Language: en
Country: US
--></g></svg>