<?xml version="1.0" encoding="UTF-8" standalone="no"?><svg xmlns="http://www.w3.org/2000/svg" xmlns:xlink="http://www.w3.org/1999/xlink" contentScriptType="application/ecmascript" contentStyleType="text/css" height="536px" preserveAspectRatio="none" style="width:658px;height:536px;" version="1.1" viewBox="0 0 658 536" width="658px" zoomAndPan="magnify"><defs><filter height="300%" id="fwpxs093sdd0" width="300%" x="-1" y="-1"><feGaussianBlur result="blurOut" stdDeviation="2.0"/><feColorMatrix in="blurOut" result="blurOut2" type="matrix" values="0 0 0 0 0 0 0 0 0 0 0 0 0 0 0 0 0 0 .4 0"/><feOffset dx="4.0" dy="4.0" in="blurOut2" result="blurOut3"/><feBlend in="SourceGraphic" in2="blurOut3" mode="normal"/></filter></defs><g><rect fill="#FFFFFF" filter="url(#fwpxs093sdd0)" height="217.708" style="stroke: #A80036; stroke-width: 1.0;" width="10" x="153.5" y="69.4883"/><rect fill="#FFFFFF" filter="url(#fwpxs093sdd0)" height="146.9316" style="stroke: #A80036; stroke-width: 1.0;" width="10" x="339.5" y="188.4199"/><rect fill="#FFFFFF" filter="url(#fwpxs093sdd0)" height="175.2422" style="stroke: #A80036; stroke-width: 1.0;" width="10" x="452.5" y="241.7305"/><line style="stroke: #A80036; stroke-width: 1.0; stroke-dasharray: 5.0,5.0;" x1="26" x2="26" y1="38.4883" y2="495.5938"/><line style="stroke: #A80036; stroke-width: 1.0; stroke-dasharray: 5.0,5.0;" x1="158.5" x2="158.5" y1="38.4883" y2="495.5938"/><line style="stroke: #A80036; stroke-width: 1.0; stroke-dasharray: 5.0,5.0;" x1="344.5" x2="344.5" y1="38.4883" y2="495.5938"/><line style="stroke: #A80036; stroke-width: 1.0; stroke-dasharray: 5.0,5.0;" x1="457.5" x2="457.5" y1="38.4883" y2="495.5938"/><rect fill="#FEFECE" filter="url(#fwpxs093sdd0)" height="30.4883" style="stroke: #A80036; stroke-width: 1.5;" width="33" x="8" y="3"/><text fill="#000000" font-family="sans-serif" font-size="14" lengthAdjust="spacingAndGlyphs" textLength="19" x="15" y="23.5352">OS</text><rect fill="#FEFECE" filter="url(#fwpxs093sdd0)" height="30.4883" style="stroke: #A80036; stroke-width: 1.5;" width="33" x="8" y="494.5938"/><text fill="#000000" font-family="sans-serif" font-size="14" lengthAdjust="spacingAndGlyphs" textLength="19" x="15" y="515.1289">OS</text><rect fill="#FEFECE" filter="url(#fwpxs093sdd0)" height="30.4883" style="stroke: #A80036; stroke-width: 1.5;" width="48" x="132.5" y="3"/><text fill="#000000" font-family="sans-serif" font-size="14" lengthAdjust="spacingAndGlyphs" textLength="34" x="139.5" y="23.5352">main</text><rect fill="#FEFECE" filter="url(#fwpxs093sdd0)" height="30.4883" style="stroke: #A80036; stroke-width: 1.5;" width="48" x="132.5" y="494.5938"/><text fill="#000000" font-family="sans-serif" font-size="14" lengthAdjust="spacingAndGlyphs" textLength="34" x="139.5" y="515.1289">main</text><rect fill="#FEFECE" filter="url(#fwpxs093sdd0)" height="30.4883" style="stroke: #A80036; stroke-width: 1.5;" width="32" x="326.5" y="3"/><text fill="#000000" font-family="sans-serif" font-size="14" lengthAdjust="spacingAndGlyphs" textLength="18" x="333.5" y="23.5352">b1</text><rect fill="#FEFECE" filter="url(#fwpxs093sdd0)" height="30.4883" style="stroke: #A80036; stroke-width: 1.5;" width="32" x="326.5" y="494.5938"/><text fill="#000000" font-family="sans-serif" font-size="14" lengthAdjust="spacingAndGlyphs" textLength="18" x="333.5" y="515.1289">b1</text><rect fill="#FEFECE" filter="url(#fwpxs093sdd0)" height="30.4883" style="stroke: #A80036; stroke-width: 1.5;" width="32" x="439.5" y="3"/><text fill="#000000" font-family="sans-serif" font-size="14" lengthAdjust="spacingAndGlyphs" textLength="18" x="446.5" y="23.5352">b2</text><rect fill="#FEFECE" filter="url(#fwpxs093sdd0)" height="30.4883" style="stroke: #A80036; stroke-width: 1.5;" width="32" x="439.5" y="494.5938"/><text fill="#000000" font-family="sans-serif" font-size="14" lengthAdjust="spacingAndGlyphs" textLength="18" x="446.5" y="515.1289">b2</text><rect fill="#FFFFFF" filter="url(#fwpxs093sdd0)" height="217.708" style="stroke: #A80036; stroke-width: 1.0;" width="10" x="153.5" y="69.4883"/><rect fill="#FFFFFF" filter="url(#fwpxs093sdd0)" height="146.9316" style="stroke: #A80036; stroke-width: 1.0;" width="10" x="339.5" y="188.4199"/><rect fill="#FFFFFF" filter="url(#fwpxs093sdd0)" height="175.2422" style="stroke: #A80036; stroke-width: 1.0;" width="10" x="452.5" y="241.7305"/><polygon fill="#A80036" points="141.5,65.4883,151.5,69.4883,141.5,73.4883,145.5,69.4883" style="stroke: #A80036; stroke-width: 1.0;"/><line style="stroke: #A80036; stroke-width: 1.0; stroke-dasharray: 2.0,2.0;" x1="26.5" x2="147.5" y1="69.4883" y2="69.4883"/><text fill="#000000" font-family="sans-serif" font-size="13" lengthAdjust="spacingAndGlyphs" textLength="108" x="33.5" y="65.0566">java BeanCounter</text><line style="stroke: #A80036; stroke-width: 1.0; stroke-dasharray: 2.0,2.0;" x1="163.5" x2="205.5" y1="99.1094" y2="99.1094"/><line style="stroke: #A80036; stroke-width: 1.0; stroke-dasharray: 2.0,2.0;" x1="205.5" x2="205.5" y1="99.1094" y2="112.1094"/><line style="stroke: #A80036; stroke-width: 1.0; stroke-dasharray: 2.0,2.0;" x1="164.5" x2="205.5" y1="112.1094" y2="112.1094"/><polygon fill="#A80036" points="174.5,108.1094,164.5,112.1094,174.5,116.1094,170.5,112.1094" style="stroke: #A80036; stroke-width: 1.0;"/><text fill="#000000" font-family="sans-serif" font-size="13" lengthAdjust="spacingAndGlyphs" textLength="162" x="170.5" y="94.3672">b1 = new BeanCounter(...)</text><line style="stroke: #A80036; stroke-width: 1.0; stroke-dasharray: 2.0,2.0;" x1="163.5" x2="205.5" y1="141.4199" y2="141.4199"/><line style="stroke: #A80036; stroke-width: 1.0; stroke-dasharray: 2.0,2.0;" x1="205.5" x2="205.5" y1="141.4199" y2="154.4199"/><line style="stroke: #A80036; stroke-width: 1.0; stroke-dasharray: 2.0,2.0;" x1="164.5" x2="205.5" y1="154.4199" y2="154.4199"/><polygon fill="#A80036" points="174.5,150.4199,164.5,154.4199,174.5,158.4199,170.5,154.4199" style="stroke: #A80036; stroke-width: 1.0;"/><text fill="#000000" font-family="sans-serif" font-size="13" lengthAdjust="spacingAndGlyphs" textLength="162" x="170.5" y="136.6777">b2 = new BeanCounter(...)</text><polygon fill="#A80036" points="327.5,184.4199,337.5,188.4199,327.5,192.4199,331.5,188.4199" style="stroke: #A80036; stroke-width: 1.0;"/><line style="stroke: #A80036; stroke-width: 1.0; stroke-dasharray: 2.0,2.0;" x1="163.5" x2="333.5" y1="188.4199" y2="188.4199"/><text fill="#000000" font-family="sans-serif" font-size="13" lengthAdjust="spacingAndGlyphs" textLength="137" x="170.5" y="183.9883">new Thread(b1).start()</text><polygon fill="#FBFB77" filter="url(#fwpxs093sdd0)" points="354,167.4199,354,192.4199,533,192.4199,533,177.4199,523,167.4199,354,167.4199" style="stroke: #A80036; stroke-width: 1.0;"/><line style="stroke: #A80036; stroke-width: 1.0;" x1="523" x2="523" y1="167.4199" y2="177.4199"/><line style="stroke: #A80036; stroke-width: 1.0;" x1="533" x2="523" y1="177.4199" y2="177.4199"/><text fill="#000000" font-family="sans-serif" font-size="13" lengthAdjust="spacingAndGlyphs" textLength="158" x="360" y="184.9883">Bureaucrat 1 is starting...</text><polygon fill="#A80036" points="174.5,203.7305,164.5,207.7305,174.5,211.7305,170.5,207.7305" style="stroke: #A80036; stroke-width: 1.0;"/><line style="stroke: #A80036; stroke-width: 1.0; stroke-dasharray: 2.0,2.0;" x1="168.5" x2="338.5" y1="207.7305" y2="207.7305"/><polygon fill="#A80036" points="440.5,237.7305,450.5,241.7305,440.5,245.7305,444.5,241.7305" style="stroke: #A80036; stroke-width: 1.0;"/><line style="stroke: #A80036; stroke-width: 1.0; stroke-dasharray: 2.0,2.0;" x1="163.5" x2="446.5" y1="241.7305" y2="241.7305"/><text fill="#000000" font-family="sans-serif" font-size="13" lengthAdjust="spacingAndGlyphs" textLength="137" x="170.5" y="237.2988">new Thread(b2).start()</text><polygon fill="#FBFB77" filter="url(#fwpxs093sdd0)" points="467,220.7305,467,245.7305,646,245.7305,646,230.7305,636,220.7305,467,220.7305" style="stroke: #A80036; stroke-width: 1.0;"/><line style="stroke: #A80036; stroke-width: 1.0;" x1="636" x2="636" y1="220.7305" y2="230.7305"/><line style="stroke: #A80036; stroke-width: 1.0;" x1="646" x2="636" y1="230.7305" y2="230.7305"/><text fill="#000000" font-family="sans-serif" font-size="13" lengthAdjust="spacingAndGlyphs" textLength="158" x="473" y="238.2988">Bureaucrat 2 is starting...</text><polygon fill="#A80036" points="174.5,257.041,164.5,261.041,174.5,265.041,170.5,261.041" style="stroke: #A80036; stroke-width: 1.0;"/><line style="stroke: #A80036; stroke-width: 1.0; stroke-dasharray: 2.0,2.0;" x1="168.5" x2="451.5" y1="261.041" y2="261.041"/><line style="stroke: #A80036; stroke-width: 1.0; stroke-dasharray: 2.0,2.0;" x1="163.5" x2="205.5" y1="286.1963" y2="286.1963"/><line style="stroke: #A80036; stroke-width: 1.0; stroke-dasharray: 2.0,2.0;" x1="205.5" x2="205.5" y1="286.1963" y2="299.1963"/><line style="stroke: #A80036; stroke-width: 1.0; stroke-dasharray: 2.0,2.0;" x1="158.5" x2="205.5" y1="299.1963" y2="299.1963"/><polygon fill="#A80036" points="168.5,295.1963,158.5,299.1963,168.5,303.1963,164.5,299.1963" style="stroke: #A80036; stroke-width: 1.0;"/><polygon fill="#FBFB77" filter="url(#fwpxs093sdd0)" points="35,274.041,35,299.041,144,299.041,144,284.041,134,274.041,35,274.041" style="stroke: #A80036; stroke-width: 1.0;"/><line style="stroke: #A80036; stroke-width: 1.0;" x1="134" x2="134" y1="274.041" y2="284.041"/><line style="stroke: #A80036; stroke-width: 1.0;" x1="144" x2="134" y1="284.041" y2="284.041"/><text fill="#000000" font-family="sans-serif" font-size="13" lengthAdjust="spacingAndGlyphs" textLength="88" x="41" y="291.6094">"main() done!"</text><line style="stroke: #A80036; stroke-width: 1.0; stroke-dasharray: 2.0,2.0;" x1="349.5" x2="391.5" y1="334.6621" y2="334.6621"/><line style="stroke: #A80036; stroke-width: 1.0; stroke-dasharray: 2.0,2.0;" x1="391.5" x2="391.5" y1="334.6621" y2="347.6621"/><line style="stroke: #A80036; stroke-width: 1.0; stroke-dasharray: 2.0,2.0;" x1="344.5" x2="391.5" y1="347.6621" y2="347.6621"/><polygon fill="#A80036" points="354.5,343.6621,344.5,347.6621,354.5,351.6621,350.5,347.6621" style="stroke: #A80036; stroke-width: 1.0;"/><text fill="#000000" font-family="sans-serif" font-size="13" lengthAdjust="spacingAndGlyphs" textLength="89" x="356.5" y="329.9199">Arrays.sort(...)</text><polygon fill="#FBFB77" filter="url(#fwpxs093sdd0)" points="349,355.6621,349,380.6621,512,380.6621,512,365.6621,502,355.6621,349,355.6621" style="stroke: #A80036; stroke-width: 1.0;"/><line style="stroke: #A80036; stroke-width: 1.0;" x1="502" x2="502" y1="355.6621" y2="365.6621"/><line style="stroke: #A80036; stroke-width: 1.0;" x1="512" x2="502" y1="365.6621" y2="365.6621"/><text fill="#000000" font-family="sans-serif" font-size="13" lengthAdjust="spacingAndGlyphs" textLength="142" x="355" y="373.2305">"Bureaucrat 1 is done!"</text><line style="stroke: #A80036; stroke-width: 1.0; stroke-dasharray: 2.0,2.0;" x1="462.5" x2="504.5" y1="416.2832" y2="416.2832"/><line style="stroke: #A80036; stroke-width: 1.0; stroke-dasharray: 2.0,2.0;" x1="504.5" x2="504.5" y1="416.2832" y2="429.2832"/><line style="stroke: #A80036; stroke-width: 1.0; stroke-dasharray: 2.0,2.0;" x1="457.5" x2="504.5" y1="429.2832" y2="429.2832"/><polygon fill="#A80036" points="467.5,425.2832,457.5,429.2832,467.5,433.2832,463.5,429.2832" style="stroke: #A80036; stroke-width: 1.0;"/><text fill="#000000" font-family="sans-serif" font-size="13" lengthAdjust="spacingAndGlyphs" textLength="89" x="469.5" y="411.541">Arrays.sort(...)</text><polygon fill="#FBFB77" filter="url(#fwpxs093sdd0)" points="462,437.2832,462,462.2832,625,462.2832,625,447.2832,615,437.2832,462,437.2832" style="stroke: #A80036; stroke-width: 1.0;"/><line style="stroke: #A80036; stroke-width: 1.0;" x1="615" x2="615" y1="437.2832" y2="447.2832"/><line style="stroke: #A80036; stroke-width: 1.0;" x1="625" x2="615" y1="447.2832" y2="447.2832"/><text fill="#000000" font-family="sans-serif" font-size="13" lengthAdjust="spacingAndGlyphs" textLength="142" x="468" y="454.8516">"Bureaucrat 2 is done!"</text><polygon fill="#A80036" points="37.5,473.5938,27.5,477.5938,37.5,481.5938,33.5,477.5938" style="stroke: #A80036; stroke-width: 1.0;"/><line style="stroke: #A80036; stroke-width: 1.0; stroke-dasharray: 2.0,2.0;" x1="31.5" x2="157.5" y1="477.5938" y2="477.5938"/><!--
@startuml
'modeled with threads

OS - -> main : java BeanCounter
activate main

main - -> main : b1 = new BeanCounter(...)
main - -> main : b2 = new BeanCounter(...)

main - -> b1 : new Thread(b1).start()
activate b1
note right : Bureaucrat 1 is starting...
b1 - -> main

main - -> b2 : new Thread(b2).start()
activate b2
note right : Bureaucrat 2 is starting...
b2 - -> main

main - -> main
note left : "main() done!"
deactivate main


b1 - -> b1 : Arrays.sort(...)

note right of b1: "Bureaucrat 1 is done!"

deactivate b1

b2 - -> b2 : Arrays.sort(...)

note right of b2: "Bureaucrat 2 is done!"

deactivate b2


main - -> OS

@enduml

PlantUML version 1.2017.16(Sun Sep 03 12:53:37 CEST 2017)
(GPL source distribution)
Java Runtime: Java(TM) SE Runtime Environment
JVM: Java HotSpot(TM) 64-Bit Server VM
Java Version: 1.8.0_144-b01
Operating System: Mac OS X
OS Version: 10.13.1
Default Encoding: UTF-8
Language: en
Country: US
--></g></svg>