<?xml version="1.0" encoding="UTF-8" standalone="no"?><svg xmlns="http://www.w3.org/2000/svg" xmlns:xlink="http://www.w3.org/1999/xlink" contentScriptType="application/ecmascript" contentStyleType="text/css" height="297px" preserveAspectRatio="none" style="width:971px;height:297px;" version="1.1" viewBox="0 0 971 297" width="971px" zoomAndPan="magnify"><defs><filter height="300%" id="f35nqxatqsh68" width="300%" x="-1" y="-1"><feGaussianBlur result="blurOut" stdDeviation="2.0"/><feColorMatrix in="blurOut" result="blurOut2" type="matrix" values="0 0 0 0 0 0 0 0 0 0 0 0 0 0 0 0 0 0 .4 0"/><feOffset dx="4.0" dy="4.0" in="blurOut2" result="blurOut3"/><feBlend in="SourceGraphic" in2="blurOut3" mode="normal"/></filter></defs><g><!--cluster association--><rect fill="#FFFFFF" filter="url(#f35nqxatqsh68)" height="270" style="stroke: #000000; stroke-width: 2.0;" width="163" x="14" y="16"/><text fill="#000000" font-family="sans-serif" font-size="14" font-weight="bold" lengthAdjust="spacingAndGlyphs" textLength="82" x="54.5" y="31.5352">association</text><!--cluster inheritance and implementation--><rect fill="#FFFFFF" filter="url(#f35nqxatqsh68)" height="270" style="stroke: #000000; stroke-width: 2.0;" width="247" x="185" y="16"/><text fill="#000000" font-family="sans-serif" font-size="14" font-weight="bold" lengthAdjust="spacingAndGlyphs" textLength="231" x="193" y="31.5352">inheritance and implementation</text><!--cluster dependency--><rect fill="#FFFFFF" filter="url(#f35nqxatqsh68)" height="270" style="stroke: #000000; stroke-width: 2.0;" width="163" x="440" y="16"/><text fill="#000000" font-family="sans-serif" font-size="14" font-weight="bold" lengthAdjust="spacingAndGlyphs" textLength="84" x="479.5" y="31.5352">dependency</text><!--cluster composition--><rect fill="#FFFFFF" filter="url(#f35nqxatqsh68)" height="270" style="stroke: #000000; stroke-width: 2.0;" width="234" x="611" y="16"/><text fill="#000000" font-family="sans-serif" font-size="14" font-weight="bold" lengthAdjust="spacingAndGlyphs" textLength="90" x="683" y="31.5352">composition</text><!--cluster aggregation--><rect fill="#FFFFFF" filter="url(#f35nqxatqsh68)" height="270" style="stroke: #000000; stroke-width: 2.0;" width="102" x="858" y="16"/><text fill="#000000" font-family="sans-serif" font-size="14" font-weight="bold" lengthAdjust="spacingAndGlyphs" textLength="86" x="866" y="31.5352">aggregation</text><!--class Pretzel--><rect fill="#FEFECE" filter="url(#f35nqxatqsh68)" height="48" id="Pretzel" style="stroke: #A80036; stroke-width: 1.5;" width="72" x="22" y="43"/><ellipse cx="37" cy="59" fill="#ADD1B2" rx="11" ry="11" style="stroke: #A80036; stroke-width: 1.0;"/><path d="M39.9731,64.6431 Q39.3921,64.9419 38.7529,65.0913 Q38.1138,65.2407 37.4082,65.2407 Q34.9014,65.2407 33.5815,63.5889 Q32.2617,61.937 32.2617,58.8159 Q32.2617,55.6865 33.5815,54.0347 Q34.9014,52.3828 37.4082,52.3828 Q38.1138,52.3828 38.7612,52.5322 Q39.4087,52.6816 39.9731,52.9805 L39.9731,55.7031 Q39.3423,55.1221 38.7488,54.8523 Q38.1553,54.5825 37.5244,54.5825 Q36.1797,54.5825 35.4949,55.6492 Q34.8101,56.7158 34.8101,58.8159 Q34.8101,60.9077 35.4949,61.9744 Q36.1797,63.041 37.5244,63.041 Q38.1553,63.041 38.7488,62.7712 Q39.3423,62.5015 39.9731,61.9204 Z "/><text fill="#000000" font-family="sans-serif" font-size="12" lengthAdjust="spacingAndGlyphs" textLength="40" x="51" y="63.5352">Pretzel</text><line style="stroke: #A80036; stroke-width: 1.5;" x1="23" x2="93" y1="75" y2="75"/><line style="stroke: #A80036; stroke-width: 1.5;" x1="23" x2="93" y1="83" y2="83"/><!--class Beer--><rect fill="#FEFECE" filter="url(#f35nqxatqsh68)" height="48" id="Beer" style="stroke: #A80036; stroke-width: 1.5;" width="58" x="28" y="230"/><ellipse cx="43" cy="246" fill="#ADD1B2" rx="11" ry="11" style="stroke: #A80036; stroke-width: 1.0;"/><path d="M45.9731,251.6431 Q45.3921,251.9419 44.7529,252.0913 Q44.1138,252.2407 43.4082,252.2407 Q40.9014,252.2407 39.5815,250.5889 Q38.2617,248.937 38.2617,245.8159 Q38.2617,242.6865 39.5815,241.0347 Q40.9014,239.3828 43.4082,239.3828 Q44.1138,239.3828 44.7612,239.5322 Q45.4087,239.6816 45.9731,239.9805 L45.9731,242.7031 Q45.3423,242.1221 44.7488,241.8523 Q44.1553,241.5825 43.5244,241.5825 Q42.1797,241.5825 41.4949,242.6492 Q40.8101,243.7158 40.8101,245.8159 Q40.8101,247.9077 41.4949,248.9744 Q42.1797,250.041 43.5244,250.041 Q44.1553,250.041 44.7488,249.7712 Q45.3423,249.5015 45.9731,248.9204 Z "/><text fill="#000000" font-family="sans-serif" font-size="12" lengthAdjust="spacingAndGlyphs" textLength="26" x="57" y="250.5352">Beer</text><line style="stroke: #A80036; stroke-width: 1.5;" x1="29" x2="85" y1="262" y2="262"/><line style="stroke: #A80036; stroke-width: 1.5;" x1="29" x2="85" y1="270" y2="270"/><!--class Parent--><rect fill="#FEFECE" filter="url(#f35nqxatqsh68)" height="48" id="Parent" style="stroke: #A80036; stroke-width: 1.5;" width="69" x="325.5" y="43"/><ellipse cx="340.5" cy="59" fill="#ADD1B2" rx="11" ry="11" style="stroke: #A80036; stroke-width: 1.0;"/><path d="M343.4731,64.6431 Q342.8921,64.9419 342.2529,65.0913 Q341.6138,65.2407 340.9082,65.2407 Q338.4014,65.2407 337.0815,63.5889 Q335.7617,61.937 335.7617,58.8159 Q335.7617,55.6865 337.0815,54.0347 Q338.4014,52.3828 340.9082,52.3828 Q341.6138,52.3828 342.2612,52.5322 Q342.9087,52.6816 343.4731,52.9805 L343.4731,55.7031 Q342.8423,55.1221 342.2488,54.8523 Q341.6553,54.5825 341.0244,54.5825 Q339.6797,54.5825 338.9949,55.6492 Q338.3101,56.7158 338.3101,58.8159 Q338.3101,60.9077 338.9949,61.9744 Q339.6797,63.041 341.0244,63.041 Q341.6553,63.041 342.2488,62.7712 Q342.8423,62.5015 343.4731,61.9204 Z "/><text fill="#000000" font-family="sans-serif" font-size="12" lengthAdjust="spacingAndGlyphs" textLength="37" x="354.5" y="63.5352">Parent</text><line style="stroke: #A80036; stroke-width: 1.5;" x1="326.5" x2="393.5" y1="75" y2="75"/><line style="stroke: #A80036; stroke-width: 1.5;" x1="326.5" x2="393.5" y1="83" y2="83"/><!--class Princess--><rect fill="#FEFECE" filter="url(#f35nqxatqsh68)" height="48" id="Princess" style="stroke: #A80036; stroke-width: 1.5;" width="79" x="211.5" y="43"/><ellipse cx="226.5" cy="59" fill="#B4A7E5" rx="11" ry="11" style="stroke: #A80036; stroke-width: 1.0;"/><path d="M222.4277,54.7651 L222.4277,52.6069 L229.8071,52.6069 L229.8071,54.7651 L227.3418,54.7651 L227.3418,62.8418 L229.8071,62.8418 L229.8071,65 L222.4277,65 L222.4277,62.8418 L224.8931,62.8418 L224.8931,54.7651 Z "/><text fill="#000000" font-family="sans-serif" font-size="12" font-style="italic" lengthAdjust="spacingAndGlyphs" textLength="47" x="240.5" y="63.5352">Princess</text><line style="stroke: #A80036; stroke-width: 1.5;" x1="212.5" x2="289.5" y1="75" y2="75"/><line style="stroke: #A80036; stroke-width: 1.5;" x1="212.5" x2="289.5" y1="83" y2="83"/><!--class Child--><rect fill="#FEFECE" filter="url(#f35nqxatqsh68)" height="48" id="Child" style="stroke: #A80036; stroke-width: 1.5;" width="61" x="275.5" y="230"/><ellipse cx="290.5" cy="246" fill="#ADD1B2" rx="11" ry="11" style="stroke: #A80036; stroke-width: 1.0;"/><path d="M293.4731,251.6431 Q292.8921,251.9419 292.2529,252.0913 Q291.6138,252.2407 290.9082,252.2407 Q288.4014,252.2407 287.0815,250.5889 Q285.7617,248.937 285.7617,245.8159 Q285.7617,242.6865 287.0815,241.0347 Q288.4014,239.3828 290.9082,239.3828 Q291.6138,239.3828 292.2612,239.5322 Q292.9087,239.6816 293.4731,239.9805 L293.4731,242.7031 Q292.8423,242.1221 292.2488,241.8523 Q291.6553,241.5825 291.0244,241.5825 Q289.6797,241.5825 288.9949,242.6492 Q288.3101,243.7158 288.3101,245.8159 Q288.3101,247.9077 288.9949,248.9744 Q289.6797,250.041 291.0244,250.041 Q291.6553,250.041 292.2488,249.7712 Q292.8423,249.5015 293.4731,248.9204 Z "/><text fill="#000000" font-family="sans-serif" font-size="12" lengthAdjust="spacingAndGlyphs" textLength="29" x="304.5" y="250.5352">Child</text><line style="stroke: #A80036; stroke-width: 1.5;" x1="276.5" x2="335.5" y1="262" y2="262"/><line style="stroke: #A80036; stroke-width: 1.5;" x1="276.5" x2="335.5" y1="270" y2="270"/><!--class BaföG--><rect fill="#FEFECE" filter="url(#f35nqxatqsh68)" height="48" id="BaföG" style="stroke: #A80036; stroke-width: 1.5;" width="66" x="450" y="230"/><ellipse cx="465" cy="246" fill="#ADD1B2" rx="11" ry="11" style="stroke: #A80036; stroke-width: 1.0;"/><path d="M467.9731,251.6431 Q467.3921,251.9419 466.7529,252.0913 Q466.1138,252.2407 465.4082,252.2407 Q462.9014,252.2407 461.5815,250.5889 Q460.2617,248.937 460.2617,245.8159 Q460.2617,242.6865 461.5815,241.0347 Q462.9014,239.3828 465.4082,239.3828 Q466.1138,239.3828 466.7612,239.5322 Q467.4087,239.6816 467.9731,239.9805 L467.9731,242.7031 Q467.3423,242.1221 466.7488,241.8523 Q466.1553,241.5825 465.5244,241.5825 Q464.1797,241.5825 463.4949,242.6492 Q462.8101,243.7158 462.8101,245.8159 Q462.8101,247.9077 463.4949,248.9744 Q464.1797,250.041 465.5244,250.041 Q466.1553,250.041 466.7488,249.7712 Q467.3423,249.5015 467.9731,248.9204 Z "/><text fill="#000000" font-family="sans-serif" font-size="12" lengthAdjust="spacingAndGlyphs" textLength="34" x="479" y="250.5352">BaföG</text><line style="stroke: #A80036; stroke-width: 1.5;" x1="451" x2="515" y1="262" y2="262"/><line style="stroke: #A80036; stroke-width: 1.5;" x1="451" x2="515" y1="270" y2="270"/><!--class Student--><rect fill="#FEFECE" filter="url(#f35nqxatqsh68)" height="48" id="Student" style="stroke: #A80036; stroke-width: 1.5;" width="75" x="448.5" y="43"/><ellipse cx="463.5" cy="59" fill="#ADD1B2" rx="11" ry="11" style="stroke: #A80036; stroke-width: 1.0;"/><path d="M466.4731,64.6431 Q465.8921,64.9419 465.2529,65.0913 Q464.6138,65.2407 463.9082,65.2407 Q461.4014,65.2407 460.0815,63.5889 Q458.7617,61.937 458.7617,58.8159 Q458.7617,55.6865 460.0815,54.0347 Q461.4014,52.3828 463.9082,52.3828 Q464.6138,52.3828 465.2612,52.5322 Q465.9087,52.6816 466.4731,52.9805 L466.4731,55.7031 Q465.8423,55.1221 465.2488,54.8523 Q464.6553,54.5825 464.0244,54.5825 Q462.6797,54.5825 461.9949,55.6492 Q461.3101,56.7158 461.3101,58.8159 Q461.3101,60.9077 461.9949,61.9744 Q462.6797,63.041 464.0244,63.041 Q464.6553,63.041 465.2488,62.7712 Q465.8423,62.5015 466.4731,61.9204 Z "/><text fill="#000000" font-family="sans-serif" font-size="12" lengthAdjust="spacingAndGlyphs" textLength="43" x="477.5" y="63.5352">Student</text><line style="stroke: #A80036; stroke-width: 1.5;" x1="449.5" x2="522.5" y1="75" y2="75"/><line style="stroke: #A80036; stroke-width: 1.5;" x1="449.5" x2="522.5" y1="83" y2="83"/><!--class Weisswurstfrühstück--><rect fill="#FEFECE" filter="url(#f35nqxatqsh68)" height="48" id="Weisswurstfrühstück" style="stroke: #A80036; stroke-width: 1.5;" width="148" x="646" y="43"/><ellipse cx="661" cy="59" fill="#ADD1B2" rx="11" ry="11" style="stroke: #A80036; stroke-width: 1.0;"/><path d="M663.9731,64.6431 Q663.3921,64.9419 662.7529,65.0913 Q662.1138,65.2407 661.4082,65.2407 Q658.9014,65.2407 657.5815,63.5889 Q656.2617,61.937 656.2617,58.8159 Q656.2617,55.6865 657.5815,54.0347 Q658.9014,52.3828 661.4082,52.3828 Q662.1138,52.3828 662.7612,52.5322 Q663.4087,52.6816 663.9731,52.9805 L663.9731,55.7031 Q663.3423,55.1221 662.7488,54.8523 Q662.1553,54.5825 661.5244,54.5825 Q660.1797,54.5825 659.4949,55.6492 Q658.8101,56.7158 658.8101,58.8159 Q658.8101,60.9077 659.4949,61.9744 Q660.1797,63.041 661.5244,63.041 Q662.1553,63.041 662.7488,62.7712 Q663.3423,62.5015 663.9731,61.9204 Z "/><text fill="#000000" font-family="sans-serif" font-size="12" lengthAdjust="spacingAndGlyphs" textLength="116" x="675" y="63.5352">Weisswurstfrühstück</text><line style="stroke: #A80036; stroke-width: 1.5;" x1="647" x2="793" y1="75" y2="75"/><line style="stroke: #A80036; stroke-width: 1.5;" x1="647" x2="793" y1="83" y2="83"/><!--class Weisswurst--><rect fill="#FEFECE" filter="url(#f35nqxatqsh68)" height="48" id="Weisswurst" style="stroke: #A80036; stroke-width: 1.5;" width="95" x="619.5" y="230"/><ellipse cx="634.5" cy="246" fill="#ADD1B2" rx="11" ry="11" style="stroke: #A80036; stroke-width: 1.0;"/><path d="M637.4731,251.6431 Q636.8921,251.9419 636.2529,252.0913 Q635.6138,252.2407 634.9082,252.2407 Q632.4014,252.2407 631.0815,250.5889 Q629.7617,248.937 629.7617,245.8159 Q629.7617,242.6865 631.0815,241.0347 Q632.4014,239.3828 634.9082,239.3828 Q635.6138,239.3828 636.2612,239.5322 Q636.9087,239.6816 637.4731,239.9805 L637.4731,242.7031 Q636.8423,242.1221 636.2488,241.8523 Q635.6553,241.5825 635.0244,241.5825 Q633.6797,241.5825 632.9949,242.6492 Q632.3101,243.7158 632.3101,245.8159 Q632.3101,247.9077 632.9949,248.9744 Q633.6797,250.041 635.0244,250.041 Q635.6553,250.041 636.2488,249.7712 Q636.8423,249.5015 637.4731,248.9204 Z "/><text fill="#000000" font-family="sans-serif" font-size="12" lengthAdjust="spacingAndGlyphs" textLength="63" x="648.5" y="250.5352">Weisswurst</text><line style="stroke: #A80036; stroke-width: 1.5;" x1="620.5" x2="713.5" y1="262" y2="262"/><line style="stroke: #A80036; stroke-width: 1.5;" x1="620.5" x2="713.5" y1="270" y2="270"/><!--class Weissbier--><rect fill="#FEFECE" filter="url(#f35nqxatqsh68)" height="48" id="Weissbier" style="stroke: #A80036; stroke-width: 1.5;" width="87" x="749.5" y="230"/><ellipse cx="764.5" cy="246" fill="#ADD1B2" rx="11" ry="11" style="stroke: #A80036; stroke-width: 1.0;"/><path d="M767.4731,251.6431 Q766.8921,251.9419 766.2529,252.0913 Q765.6138,252.2407 764.9082,252.2407 Q762.4014,252.2407 761.0815,250.5889 Q759.7617,248.937 759.7617,245.8159 Q759.7617,242.6865 761.0815,241.0347 Q762.4014,239.3828 764.9082,239.3828 Q765.6138,239.3828 766.2612,239.5322 Q766.9087,239.6816 767.4731,239.9805 L767.4731,242.7031 Q766.8423,242.1221 766.2488,241.8523 Q765.6553,241.5825 765.0244,241.5825 Q763.6797,241.5825 762.9949,242.6492 Q762.3101,243.7158 762.3101,245.8159 Q762.3101,247.9077 762.9949,248.9744 Q763.6797,250.041 765.0244,250.041 Q765.6553,250.041 766.2488,249.7712 Q766.8423,249.5015 767.4731,248.9204 Z "/><text fill="#000000" font-family="sans-serif" font-size="12" lengthAdjust="spacingAndGlyphs" textLength="55" x="778.5" y="250.5352">Weissbier</text><line style="stroke: #A80036; stroke-width: 1.5;" x1="750.5" x2="835.5" y1="262" y2="262"/><line style="stroke: #A80036; stroke-width: 1.5;" x1="750.5" x2="835.5" y1="270" y2="270"/><!--class Pond--><rect fill="#FEFECE" filter="url(#f35nqxatqsh68)" height="48" id="Pond" style="stroke: #A80036; stroke-width: 1.5;" width="61" x="871.5" y="43"/><ellipse cx="886.5" cy="59" fill="#ADD1B2" rx="11" ry="11" style="stroke: #A80036; stroke-width: 1.0;"/><path d="M889.4731,64.6431 Q888.8921,64.9419 888.2529,65.0913 Q887.6138,65.2407 886.9082,65.2407 Q884.4014,65.2407 883.0815,63.5889 Q881.7617,61.937 881.7617,58.8159 Q881.7617,55.6865 883.0815,54.0347 Q884.4014,52.3828 886.9082,52.3828 Q887.6138,52.3828 888.2612,52.5322 Q888.9087,52.6816 889.4731,52.9805 L889.4731,55.7031 Q888.8423,55.1221 888.2488,54.8523 Q887.6553,54.5825 887.0244,54.5825 Q885.6797,54.5825 884.9949,55.6492 Q884.3101,56.7158 884.3101,58.8159 Q884.3101,60.9077 884.9949,61.9744 Q885.6797,63.041 887.0244,63.041 Q887.6553,63.041 888.2488,62.7712 Q888.8423,62.5015 889.4731,61.9204 Z "/><text fill="#000000" font-family="sans-serif" font-size="12" lengthAdjust="spacingAndGlyphs" textLength="29" x="900.5" y="63.5352">Pond</text><line style="stroke: #A80036; stroke-width: 1.5;" x1="872.5" x2="931.5" y1="75" y2="75"/><line style="stroke: #A80036; stroke-width: 1.5;" x1="872.5" x2="931.5" y1="83" y2="83"/><!--class Duck--><rect fill="#FEFECE" filter="url(#f35nqxatqsh68)" height="48" id="Duck" style="stroke: #A80036; stroke-width: 1.5;" width="61" x="871.5" y="230"/><ellipse cx="886.5" cy="246" fill="#ADD1B2" rx="11" ry="11" style="stroke: #A80036; stroke-width: 1.0;"/><path d="M889.4731,251.6431 Q888.8921,251.9419 888.2529,252.0913 Q887.6138,252.2407 886.9082,252.2407 Q884.4014,252.2407 883.0815,250.5889 Q881.7617,248.937 881.7617,245.8159 Q881.7617,242.6865 883.0815,241.0347 Q884.4014,239.3828 886.9082,239.3828 Q887.6138,239.3828 888.2612,239.5322 Q888.9087,239.6816 889.4731,239.9805 L889.4731,242.7031 Q888.8423,242.1221 888.2488,241.8523 Q887.6553,241.5825 887.0244,241.5825 Q885.6797,241.5825 884.9949,242.6492 Q884.3101,243.7158 884.3101,245.8159 Q884.3101,247.9077 884.9949,248.9744 Q885.6797,250.041 887.0244,250.041 Q887.6553,250.041 888.2488,249.7712 Q888.8423,249.5015 889.4731,248.9204 Z "/><text fill="#000000" font-family="sans-serif" font-size="12" lengthAdjust="spacingAndGlyphs" textLength="29" x="900.5" y="250.5352">Duck</text><line style="stroke: #A80036; stroke-width: 1.5;" x1="872.5" x2="931.5" y1="262" y2="262"/><line style="stroke: #A80036; stroke-width: 1.5;" x1="872.5" x2="931.5" y1="270" y2="270"/><!--link Pretzel to Beer--><path d="M57.8713,91.0642 C57.6888,125.1934 57.3551,187.5998 57.1579,224.482 " fill="none" id="Pretzel-Beer" style="stroke: #A80036; stroke-width: 1.0;"/><polygon fill="#A80036" points="57.1298,229.732,61.1781,220.7536,57.1567,224.7321,53.1782,220.7106,57.1298,229.732" style="stroke: #A80036; stroke-width: 1.0;"/><text fill="#000000" font-family="sans-serif" font-size="13" lengthAdjust="spacingAndGlyphs" textLength="110" x="58" y="165.5684">usually goes with</text><!--link Parent to Child--><path d="M347.4649,110.4086 C336.7492,147.5165 321.7206,199.5602 313.0079,229.732 " fill="none" id="Parent-Child" style="stroke: #A80036; stroke-width: 1.0;"/><polygon fill="none" points="340.777,108.337,353.051,91.0642,354.2274,112.2211,340.777,108.337" style="stroke: #A80036; stroke-width: 1.0;"/><!--link Princess to Child--><path d="M263.7672,110.4086 C274.6813,147.5165 289.9883,199.5602 298.8624,229.732 " fill="none" id="Princess-Child" style="stroke: #A80036; stroke-width: 1.0; stroke-dasharray: 7.0,7.0;"/><polygon fill="none" points="257.0055,112.2267,258.0777,91.0642,270.4366,108.2763,257.0055,112.2267" style="stroke: #A80036; stroke-width: 1.0;"/><!--link Student to BaföG--><path d="M485.6139,91.0642 C485.0664,125.1934 484.0652,187.5998 483.4736,224.482 " fill="none" id="Student-BaföG" style="stroke: #A80036; stroke-width: 1.0; stroke-dasharray: 7.0,7.0;"/><polygon fill="#A80036" points="483.3893,229.732,487.5333,220.7974,483.4696,224.7326,479.5343,220.6689,483.3893,229.732" style="stroke: #A80036; stroke-width: 1.0;"/><text fill="#000000" font-family="sans-serif" font-size="13" lengthAdjust="spacingAndGlyphs" textLength="110" x="485" y="165.5684">often depends on</text><!--link Weisswurstfrühstück to Weisswurst--><path d="M709.5561,103.8494 C698.9862,141.1429 682.9465,197.7359 673.8781,229.732 " fill="none" id="Weisswurstfrühstück-Weisswurst" style="stroke: #A80036; stroke-width: 1.0;"/><polygon fill="#A80036" points="713.1797,91.0642,707.6952,95.7461,709.9075,102.6094,715.392,97.9276,713.1797,91.0642" style="stroke: #A80036; stroke-width: 1.0;"/><!--link Weisswurstfrühstück to Weissbier--><path d="M734.1939,103.3598 C748.7495,140.646 770.9812,197.5956 783.5264,229.732 " fill="none" id="Weisswurstfrühstück-Weissbier" style="stroke: #A80036; stroke-width: 1.0;"/><polygon fill="#A80036" points="729.394,91.0642,727.8498,98.108,733.7579,102.2426,735.3021,95.1988,729.394,91.0642" style="stroke: #A80036; stroke-width: 1.0;"/><!--link Pond to Duck--><path d="M902,104.3412 C902,141.6389 902,197.8762 902,229.732 " fill="none" id="Pond-Duck" style="stroke: #A80036; stroke-width: 1.0;"/><polygon fill="#FFFFFF" points="902,91.0642,898,97.0642,902,103.0642,906,97.0642,902,91.0642" style="stroke: #A80036; stroke-width: 1.0;"/><!--
@startuml


skinparam packageStyle rectangle

package association {
	class Pretzel
	class Beer
	Pretzel - -> Beer : usually goes with
}

package "inheritance and implementation" {
	class Parent
	interface Princess
	class Child extends Parent implements Princess
}

package dependency {
	class BaföG
	class Student
	Student ..> BaföG : often depends on
}

package composition {
	class Weisswurstfrühstück
	class Weisswurst
	class Weissbier
	Weisswurstfrühstück *- - Weisswurst
	Weisswurstfrühstück *- - Weissbier
}

package aggregation {
	class Pond
	class Duck
	Pond o- - Duck
}


@enduml

PlantUML version 1.2017.16(Sun Sep 03 12:53:37 CEST 2017)
(GPL source distribution)
Java Runtime: Java(TM) SE Runtime Environment
JVM: Java HotSpot(TM) 64-Bit Server VM
Java Version: 1.8.0_144-b01
Operating System: Mac OS X
OS Version: 10.13.1
Default Encoding: UTF-8
Language: en
Country: US
--></g></svg>