<?xml version="1.0" encoding="UTF-8" standalone="no"?><svg xmlns="http://www.w3.org/2000/svg" xmlns:xlink="http://www.w3.org/1999/xlink" contentScriptType="application/ecmascript" contentStyleType="text/css" height="360px" preserveAspectRatio="none" style="width:462px;height:360px;" version="1.1" viewBox="0 0 462 360" width="462px" zoomAndPan="magnify"><defs><filter height="300%" id="f1re8l1l2o3iq0" width="300%" x="-1" y="-1"><feGaussianBlur result="blurOut" stdDeviation="2.0"/><feColorMatrix in="blurOut" result="blurOut2" type="matrix" values="0 0 0 0 0 0 0 0 0 0 0 0 0 0 0 0 0 0 .4 0"/><feOffset dx="4.0" dy="4.0" in="blurOut2" result="blurOut3"/><feBlend in="SourceGraphic" in2="blurOut3" mode="normal"/></filter></defs><g><!--class Payload--><rect fill="#FEFECE" filter="url(#f1re8l1l2o3iq0)" height="60.9551" id="Payload" style="stroke: #A80036; stroke-width: 1.5;" width="160" x="193.5" y="8"/><ellipse cx="246.75" cy="24" fill="#A9DCDF" rx="11" ry="11" style="stroke: #A80036; stroke-width: 1.0;"/><path d="M246.8633,19.3481 L245.7095,24.4199 L248.0254,24.4199 Z M245.3691,17.1069 L248.3657,17.1069 L251.7109,29.5 L249.2622,29.5 L248.4985,26.437 L245.2197,26.437 L244.4727,29.5 L242.0239,29.5 Z "/><text fill="#000000" font-family="sans-serif" font-size="12" font-style="italic" lengthAdjust="spacingAndGlyphs" textLength="45" x="267.25" y="28.5352">Payload</text><line style="stroke: #A80036; stroke-width: 1.5;" x1="194.5" x2="352.5" y1="40" y2="40"/><line style="stroke: #A80036; stroke-width: 1.5;" x1="194.5" x2="352.5" y1="48" y2="48"/><ellipse cx="204.5" cy="59.9775" fill="#84BE84" rx="3" ry="3" style="stroke: #038048; stroke-width: 1.0;"/><text fill="#000000" font-family="sans-serif" font-size="11" lengthAdjust="spacingAndGlyphs" textLength="134" x="213.5" y="62.6348">abstract getText(): String</text><!--class TextPayload--><rect fill="#FEFECE" filter="url(#f1re8l1l2o3iq0)" height="86.8652" id="TextPayload" style="stroke: #A80036; stroke-width: 1.5;" width="141" x="6" y="129"/><ellipse cx="38.1" cy="145" fill="#ADD1B2" rx="11" ry="11" style="stroke: #A80036; stroke-width: 1.0;"/><path d="M41.0731,150.6431 Q40.4921,150.9419 39.8529,151.0913 Q39.2138,151.2407 38.5082,151.2407 Q36.0014,151.2407 34.6815,149.5889 Q33.3617,147.937 33.3617,144.8159 Q33.3617,141.6865 34.6815,140.0347 Q36.0014,138.3828 38.5082,138.3828 Q39.2138,138.3828 39.8612,138.5322 Q40.5087,138.6816 41.0731,138.9805 L41.0731,141.7031 Q40.4423,141.1221 39.8488,140.8523 Q39.2553,140.5825 38.6244,140.5825 Q37.2797,140.5825 36.5949,141.6492 Q35.9101,142.7158 35.9101,144.8159 Q35.9101,146.9077 36.5949,147.9744 Q37.2797,149.041 38.6244,149.041 Q39.2553,149.041 39.8488,148.7712 Q40.4423,148.5015 41.0731,147.9204 Z "/><text fill="#000000" font-family="sans-serif" font-size="12" lengthAdjust="spacingAndGlyphs" textLength="71" x="55.9" y="149.5352">TextPayload</text><line style="stroke: #A80036; stroke-width: 1.5;" x1="7" x2="146" y1="161" y2="161"/><rect fill="none" height="6" style="stroke: #C82930; stroke-width: 1.0;" width="6" x="14" y="169.9775"/><text fill="#000000" font-family="sans-serif" font-size="11" lengthAdjust="spacingAndGlyphs" textLength="59" x="26" y="175.6348">text: String</text><line style="stroke: #A80036; stroke-width: 1.5;" x1="7" x2="146" y1="181.9551" y2="181.9551"/><ellipse cx="17" cy="193.9326" fill="#84BE84" rx="3" ry="3" style="stroke: #038048; stroke-width: 1.0;"/><text fill="#000000" font-family="sans-serif" font-size="11" lengthAdjust="spacingAndGlyphs" textLength="115" x="26" y="196.5898">TextPayload(t: String)</text><ellipse cx="17" cy="206.8877" fill="#84BE84" rx="3" ry="3" style="stroke: #038048; stroke-width: 1.0;"/><text fill="#000000" font-family="sans-serif" font-size="11" lengthAdjust="spacingAndGlyphs" textLength="87" x="26" y="209.5449">getText(): String</text><!--class PayloadDecorator--><rect fill="#FEFECE" filter="url(#f1re8l1l2o3iq0)" height="86.8652" id="PayloadDecorator" style="stroke: #A80036; stroke-width: 1.5;" width="183" x="182" y="129"/><ellipse cx="219.05" cy="145" fill="#A9DCDF" rx="11" ry="11" style="stroke: #A80036; stroke-width: 1.0;"/><path d="M219.1633,140.3481 L218.0095,145.4199 L220.3254,145.4199 Z M217.6691,138.1069 L220.6657,138.1069 L224.0109,150.5 L221.5622,150.5 L220.7985,147.437 L217.5197,147.437 L216.7727,150.5 L214.3239,150.5 Z "/><text fill="#000000" font-family="sans-serif" font-size="12" font-style="italic" lengthAdjust="spacingAndGlyphs" textLength="102" x="237.95" y="149.5352">PayloadDecorator</text><line style="stroke: #A80036; stroke-width: 1.5;" x1="183" x2="364" y1="161" y2="161"/><rect fill="none" height="6" style="stroke: #C82930; stroke-width: 1.0;" width="6" x="190" y="169.9775"/><text fill="#000000" font-family="sans-serif" font-size="11" lengthAdjust="spacingAndGlyphs" textLength="84" x="202" y="175.6348">source: Payload</text><line style="stroke: #A80036; stroke-width: 1.5;" x1="183" x2="364" y1="181.9551" y2="181.9551"/><ellipse cx="193" cy="193.9326" fill="#84BE84" rx="3" ry="3" style="stroke: #038048; stroke-width: 1.0;"/><text fill="#000000" font-family="sans-serif" font-size="11" lengthAdjust="spacingAndGlyphs" textLength="157" x="202" y="196.5898">PayloadDecorator(p: Payload)</text><polygon fill="#FFFF44" points="193,201.8877,197,205.8877,193,209.8877,189,205.8877" style="stroke: #B38D22; stroke-width: 1.0;"/><text fill="#000000" font-family="sans-serif" font-size="11" lengthAdjust="spacingAndGlyphs" textLength="109" x="202" y="209.5449">getSource(): Payload</text><!--class EncryptedPayload--><rect fill="#FEFECE" filter="url(#f1re8l1l2o3iq0)" height="73.9102" id="EncryptedPayload" style="stroke: #A80036; stroke-width: 1.5;" width="183" x="80" y="276"/><ellipse cx="116.6" cy="292" fill="#ADD1B2" rx="11" ry="11" style="stroke: #A80036; stroke-width: 1.0;"/><path d="M119.5731,297.6431 Q118.9921,297.9419 118.3529,298.0913 Q117.7138,298.2407 117.0082,298.2407 Q114.5014,298.2407 113.1815,296.5889 Q111.8617,294.937 111.8617,291.8159 Q111.8617,288.6865 113.1815,287.0347 Q114.5014,285.3828 117.0082,285.3828 Q117.7138,285.3828 118.3612,285.5322 Q119.0087,285.6816 119.5731,285.9805 L119.5731,288.7031 Q118.9423,288.1221 118.3488,287.8523 Q117.7553,287.5825 117.1244,287.5825 Q115.7797,287.5825 115.0949,288.6492 Q114.4101,289.7158 114.4101,291.8159 Q114.4101,293.9077 115.0949,294.9744 Q115.7797,296.041 117.1244,296.041 Q117.7553,296.041 118.3488,295.7712 Q118.9423,295.5015 119.5731,294.9204 Z "/><text fill="#000000" font-family="sans-serif" font-size="12" lengthAdjust="spacingAndGlyphs" textLength="103" x="135.4" y="296.5352">EncryptedPayload</text><line style="stroke: #A80036; stroke-width: 1.5;" x1="81" x2="262" y1="308" y2="308"/><line style="stroke: #A80036; stroke-width: 1.5;" x1="81" x2="262" y1="316" y2="316"/><ellipse cx="91" cy="327.9775" fill="#84BE84" rx="3" ry="3" style="stroke: #038048; stroke-width: 1.0;"/><text fill="#000000" font-family="sans-serif" font-size="11" lengthAdjust="spacingAndGlyphs" textLength="157" x="100" y="330.6348">EncryptedPayload(p: Payload)</text><ellipse cx="91" cy="340.9326" fill="#84BE84" rx="3" ry="3" style="stroke: #038048; stroke-width: 1.0;"/><text fill="#000000" font-family="sans-serif" font-size="11" lengthAdjust="spacingAndGlyphs" textLength="87" x="100" y="343.5898">getText(): String</text><!--class GzipPayload--><rect fill="#FEFECE" filter="url(#f1re8l1l2o3iq0)" height="73.9102" id="GzipPayload" style="stroke: #A80036; stroke-width: 1.5;" width="153" x="298" y="276"/><ellipse cx="335.05" cy="292" fill="#ADD1B2" rx="11" ry="11" style="stroke: #A80036; stroke-width: 1.0;"/><path d="M338.0231,297.6431 Q337.4421,297.9419 336.8029,298.0913 Q336.1638,298.2407 335.4582,298.2407 Q332.9514,298.2407 331.6315,296.5889 Q330.3117,294.937 330.3117,291.8159 Q330.3117,288.6865 331.6315,287.0347 Q332.9514,285.3828 335.4582,285.3828 Q336.1638,285.3828 336.8112,285.5322 Q337.4587,285.6816 338.0231,285.9805 L338.0231,288.7031 Q337.3923,288.1221 336.7988,287.8523 Q336.2053,287.5825 335.5744,287.5825 Q334.2297,287.5825 333.5449,288.6492 Q332.8601,289.7158 332.8601,291.8159 Q332.8601,293.9077 333.5449,294.9744 Q334.2297,296.041 335.5744,296.041 Q336.2053,296.041 336.7988,295.7712 Q337.3923,295.5015 338.0231,294.9204 Z "/><text fill="#000000" font-family="sans-serif" font-size="12" lengthAdjust="spacingAndGlyphs" textLength="72" x="353.95" y="296.5352">GzipPayload</text><line style="stroke: #A80036; stroke-width: 1.5;" x1="299" x2="450" y1="308" y2="308"/><line style="stroke: #A80036; stroke-width: 1.5;" x1="299" x2="450" y1="316" y2="316"/><ellipse cx="309" cy="327.9775" fill="#84BE84" rx="3" ry="3" style="stroke: #038048; stroke-width: 1.0;"/><text fill="#000000" font-family="sans-serif" font-size="11" lengthAdjust="spacingAndGlyphs" textLength="127" x="318" y="330.6348">GzipPayload(p: Payload)</text><ellipse cx="309" cy="340.9326" fill="#84BE84" rx="3" ry="3" style="stroke: #038048; stroke-width: 1.0;"/><text fill="#000000" font-family="sans-serif" font-size="11" lengthAdjust="spacingAndGlyphs" textLength="87" x="318" y="343.5898">getText(): String</text><!--link Payload to TextPayload--><path d="M211.6705,80.5566 C189.023,95.9615 163.3584,113.4186 140.523,128.9514 " fill="none" id="Payload-TextPayload" style="stroke: #A80036; stroke-width: 1.0;"/><polygon fill="none" points="207.8302,74.7029,228.3042,69.2423,215.7042,86.2788,207.8302,74.7029" style="stroke: #A80036; stroke-width: 1.0;"/><!--link Payload to PayloadDecorator--><path d="M261.085,89.3532 C260.534,102.3984 260.6627,116.312 261.4712,128.9514 " fill="none" id="Payload-PayloadDecorator" style="stroke: #A80036; stroke-width: 1.0;"/><polygon fill="none" points="254.1165,88.6681,262.5805,69.2423,268.0779,89.7064,254.1165,88.6681" style="stroke: #A80036; stroke-width: 1.0;"/><!--link PayloadDecorator to Payload--><path d="M286.857,115.8069 C287.3033,99.8367 286.7049,83.0661 285.0618,69.2423 " fill="none" id="PayloadDecorator-Payload" style="stroke: #A80036; stroke-width: 1.0;"/><polygon fill="#A80036" points="286.2364,128.9514,290.515,123.1468,286.8025,116.9648,282.5239,122.7694,286.2364,128.9514" style="stroke: #A80036; stroke-width: 1.0;"/><!--link PayloadDecorator to EncryptedPayload--><path d="M229.9683,232.4628 C219.2395,247.2412 208.06,262.6404 198.3848,275.9676 " fill="none" id="PayloadDecorator-EncryptedPayload" style="stroke: #A80036; stroke-width: 1.0;"/><polygon fill="none" points="224.3713,228.2572,241.7857,216.1849,235.7006,236.482,224.3713,228.2572" style="stroke: #A80036; stroke-width: 1.0;"/><!--link PayloadDecorator to GzipPayload--><path d="M316.605,232.4628 C327.2286,247.2412 338.2984,262.6404 347.8788,275.9676 " fill="none" id="PayloadDecorator-GzipPayload" style="stroke: #A80036; stroke-width: 1.0;"/><polygon fill="none" points="310.8935,236.5103,304.9034,216.1849,322.2612,228.3385,310.8935,236.5103" style="stroke: #A80036; stroke-width: 1.0;"/><!--
@startuml

abstract class Payload {
	+abstract getText(): String
}

class TextPayload extends Payload {
	-text: String
	+TextPayload(t: String)
	+getText(): String
}

abstract class PayloadDecorator extends Payload {
	-source: Payload
	+PayloadDecorator(p: Payload)
	#getSource(): Payload
}

class EncryptedPayload extends PayloadDecorator {
	+EncryptedPayload(p: Payload)
	+getText(): String
}

class GzipPayload extends PayloadDecorator {
	+GzipPayload(p: Payload)
	+getText(): String
}

PayloadDecorator *- - Payload

@enduml

PlantUML version 1.2017.16(Sun Sep 03 12:53:37 CEST 2017)
(GPL source distribution)
Java Runtime: Java(TM) SE Runtime Environment
JVM: Java HotSpot(TM) 64-Bit Server VM
Java Version: 1.8.0_144-b01
Operating System: Mac OS X
OS Version: 10.12.6
Default Encoding: UTF-8
Language: en
Country: US
--></g></svg>