<?xml version="1.0" encoding="UTF-8" standalone="no"?><svg xmlns="http://www.w3.org/2000/svg" xmlns:xlink="http://www.w3.org/1999/xlink" contentScriptType="application/ecmascript" contentStyleType="text/css" height="321px" preserveAspectRatio="none" style="width:312px;height:321px;" version="1.1" viewBox="0 0 312 321" width="312px" zoomAndPan="magnify"><defs><filter height="300%" id="fwjh3ec6pjbig" width="300%" x="-1" y="-1"><feGaussianBlur result="blurOut" stdDeviation="2.0"/><feColorMatrix in="blurOut" result="blurOut2" type="matrix" values="0 0 0 0 0 0 0 0 0 0 0 0 0 0 0 0 0 0 .4 0"/><feOffset dx="4.0" dy="4.0" in="blurOut2" result="blurOut3"/><feBlend in="SourceGraphic" in2="blurOut3" mode="normal"/></filter></defs><g><!--class Top--><rect fill="#FEFECE" filter="url(#fwjh3ec6pjbig)" height="60.9551" id="Top" style="stroke: #A80036; stroke-width: 1.5;" width="130" x="88" y="8"/><ellipse cx="137.25" cy="24" fill="#B4A7E5" rx="11" ry="11" style="stroke: #A80036; stroke-width: 1.0;"/><path d="M133.1777,19.7651 L133.1777,17.6069 L140.5571,17.6069 L140.5571,19.7651 L138.0918,19.7651 L138.0918,27.8418 L140.5571,27.8418 L140.5571,30 L133.1777,30 L133.1777,27.8418 L135.6431,27.8418 L135.6431,19.7651 Z "/><text fill="#000000" font-family="sans-serif" font-size="12" font-style="italic" lengthAdjust="spacingAndGlyphs" textLength="23" x="157.75" y="28.5352">Top</text><line style="stroke: #A80036; stroke-width: 1.5;" x1="89" x2="217" y1="40" y2="40"/><line style="stroke: #A80036; stroke-width: 1.5;" x1="89" x2="217" y1="48" y2="48"/><text fill="#000000" font-family="sans-serif" font-size="11" lengthAdjust="spacingAndGlyphs" textLength="118" x="94" y="62.6348">default void method();</text><!--class Left--><rect fill="#FEFECE" filter="url(#fwjh3ec6pjbig)" height="60.9551" id="Left" style="stroke: #A80036; stroke-width: 1.5;" width="130" x="6" y="129"/><ellipse cx="56.25" cy="145" fill="#B4A7E5" rx="11" ry="11" style="stroke: #A80036; stroke-width: 1.0;"/><path d="M52.1777,140.7651 L52.1777,138.6069 L59.5571,138.6069 L59.5571,140.7651 L57.0918,140.7651 L57.0918,148.8418 L59.5571,148.8418 L59.5571,151 L52.1777,151 L52.1777,148.8418 L54.6431,148.8418 L54.6431,140.7651 Z "/><text fill="#000000" font-family="sans-serif" font-size="12" font-style="italic" lengthAdjust="spacingAndGlyphs" textLength="21" x="76.75" y="149.5352">Left</text><line style="stroke: #A80036; stroke-width: 1.5;" x1="7" x2="135" y1="161" y2="161"/><line style="stroke: #A80036; stroke-width: 1.5;" x1="7" x2="135" y1="169" y2="169"/><text fill="#000000" font-family="sans-serif" font-size="11" lengthAdjust="spacingAndGlyphs" textLength="118" x="12" y="183.6348">default void method();</text><!--class Right--><rect fill="#FEFECE" filter="url(#fwjh3ec6pjbig)" height="60.9551" id="Right" style="stroke: #A80036; stroke-width: 1.5;" width="130" x="171" y="129"/><ellipse cx="217.25" cy="145" fill="#B4A7E5" rx="11" ry="11" style="stroke: #A80036; stroke-width: 1.0;"/><path d="M213.1777,140.7651 L213.1777,138.6069 L220.5571,138.6069 L220.5571,140.7651 L218.0918,140.7651 L218.0918,148.8418 L220.5571,148.8418 L220.5571,151 L213.1777,151 L213.1777,148.8418 L215.6431,148.8418 L215.6431,140.7651 Z "/><text fill="#000000" font-family="sans-serif" font-size="12" font-style="italic" lengthAdjust="spacingAndGlyphs" textLength="29" x="237.75" y="149.5352">Right</text><line style="stroke: #A80036; stroke-width: 1.5;" x1="172" x2="300" y1="161" y2="161"/><line style="stroke: #A80036; stroke-width: 1.5;" x1="172" x2="300" y1="169" y2="169"/><text fill="#000000" font-family="sans-serif" font-size="11" lengthAdjust="spacingAndGlyphs" textLength="118" x="177" y="183.6348">default void method();</text><!--class Bottom--><rect fill="#FEFECE" filter="url(#fwjh3ec6pjbig)" height="60.9551" id="Bottom" style="stroke: #A80036; stroke-width: 1.5;" width="104" x="101" y="250"/><ellipse cx="130.4" cy="266" fill="#ADD1B2" rx="11" ry="11" style="stroke: #A80036; stroke-width: 1.0;"/><path d="M133.3731,271.6431 Q132.7921,271.9419 132.1529,272.0913 Q131.5138,272.2407 130.8082,272.2407 Q128.3014,272.2407 126.9815,270.5889 Q125.6617,268.937 125.6617,265.8159 Q125.6617,262.6865 126.9815,261.0347 Q128.3014,259.3828 130.8082,259.3828 Q131.5138,259.3828 132.1612,259.5322 Q132.8087,259.6816 133.3731,259.9805 L133.3731,262.7031 Q132.7423,262.1221 132.1488,261.8523 Q131.5553,261.5825 130.9244,261.5825 Q129.5797,261.5825 128.8949,262.6492 Q128.2101,263.7158 128.2101,265.8159 Q128.2101,267.9077 128.8949,268.9744 Q129.5797,270.041 130.9244,270.041 Q131.5553,270.041 132.1488,269.7712 Q132.7423,269.5015 133.3731,268.9204 Z "/><text fill="#000000" font-family="sans-serif" font-size="12" lengthAdjust="spacingAndGlyphs" textLength="40" x="147.6" y="270.5352">Bottom</text><line style="stroke: #A80036; stroke-width: 1.5;" x1="102" x2="204" y1="282" y2="282"/><line style="stroke: #A80036; stroke-width: 1.5;" x1="102" x2="204" y1="290" y2="290"/><ellipse cx="112" cy="301.9775" fill="#84BE84" rx="3" ry="3" style="stroke: #038048; stroke-width: 1.0;"/><text fill="#000000" font-family="sans-serif" font-size="11" lengthAdjust="spacingAndGlyphs" textLength="78" x="121" y="304.6348">void method();</text><!--link Top to Left--><path d="M120.8541,85.9349 C111.0432,100.4119 100.522,115.9371 91.6854,128.9764 " fill="none" id="Top-Left" style="stroke: #A80036; stroke-width: 1.0;"/><polygon fill="none" points="115.2932,81.6627,132.3079,69.0334,126.8826,89.5168,115.2932,81.6627" style="stroke: #A80036; stroke-width: 1.0;"/><!--link Top to Right--><path d="M185.538,85.9349 C195.4685,100.4119 206.118,115.9371 215.0623,128.9764 " fill="none" id="Top-Right" style="stroke: #A80036; stroke-width: 1.0;"/><polygon fill="none" points="179.4852,89.4858,173.9444,69.0334,191.0301,81.5665,179.4852,89.4858" style="stroke: #A80036; stroke-width: 1.0;"/><!--link Left to Bottom--><path d="M103.1459,206.9349 C112.9568,221.4119 123.478,236.9371 132.3146,249.9764 " fill="none" id="Left-Bottom" style="stroke: #A80036; stroke-width: 1.0; stroke-dasharray: 7.0,7.0;"/><polygon fill="none" points="97.1174,210.5168,91.6921,190.0334,108.7068,202.6627,97.1174,210.5168" style="stroke: #A80036; stroke-width: 1.0;"/><!--link Right to Bottom--><path d="M203.462,206.9349 C193.5315,221.4119 182.882,236.9371 173.9377,249.9764 " fill="none" id="Right-Bottom" style="stroke: #A80036; stroke-width: 1.0; stroke-dasharray: 7.0,7.0;"/><polygon fill="none" points="197.9699,202.5665,215.0556,190.0334,209.5148,210.4858,197.9699,202.5665" style="stroke: #A80036; stroke-width: 1.0;"/><!--
@startuml
interface Top {
	default void method();
}

interface Left extends Top {
	default void method();
}

interface Right extends Top {
	default void method();
}

class Bottom implements Left, Right {
	+void method();
}
@enduml

PlantUML version 1.2017.16(Sun Sep 03 12:53:37 CEST 2017)
(GPL source distribution)
Java Runtime: Java(TM) SE Runtime Environment
JVM: Java HotSpot(TM) 64-Bit Server VM
Java Version: 1.8.0_144-b01
Operating System: Mac OS X
OS Version: 10.12.6
Default Encoding: UTF-8
Language: en
Country: US
--></g></svg>