<?xml version="1.0" encoding="UTF-8" standalone="no"?><svg xmlns="http://www.w3.org/2000/svg" xmlns:xlink="http://www.w3.org/1999/xlink" contentScriptType="application/ecmascript" contentStyleType="text/css" height="368px" preserveAspectRatio="none" style="width:788px;height:368px;" version="1.1" viewBox="0 0 788 368" width="788px" zoomAndPan="magnify"><defs><filter height="300%" id="f1805re9apgpeg" width="300%" x="-1" y="-1"><feGaussianBlur result="blurOut" stdDeviation="2.0"/><feColorMatrix in="blurOut" result="blurOut2" type="matrix" values="0 0 0 0 0 0 0 0 0 0 0 0 0 0 0 0 0 0 .4 0"/><feOffset dx="4.0" dy="4.0" in="blurOut2" result="blurOut3"/><feBlend in="SourceGraphic" in2="blurOut3" mode="normal"/></filter></defs><g><!--class AbstractFactory--><rect fill="#FEFECE" filter="url(#f1805re9apgpeg)" height="73.9102" id="AbstractFactory" style="stroke: #A80036; stroke-width: 1.5;" width="221" x="123" y="171"/><ellipse cx="184.75" cy="187" fill="#B4A7E5" rx="11" ry="11" style="stroke: #A80036; stroke-width: 1.0;"/><path d="M180.6777,182.7651 L180.6777,180.6069 L188.0571,180.6069 L188.0571,182.7651 L185.5918,182.7651 L185.5918,190.8418 L188.0571,190.8418 L188.0571,193 L180.6777,193 L180.6777,190.8418 L183.1431,190.8418 L183.1431,182.7651 Z "/><text fill="#000000" font-family="sans-serif" font-size="12" font-style="italic" lengthAdjust="spacingAndGlyphs" textLength="89" x="205.25" y="191.5352">AbstractFactory</text><line style="stroke: #A80036; stroke-width: 1.5;" x1="124" x2="343" y1="203" y2="203"/><line style="stroke: #A80036; stroke-width: 1.5;" x1="124" x2="343" y1="211" y2="211"/><ellipse cx="134" cy="222.9775" fill="#84BE84" rx="3" ry="3" style="stroke: #038048; stroke-width: 1.0;"/><text fill="#000000" font-family="sans-serif" font-size="11" lengthAdjust="spacingAndGlyphs" textLength="195" x="143" y="225.6348">CreateProductA(): AbstractProductA</text><ellipse cx="134" cy="235.9326" fill="#84BE84" rx="3" ry="3" style="stroke: #038048; stroke-width: 1.0;"/><text fill="#000000" font-family="sans-serif" font-size="11" lengthAdjust="spacingAndGlyphs" textLength="191" x="143" y="238.5898">CreateProductB(): AbstractProductB</text><!--class ConcreteFactory1--><rect fill="#FEFECE" filter="url(#f1805re9apgpeg)" height="73.9102" id="ConcreteFactory1" style="stroke: #A80036; stroke-width: 1.5;" width="221" x="404" y="91"/><ellipse cx="460.25" cy="107" fill="#ADD1B2" rx="11" ry="11" style="stroke: #A80036; stroke-width: 1.0;"/><path d="M463.2231,112.6431 Q462.6421,112.9419 462.0029,113.0913 Q461.3638,113.2407 460.6582,113.2407 Q458.1514,113.2407 456.8315,111.5889 Q455.5117,109.937 455.5117,106.8159 Q455.5117,103.6865 456.8315,102.0347 Q458.1514,100.3828 460.6582,100.3828 Q461.3638,100.3828 462.0112,100.5322 Q462.6587,100.6816 463.2231,100.9805 L463.2231,103.7031 Q462.5923,103.1221 461.9988,102.8523 Q461.4053,102.5825 460.7744,102.5825 Q459.4297,102.5825 458.7449,103.6492 Q458.0601,104.7158 458.0601,106.8159 Q458.0601,108.9077 458.7449,109.9744 Q459.4297,111.041 460.7744,111.041 Q461.4053,111.041 461.9988,110.7712 Q462.5923,110.5015 463.2231,109.9204 Z "/><text fill="#000000" font-family="sans-serif" font-size="12" lengthAdjust="spacingAndGlyphs" textLength="100" x="480.75" y="111.5352">ConcreteFactory1</text><line style="stroke: #A80036; stroke-width: 1.5;" x1="405" x2="624" y1="123" y2="123"/><line style="stroke: #A80036; stroke-width: 1.5;" x1="405" x2="624" y1="131" y2="131"/><ellipse cx="415" cy="142.9775" fill="#84BE84" rx="3" ry="3" style="stroke: #038048; stroke-width: 1.0;"/><text fill="#000000" font-family="sans-serif" font-size="11" lengthAdjust="spacingAndGlyphs" textLength="195" x="424" y="145.6348">CreateProductA(): AbstractProductA</text><ellipse cx="415" cy="155.9326" fill="#84BE84" rx="3" ry="3" style="stroke: #038048; stroke-width: 1.0;"/><text fill="#000000" font-family="sans-serif" font-size="11" lengthAdjust="spacingAndGlyphs" textLength="191" x="424" y="158.5898">CreateProductB(): AbstractProductB</text><!--class ConcreteFactory2--><rect fill="#FEFECE" filter="url(#f1805re9apgpeg)" height="73.9102" id="ConcreteFactory2" style="stroke: #A80036; stroke-width: 1.5;" width="221" x="404" y="200"/><ellipse cx="460.25" cy="216" fill="#ADD1B2" rx="11" ry="11" style="stroke: #A80036; stroke-width: 1.0;"/><path d="M463.2231,221.6431 Q462.6421,221.9419 462.0029,222.0913 Q461.3638,222.2407 460.6582,222.2407 Q458.1514,222.2407 456.8315,220.5889 Q455.5117,218.937 455.5117,215.8159 Q455.5117,212.6865 456.8315,211.0347 Q458.1514,209.3828 460.6582,209.3828 Q461.3638,209.3828 462.0112,209.5322 Q462.6587,209.6816 463.2231,209.9805 L463.2231,212.7031 Q462.5923,212.1221 461.9988,211.8523 Q461.4053,211.5825 460.7744,211.5825 Q459.4297,211.5825 458.7449,212.6492 Q458.0601,213.7158 458.0601,215.8159 Q458.0601,217.9077 458.7449,218.9744 Q459.4297,220.041 460.7744,220.041 Q461.4053,220.041 461.9988,219.7712 Q462.5923,219.5015 463.2231,218.9204 Z "/><text fill="#000000" font-family="sans-serif" font-size="12" lengthAdjust="spacingAndGlyphs" textLength="100" x="480.75" y="220.5352">ConcreteFactory2</text><line style="stroke: #A80036; stroke-width: 1.5;" x1="405" x2="624" y1="232" y2="232"/><line style="stroke: #A80036; stroke-width: 1.5;" x1="405" x2="624" y1="240" y2="240"/><ellipse cx="415" cy="251.9775" fill="#84BE84" rx="3" ry="3" style="stroke: #038048; stroke-width: 1.0;"/><text fill="#000000" font-family="sans-serif" font-size="11" lengthAdjust="spacingAndGlyphs" textLength="195" x="424" y="254.6348">CreateProductA(): AbstractProductA</text><ellipse cx="415" cy="264.9326" fill="#84BE84" rx="3" ry="3" style="stroke: #038048; stroke-width: 1.0;"/><text fill="#000000" font-family="sans-serif" font-size="11" lengthAdjust="spacingAndGlyphs" textLength="191" x="424" y="267.5898">CreateProductB(): AbstractProductB</text><!--class AbstractProductA--><rect fill="#FEFECE" filter="url(#f1805re9apgpeg)" height="48" id="AbstractProductA" style="stroke: #A80036; stroke-width: 1.5;" width="132" x="448.5" y="8"/><ellipse cx="463.5" cy="24" fill="#A9DCDF" rx="11" ry="11" style="stroke: #A80036; stroke-width: 1.0;"/><path d="M463.6133,19.3481 L462.4595,24.4199 L464.7754,24.4199 Z M462.1191,17.1069 L465.1157,17.1069 L468.4609,29.5 L466.0122,29.5 L465.2485,26.437 L461.9697,26.437 L461.2227,29.5 L458.7739,29.5 Z "/><text fill="#000000" font-family="sans-serif" font-size="12" font-style="italic" lengthAdjust="spacingAndGlyphs" textLength="100" x="477.5" y="28.5352">AbstractProductA</text><line style="stroke: #A80036; stroke-width: 1.5;" x1="449.5" x2="579.5" y1="40" y2="40"/><line style="stroke: #A80036; stroke-width: 1.5;" x1="449.5" x2="579.5" y1="48" y2="48"/><!--class ProductA1--><rect fill="#FEFECE" filter="url(#f1805re9apgpeg)" height="48" id="ProductA1" style="stroke: #A80036; stroke-width: 1.5;" width="92" x="685" y="12"/><ellipse cx="700" cy="28" fill="#ADD1B2" rx="11" ry="11" style="stroke: #A80036; stroke-width: 1.0;"/><path d="M702.9731,33.6431 Q702.3921,33.9419 701.7529,34.0913 Q701.1138,34.2407 700.4082,34.2407 Q697.9014,34.2407 696.5815,32.5889 Q695.2617,30.937 695.2617,27.8159 Q695.2617,24.6865 696.5815,23.0347 Q697.9014,21.3828 700.4082,21.3828 Q701.1138,21.3828 701.7612,21.5322 Q702.4087,21.6816 702.9731,21.9805 L702.9731,24.7031 Q702.3423,24.1221 701.7488,23.8523 Q701.1553,23.5825 700.5244,23.5825 Q699.1797,23.5825 698.4949,24.6492 Q697.8101,25.7158 697.8101,27.8159 Q697.8101,29.9077 698.4949,30.9744 Q699.1797,32.041 700.5244,32.041 Q701.1553,32.041 701.7488,31.7712 Q702.3423,31.5015 702.9731,30.9204 Z "/><text fill="#000000" font-family="sans-serif" font-size="12" lengthAdjust="spacingAndGlyphs" textLength="60" x="714" y="32.5352">ProductA1</text><line style="stroke: #A80036; stroke-width: 1.5;" x1="686" x2="776" y1="44" y2="44"/><line style="stroke: #A80036; stroke-width: 1.5;" x1="686" x2="776" y1="52" y2="52"/><!--class ProductA2--><rect fill="#FEFECE" filter="url(#f1805re9apgpeg)" height="48" id="ProductA2" style="stroke: #A80036; stroke-width: 1.5;" width="92" x="685" y="98"/><ellipse cx="700" cy="114" fill="#ADD1B2" rx="11" ry="11" style="stroke: #A80036; stroke-width: 1.0;"/><path d="M702.9731,119.6431 Q702.3921,119.9419 701.7529,120.0913 Q701.1138,120.2407 700.4082,120.2407 Q697.9014,120.2407 696.5815,118.5889 Q695.2617,116.937 695.2617,113.8159 Q695.2617,110.6865 696.5815,109.0347 Q697.9014,107.3828 700.4082,107.3828 Q701.1138,107.3828 701.7612,107.5322 Q702.4087,107.6816 702.9731,107.9805 L702.9731,110.7031 Q702.3423,110.1221 701.7488,109.8523 Q701.1553,109.5825 700.5244,109.5825 Q699.1797,109.5825 698.4949,110.6492 Q697.8101,111.7158 697.8101,113.8159 Q697.8101,115.9077 698.4949,116.9744 Q699.1797,118.041 700.5244,118.041 Q701.1553,118.041 701.7488,117.7712 Q702.3423,117.5015 702.9731,116.9204 Z "/><text fill="#000000" font-family="sans-serif" font-size="12" lengthAdjust="spacingAndGlyphs" textLength="60" x="714" y="118.5352">ProductA2</text><line style="stroke: #A80036; stroke-width: 1.5;" x1="686" x2="776" y1="130" y2="130"/><line style="stroke: #A80036; stroke-width: 1.5;" x1="686" x2="776" y1="138" y2="138"/><!--class AbstractProductB--><rect fill="#FEFECE" filter="url(#f1805re9apgpeg)" height="48" id="AbstractProductB" style="stroke: #A80036; stroke-width: 1.5;" width="131" x="449" y="309"/><ellipse cx="464" cy="325" fill="#A9DCDF" rx="11" ry="11" style="stroke: #A80036; stroke-width: 1.0;"/><path d="M464.1133,320.3481 L462.9595,325.4199 L465.2754,325.4199 Z M462.6191,318.1069 L465.6157,318.1069 L468.9609,330.5 L466.5122,330.5 L465.7485,327.437 L462.4697,327.437 L461.7227,330.5 L459.2739,330.5 Z "/><text fill="#000000" font-family="sans-serif" font-size="12" font-style="italic" lengthAdjust="spacingAndGlyphs" textLength="99" x="478" y="329.5352">AbstractProductB</text><line style="stroke: #A80036; stroke-width: 1.5;" x1="450" x2="579" y1="341" y2="341"/><line style="stroke: #A80036; stroke-width: 1.5;" x1="450" x2="579" y1="349" y2="349"/><!--class ProductB1--><rect fill="#FEFECE" filter="url(#f1805re9apgpeg)" height="48" id="ProductB1" style="stroke: #A80036; stroke-width: 1.5;" width="91" x="685.5" y="187"/><ellipse cx="700.5" cy="203" fill="#ADD1B2" rx="11" ry="11" style="stroke: #A80036; stroke-width: 1.0;"/><path d="M703.4731,208.6431 Q702.8921,208.9419 702.2529,209.0913 Q701.6138,209.2407 700.9082,209.2407 Q698.4014,209.2407 697.0815,207.5889 Q695.7617,205.937 695.7617,202.8159 Q695.7617,199.6865 697.0815,198.0347 Q698.4014,196.3828 700.9082,196.3828 Q701.6138,196.3828 702.2612,196.5322 Q702.9087,196.6816 703.4731,196.9805 L703.4731,199.7031 Q702.8423,199.1221 702.2488,198.8523 Q701.6553,198.5825 701.0244,198.5825 Q699.6797,198.5825 698.9949,199.6492 Q698.3101,200.7158 698.3101,202.8159 Q698.3101,204.9077 698.9949,205.9744 Q699.6797,207.041 701.0244,207.041 Q701.6553,207.041 702.2488,206.7712 Q702.8423,206.5015 703.4731,205.9204 Z "/><text fill="#000000" font-family="sans-serif" font-size="12" lengthAdjust="spacingAndGlyphs" textLength="59" x="714.5" y="207.5352">ProductB1</text><line style="stroke: #A80036; stroke-width: 1.5;" x1="686.5" x2="775.5" y1="219" y2="219"/><line style="stroke: #A80036; stroke-width: 1.5;" x1="686.5" x2="775.5" y1="227" y2="227"/><!--class ProductB2--><rect fill="#FEFECE" filter="url(#f1805re9apgpeg)" height="48" id="ProductB2" style="stroke: #A80036; stroke-width: 1.5;" width="91" x="685.5" y="283"/><ellipse cx="700.5" cy="299" fill="#ADD1B2" rx="11" ry="11" style="stroke: #A80036; stroke-width: 1.0;"/><path d="M703.4731,304.6431 Q702.8921,304.9419 702.2529,305.0913 Q701.6138,305.2407 700.9082,305.2407 Q698.4014,305.2407 697.0815,303.5889 Q695.7617,301.937 695.7617,298.8159 Q695.7617,295.6865 697.0815,294.0347 Q698.4014,292.3828 700.9082,292.3828 Q701.6138,292.3828 702.2612,292.5322 Q702.9087,292.6816 703.4731,292.9805 L703.4731,295.7031 Q702.8423,295.1221 702.2488,294.8523 Q701.6553,294.5825 701.0244,294.5825 Q699.6797,294.5825 698.9949,295.6492 Q698.3101,296.7158 698.3101,298.8159 Q698.3101,300.9077 698.9949,301.9744 Q699.6797,303.041 701.0244,303.041 Q701.6553,303.041 702.2488,302.7712 Q702.8423,302.5015 703.4731,301.9204 Z "/><text fill="#000000" font-family="sans-serif" font-size="12" lengthAdjust="spacingAndGlyphs" textLength="59" x="714.5" y="303.5352">ProductB2</text><line style="stroke: #A80036; stroke-width: 1.5;" x1="686.5" x2="775.5" y1="315" y2="315"/><line style="stroke: #A80036; stroke-width: 1.5;" x1="686.5" x2="775.5" y1="323" y2="323"/><!--entity client--><rect fill="#FEFECE" filter="url(#f1805re9apgpeg)" height="36.4883" style="stroke: #A80036; stroke-width: 1.5;" width="57" x="6" y="190"/><text fill="#000000" font-family="sans-serif" font-size="14" lengthAdjust="spacingAndGlyphs" textLength="37" x="16" y="213.5352">client</text><!--link AbstractFactory to ConcreteFactory1--><path d="M364.3522,179 C364.3522,179 515,179 515,179 C515,179 515,172.9736 515,165.064 " fill="none" id="AbstractFactory-ConcreteFactory1" style="stroke: #A80036; stroke-width: 1.0; stroke-dasharray: 7.0,7.0;"/><polygon fill="none" points="364.3522,185.9999,344.3522,179,364.3521,171.9999,364.3522,185.9999" style="stroke: #A80036; stroke-width: 1.0;"/><!--link AbstractFactory to ConcreteFactory2--><path d="M364.1553,222.5 C364.1553,222.5 403.9455,222.5 403.9455,222.5 " fill="none" id="AbstractFactory-ConcreteFactory2" style="stroke: #A80036; stroke-width: 1.0; stroke-dasharray: 7.0,7.0;"/><polygon fill="none" points="364.1553,229.4999,344.1553,222.5,364.1552,215.4999,364.1553,229.4999" style="stroke: #A80036; stroke-width: 1.0;"/><!--link AbstractProductA to ProductA1--><path d="M600.6335,23 C600.6335,23 684.8167,23 684.8167,23 " fill="none" id="AbstractProductA-ProductA1" style="stroke: #A80036; stroke-width: 1.0;"/><polygon fill="none" points="600.6336,29.9999,580.6335,23,600.6335,15.9999,600.6336,29.9999" style="stroke: #A80036; stroke-width: 1.0;"/><!--link AbstractProductA to ProductA2--><path d="M600.897,34 C600.897,34 670,34 670,34 C670,34 670,114 670,114 C670,114 676.2586,114 684.7664,114 " fill="none" id="AbstractProductA-ProductA2" style="stroke: #A80036; stroke-width: 1.0;"/><polygon fill="none" points="600.8971,40.9999,580.897,34,600.897,26.9999,600.8971,40.9999" style="stroke: #A80036; stroke-width: 1.0;"/><!--link ConcreteFactory1 to ProductA1--><path d="M603,90.8697 C603,68.7706 603,45 603,45 C603,45 679.7891,45 679.7891,45 " fill="none" id="ConcreteFactory1-ProductA1" style="stroke: #A80036; stroke-width: 1.0; stroke-dasharray: 7.0,7.0;"/><polygon fill="#A80036" points="684.7891,45,675.7891,41,679.7891,45,675.7891,49,684.7891,45" style="stroke: #A80036; stroke-width: 1.0;"/><!--link ConcreteFactory2 to ProductA2--><path d="M625.1107,211.6667 C634.2072,211.6667 640,211.6667 640,211.6667 C640,211.6667 640,130 640,130 C640,130 679.9668,130 679.9668,130 " fill="none" id="ConcreteFactory2-ProductA2" style="stroke: #A80036; stroke-width: 1.0; stroke-dasharray: 7.0,7.0;"/><polygon fill="#A80036" points="684.9668,130,675.9668,126,679.9668,130,675.9668,134,684.9668,130" style="stroke: #A80036; stroke-width: 1.0;"/><!--link AbstractProductB to ProductB1--><path d="M600.225,316.3333 C600.225,316.3333 655,316.3333 655,316.3333 C655,316.3333 655,223.3333 655,223.3333 C655,223.3333 669.2883,223.3333 685.4742,223.3333 " fill="none" id="AbstractProductB-ProductB1" style="stroke: #A80036; stroke-width: 1.0;"/><polygon fill="none" points="600.225,323.3332,580.225,316.3333,600.2249,309.3332,600.225,323.3332" style="stroke: #A80036; stroke-width: 1.0;"/><!--link AbstractProductB to ProductB2--><path d="M600.0447,323.6667 C600.0447,323.6667 685.24,323.6667 685.24,323.6667 " fill="none" id="AbstractProductB-ProductB2" style="stroke: #A80036; stroke-width: 1.0;"/><polygon fill="none" points="600.0447,330.6666,580.0447,323.6667,600.0446,316.6666,600.0447,330.6666" style="stroke: #A80036; stroke-width: 1.0;"/><!--link ConcreteFactory1 to ProductB1--><path d="M625.2869,155.5 C678.5532,155.5 731,155.5 731,155.5 C731,155.5 731,181.8183 731,181.8183 " fill="none" id="ConcreteFactory1-ProductB1" style="stroke: #A80036; stroke-width: 1.0; stroke-dasharray: 7.0,7.0;"/><polygon fill="#A80036" points="731,186.8183,735,177.8183,731,181.8183,727,177.8183,731,186.8183" style="stroke: #A80036; stroke-width: 1.0;"/><!--link ConcreteFactory2 to ProductB2--><path d="M603,274.0306 C603,285.8846 603,296 603,296 C603,296 680.1506,296 680.1506,296 " fill="none" id="ConcreteFactory2-ProductB2" style="stroke: #A80036; stroke-width: 1.0; stroke-dasharray: 7.0,7.0;"/><polygon fill="#A80036" points="685.1506,296,676.1506,292,680.1506,296,676.1506,300,685.1506,296" style="stroke: #A80036; stroke-width: 1.0;"/><!--link client to AbstractFactory--><path d="M63.0118,208 C63.0118,208 117.9545,208 117.9545,208 " fill="none" id="client-AbstractFactory" style="stroke: #A80036; stroke-width: 1.0;"/><polygon fill="#A80036" points="122.9545,208,113.9545,204,117.9545,208,113.9545,212,122.9545,208" style="stroke: #A80036; stroke-width: 1.0;"/><!--link client to AbstractProductA--><path d="M35,189.8278 C35,144.8601 35,32 35,32 C35,32 443.331,32 443.331,32 " fill="none" id="client-AbstractProductA" style="stroke: #A80036; stroke-width: 1.0;"/><polygon fill="#A80036" points="448.331,32,439.331,28,443.331,32,439.331,36,448.331,32" style="stroke: #A80036; stroke-width: 1.0;"/><!--link client to AbstractProductB--><path d="M35,226.1761 C35,260.8445 35,333 35,333 C35,333 443.833,333 443.833,333 " fill="none" id="client-AbstractProductB" style="stroke: #A80036; stroke-width: 1.0;"/><polygon fill="#A80036" points="448.833,333,439.833,329,443.833,333,439.833,337,448.833,333" style="stroke: #A80036; stroke-width: 1.0;"/><!--
@startuml
allow_mixing
skinparam linetype ortho
left to right direction

interface AbstractFactory {
	+ CreateProductA(): AbstractProductA
	+ CreateProductB(): AbstractProductB
}

class ConcreteFactory1 implements AbstractFactory {
	+ CreateProductA(): AbstractProductA
	+ CreateProductB(): AbstractProductB
}

class ConcreteFactory2 implements AbstractFactory {
	+ CreateProductA(): AbstractProductA
	+ CreateProductB(): AbstractProductB
}

abstract class AbstractProductA
class ProductA1 extends AbstractProductA
class ProductA2 extends AbstractProductA

ConcreteFactory1 ..> ProductA1
ConcreteFactory2 ..> ProductA2

abstract class AbstractProductB
class ProductB1 extends AbstractProductB
class ProductB2 extends AbstractProductB

ConcreteFactory1 ..> ProductB1
ConcreteFactory2 ..> ProductB2

agent client

client - -> AbstractFactory
client - -> AbstractProductA
client - -> AbstractProductB


@enduml

PlantUML version 1.2017.16(Sun Sep 03 12:53:37 CEST 2017)
(GPL source distribution)
Java Runtime: Java(TM) SE Runtime Environment
JVM: Java HotSpot(TM) 64-Bit Server VM
Java Version: 1.8.0_144-b01
Operating System: Mac OS X
OS Version: 10.13.1
Default Encoding: UTF-8
Language: en
Country: US
--></g></svg>