<?xml version="1.0" encoding="UTF-8" standalone="no"?><svg xmlns="http://www.w3.org/2000/svg" xmlns:xlink="http://www.w3.org/1999/xlink" contentScriptType="application/ecmascript" contentStyleType="text/css" height="213px" preserveAspectRatio="none" style="width:456px;height:213px;" version="1.1" viewBox="0 0 456 213" width="456px" zoomAndPan="magnify"><defs><filter height="300%" id="fwylumstztwoc" width="300%" x="-1" y="-1"><feGaussianBlur result="blurOut" stdDeviation="2.0"/><feColorMatrix in="blurOut" result="blurOut2" type="matrix" values="0 0 0 0 0 0 0 0 0 0 0 0 0 0 0 0 0 0 .4 0"/><feOffset dx="4.0" dy="4.0" in="blurOut2" result="blurOut3"/><feBlend in="SourceGraphic" in2="blurOut3" mode="normal"/></filter></defs><g><!--class Shipment--><rect fill="#FEFECE" filter="url(#fwylumstztwoc)" height="60.9551" id="Shipment" style="stroke: #A80036; stroke-width: 1.5;" width="85" x="156" y="8"/><ellipse cx="171" cy="24" fill="#A9DCDF" rx="11" ry="11" style="stroke: #A80036; stroke-width: 1.0;"/><path d="M171.1133,19.3481 L169.9595,24.4199 L172.2754,24.4199 Z M169.6191,17.1069 L172.6157,17.1069 L175.9609,29.5 L173.5122,29.5 L172.7485,26.437 L169.4697,26.437 L168.7227,29.5 L166.2739,29.5 Z "/><text fill="#000000" font-family="sans-serif" font-size="12" font-style="italic" lengthAdjust="spacingAndGlyphs" textLength="53" x="185" y="28.5352">Shipment</text><line style="stroke: #A80036; stroke-width: 1.5;" x1="157" x2="240" y1="40" y2="40"/><line style="stroke: #A80036; stroke-width: 1.5;" x1="157" x2="240" y1="48" y2="48"/><ellipse cx="167" cy="59.9775" fill="#84BE84" rx="3" ry="3" style="stroke: #038048; stroke-width: 1.0;"/><text fill="#000000" font-family="sans-serif" font-size="11" lengthAdjust="spacingAndGlyphs" textLength="59" x="176" y="62.6348">count(): int</text><!--class Box--><rect fill="#FEFECE" filter="url(#fwylumstztwoc)" height="73.9102" id="Box" style="stroke: #A80036; stroke-width: 1.5;" width="129" x="6" y="129"/><ellipse cx="55.75" cy="145" fill="#ADD1B2" rx="11" ry="11" style="stroke: #A80036; stroke-width: 1.0;"/><path d="M58.7231,150.6431 Q58.1421,150.9419 57.5029,151.0913 Q56.8638,151.2407 56.1582,151.2407 Q53.6514,151.2407 52.3315,149.5889 Q51.0117,147.937 51.0117,144.8159 Q51.0117,141.6865 52.3315,140.0347 Q53.6514,138.3828 56.1582,138.3828 Q56.8638,138.3828 57.5112,138.5322 Q58.1587,138.6816 58.7231,138.9805 L58.7231,141.7031 Q58.0923,141.1221 57.4988,140.8523 Q56.9053,140.5825 56.2744,140.5825 Q54.9297,140.5825 54.2449,141.6492 Q53.5601,142.7158 53.5601,144.8159 Q53.5601,146.9077 54.2449,147.9744 Q54.9297,149.041 56.2744,149.041 Q56.9053,149.041 57.4988,148.7712 Q58.0923,148.5015 58.7231,147.9204 Z "/><text fill="#000000" font-family="sans-serif" font-size="12" lengthAdjust="spacingAndGlyphs" textLength="21" x="76.25" y="149.5352">Box</text><line style="stroke: #A80036; stroke-width: 1.5;" x1="7" x2="134" y1="161" y2="161"/><rect fill="none" height="6" style="stroke: #C82930; stroke-width: 1.0;" width="6" x="14" y="169.9775"/><text fill="#000000" font-family="sans-serif" font-size="11" lengthAdjust="spacingAndGlyphs" textLength="103" x="26" y="175.6348">contents: Shipment</text><line style="stroke: #A80036; stroke-width: 1.5;" x1="7" x2="134" y1="181.9551" y2="181.9551"/><ellipse cx="17" cy="193.9326" fill="#84BE84" rx="3" ry="3" style="stroke: #038048; stroke-width: 1.0;"/><text fill="#000000" font-family="sans-serif" font-size="11" lengthAdjust="spacingAndGlyphs" textLength="59" x="26" y="196.5898">count(): int</text><!--class Shirt--><rect fill="#FEFECE" filter="url(#fwylumstztwoc)" height="48" id="Shirt" style="stroke: #A80036; stroke-width: 1.5;" width="57" x="170" y="142"/><ellipse cx="185" cy="158" fill="#ADD1B2" rx="11" ry="11" style="stroke: #A80036; stroke-width: 1.0;"/><path d="M187.9731,163.6431 Q187.3921,163.9419 186.7529,164.0913 Q186.1138,164.2407 185.4082,164.2407 Q182.9014,164.2407 181.5815,162.5889 Q180.2617,160.937 180.2617,157.8159 Q180.2617,154.6865 181.5815,153.0347 Q182.9014,151.3828 185.4082,151.3828 Q186.1138,151.3828 186.7612,151.5322 Q187.4087,151.6816 187.9731,151.9805 L187.9731,154.7031 Q187.3423,154.1221 186.7488,153.8523 Q186.1553,153.5825 185.5244,153.5825 Q184.1797,153.5825 183.4949,154.6492 Q182.8101,155.7158 182.8101,157.8159 Q182.8101,159.9077 183.4949,160.9744 Q184.1797,162.041 185.5244,162.041 Q186.1553,162.041 186.7488,161.7712 Q187.3423,161.5015 187.9731,160.9204 Z "/><text fill="#000000" font-family="sans-serif" font-size="12" lengthAdjust="spacingAndGlyphs" textLength="25" x="199" y="162.5352">Shirt</text><line style="stroke: #A80036; stroke-width: 1.5;" x1="171" x2="226" y1="174" y2="174"/><line style="stroke: #A80036; stroke-width: 1.5;" x1="171" x2="226" y1="182" y2="182"/><!--class Pants--><rect fill="#FEFECE" filter="url(#fwylumstztwoc)" height="48" id="Pants" style="stroke: #A80036; stroke-width: 1.5;" width="63" x="262" y="142"/><ellipse cx="277" cy="158" fill="#ADD1B2" rx="11" ry="11" style="stroke: #A80036; stroke-width: 1.0;"/><path d="M279.9731,163.6431 Q279.3921,163.9419 278.7529,164.0913 Q278.1138,164.2407 277.4082,164.2407 Q274.9014,164.2407 273.5815,162.5889 Q272.2617,160.937 272.2617,157.8159 Q272.2617,154.6865 273.5815,153.0347 Q274.9014,151.3828 277.4082,151.3828 Q278.1138,151.3828 278.7612,151.5322 Q279.4087,151.6816 279.9731,151.9805 L279.9731,154.7031 Q279.3423,154.1221 278.7488,153.8523 Q278.1553,153.5825 277.5244,153.5825 Q276.1797,153.5825 275.4949,154.6492 Q274.8101,155.7158 274.8101,157.8159 Q274.8101,159.9077 275.4949,160.9744 Q276.1797,162.041 277.5244,162.041 Q278.1553,162.041 278.7488,161.7712 Q279.3423,161.5015 279.9731,160.9204 Z "/><text fill="#000000" font-family="sans-serif" font-size="12" lengthAdjust="spacingAndGlyphs" textLength="31" x="291" y="162.5352">Pants</text><line style="stroke: #A80036; stroke-width: 1.5;" x1="263" x2="324" y1="174" y2="174"/><line style="stroke: #A80036; stroke-width: 1.5;" x1="263" x2="324" y1="182" y2="182"/><!--class Shoes--><rect fill="#FEFECE" filter="url(#fwylumstztwoc)" height="60.9551" id="Shoes" style="stroke: #A80036; stroke-width: 1.5;" width="85" x="360" y="135.5"/><ellipse cx="384" cy="151.5" fill="#ADD1B2" rx="11" ry="11" style="stroke: #A80036; stroke-width: 1.0;"/><path d="M386.9731,157.1431 Q386.3921,157.4419 385.7529,157.5913 Q385.1138,157.7407 384.4082,157.7407 Q381.9014,157.7407 380.5815,156.0889 Q379.2617,154.437 379.2617,151.3159 Q379.2617,148.1865 380.5815,146.5347 Q381.9014,144.8828 384.4082,144.8828 Q385.1138,144.8828 385.7612,145.0322 Q386.4087,145.1816 386.9731,145.4805 L386.9731,148.2031 Q386.3423,147.6221 385.7488,147.3523 Q385.1553,147.0825 384.5244,147.0825 Q383.1797,147.0825 382.4949,148.1492 Q381.8101,149.2158 381.8101,151.3159 Q381.8101,153.4077 382.4949,154.4744 Q383.1797,155.541 384.5244,155.541 Q385.1553,155.541 385.7488,155.2712 Q386.3423,155.0015 386.9731,154.4204 Z "/><text fill="#000000" font-family="sans-serif" font-size="12" lengthAdjust="spacingAndGlyphs" textLength="33" x="400" y="156.0352">Shoes</text><line style="stroke: #A80036; stroke-width: 1.5;" x1="361" x2="444" y1="167.5" y2="167.5"/><line style="stroke: #A80036; stroke-width: 1.5;" x1="361" x2="444" y1="175.5" y2="175.5"/><ellipse cx="371" cy="187.4775" fill="#84BE84" rx="3" ry="3" style="stroke: #038048; stroke-width: 1.0;"/><text fill="#000000" font-family="sans-serif" font-size="11" lengthAdjust="spacingAndGlyphs" textLength="59" x="380" y="190.1348">count(): int</text><!--link Shipment to Box--><path d="M141.781,82.8359 C125.8324,97.8637 109.3166,114.4828 96.0526,128.8888 " fill="none" id="Shipment-Box" style="stroke: #A80036; stroke-width: 1.0;"/><polygon fill="none" points="137.3164,77.4314,156.7735,69.0394,146.7965,87.7333,137.3164,77.4314" style="stroke: #A80036; stroke-width: 1.0;"/><!--link Shipment to Box--><path d="M179.5592,69.0394 C166.1249,84.2065 147.8451,102.8532 129.991,119.729 " fill="none" id="Shipment-Box" style="stroke: #A80036; stroke-width: 1.0;"/><polygon fill="#A80036" points="120.1493,128.8888,127.2665,127.7291,128.9334,120.7133,121.8162,121.873,120.1493,128.8888" style="stroke: #A80036; stroke-width: 1.0;"/><!--link Shipment to Shirt--><path d="M198.5,89.2199 C198.5,107.2961 198.5,126.8323 198.5,141.6746 " fill="none" id="Shipment-Shirt" style="stroke: #A80036; stroke-width: 1.0;"/><polygon fill="none" points="191.5001,89.0395,198.5,69.0394,205.5001,89.0394,191.5001,89.0395" style="stroke: #A80036; stroke-width: 1.0;"/><!--link Shipment to Pants--><path d="M233.2379,85.1219 C247.5245,104.296 263.4748,125.703 275.3752,141.6746 " fill="none" id="Shipment-Pants" style="stroke: #A80036; stroke-width: 1.0;"/><polygon fill="none" points="227.5913,89.2595,221.2549,69.0394,238.8177,80.8947,227.5913,89.2595" style="stroke: #A80036; stroke-width: 1.0;"/><!--link Shipment to Shoes--><path d="M258.5099,76.0062 C291.0211,96.3257 330.4274,120.9546 359.7912,139.307 " fill="none" id="Shipment-Shoes" style="stroke: #A80036; stroke-width: 1.0;"/><polygon fill="none" points="254.5151,81.7642,241.2651,65.2282,261.9351,69.8922,254.5151,81.7642" style="stroke: #A80036; stroke-width: 1.0;"/><!--
@startuml

abstract class Shipment {
	+ count(): int
}

class Box extends Shipment {
	+ count(): int
	- contents: Shipment
}

class Shirt extends Shipment
class Pants extends Shipment

class Shoes extends Shipment {
	+ count(): int
}

Shipment - -* Box

@enduml

PlantUML version 1.2017.16(Sun Sep 03 12:53:37 CEST 2017)
(GPL source distribution)
Java Runtime: Java(TM) SE Runtime Environment
JVM: Java HotSpot(TM) 64-Bit Server VM
Java Version: 1.8.0_144-b01
Operating System: Mac OS X
OS Version: 10.13.1
Default Encoding: UTF-8
Language: en
Country: US
--></g></svg>