<?xml version="1.0" encoding="UTF-8" standalone="no"?><svg xmlns="http://www.w3.org/2000/svg" xmlns:xlink="http://www.w3.org/1999/xlink" contentScriptType="application/ecmascript" contentStyleType="text/css" height="200px" preserveAspectRatio="none" style="width:543px;height:200px;" version="1.1" viewBox="0 0 543 200" width="543px" zoomAndPan="magnify"><defs><filter height="300%" id="f19szdr4fa4x04" width="300%" x="-1" y="-1"><feGaussianBlur result="blurOut" stdDeviation="2.0"/><feColorMatrix in="blurOut" result="blurOut2" type="matrix" values="0 0 0 0 0 0 0 0 0 0 0 0 0 0 0 0 0 0 .4 0"/><feOffset dx="4.0" dy="4.0" in="blurOut2" result="blurOut3"/><feBlend in="SourceGraphic" in2="blurOut3" mode="normal"/></filter></defs><g><!--class Component--><rect fill="#FEFECE" filter="url(#f19szdr4fa4x04)" height="60.9551" id="Component" style="stroke: #A80036; stroke-width: 1.5;" width="98" x="278.5" y="8"/><ellipse cx="293.5" cy="24" fill="#A9DCDF" rx="11" ry="11" style="stroke: #A80036; stroke-width: 1.0;"/><path d="M293.6133,19.3481 L292.4595,24.4199 L294.7754,24.4199 Z M292.1191,17.1069 L295.1157,17.1069 L298.4609,29.5 L296.0122,29.5 L295.2485,26.437 L291.9697,26.437 L291.2227,29.5 L288.7739,29.5 Z "/><text fill="#000000" font-family="sans-serif" font-size="12" font-style="italic" lengthAdjust="spacingAndGlyphs" textLength="66" x="307.5" y="28.5352">Component</text><line style="stroke: #A80036; stroke-width: 1.5;" x1="279.5" x2="375.5" y1="40" y2="40"/><line style="stroke: #A80036; stroke-width: 1.5;" x1="279.5" x2="375.5" y1="48" y2="48"/><ellipse cx="289.5" cy="59.9775" fill="#84BE84" rx="3" ry="3" style="stroke: #038048; stroke-width: 1.0;"/><text fill="#000000" font-family="sans-serif" font-size="11" lengthAdjust="spacingAndGlyphs" textLength="60" x="298.5" y="62.6348">operation()</text><!--entity Client--><rect fill="#FEFECE" filter="url(#f19szdr4fa4x04)" height="36.4883" style="stroke: #A80036; stroke-width: 1.5;" width="60" x="183.5" y="20.5"/><text fill="#000000" font-family="sans-serif" font-size="14" lengthAdjust="spacingAndGlyphs" textLength="40" x="193.5" y="44.0352">Client</text><!--class BasicLeaf--><rect fill="#FEFECE" filter="url(#f19szdr4fa4x04)" height="48" id="BasicLeaf" style="stroke: #A80036; stroke-width: 1.5;" width="85" x="6" y="135.5"/><ellipse cx="21" cy="151.5" fill="#ADD1B2" rx="11" ry="11" style="stroke: #A80036; stroke-width: 1.0;"/><path d="M23.9731,157.1431 Q23.3921,157.4419 22.7529,157.5913 Q22.1138,157.7407 21.4082,157.7407 Q18.9014,157.7407 17.5815,156.0889 Q16.2617,154.437 16.2617,151.3159 Q16.2617,148.1865 17.5815,146.5347 Q18.9014,144.8828 21.4082,144.8828 Q22.1138,144.8828 22.7612,145.0322 Q23.4087,145.1816 23.9731,145.4805 L23.9731,148.2031 Q23.3423,147.6221 22.7488,147.3523 Q22.1553,147.0825 21.5244,147.0825 Q20.1797,147.0825 19.4949,148.1492 Q18.8101,149.2158 18.8101,151.3159 Q18.8101,153.4077 19.4949,154.4744 Q20.1797,155.541 21.5244,155.541 Q22.1553,155.541 22.7488,155.2712 Q23.3423,155.0015 23.9731,154.4204 Z "/><text fill="#000000" font-family="sans-serif" font-size="12" lengthAdjust="spacingAndGlyphs" textLength="53" x="35" y="156.0352">BasicLeaf</text><line style="stroke: #A80036; stroke-width: 1.5;" x1="7" x2="90" y1="167.5" y2="167.5"/><line style="stroke: #A80036; stroke-width: 1.5;" x1="7" x2="90" y1="175.5" y2="175.5"/><!--class Leaf--><rect fill="#FEFECE" filter="url(#f19szdr4fa4x04)" height="60.9551" id="Leaf" style="stroke: #A80036; stroke-width: 1.5;" width="86" x="126.5" y="129"/><ellipse cx="155" cy="145" fill="#ADD1B2" rx="11" ry="11" style="stroke: #A80036; stroke-width: 1.0;"/><path d="M157.9731,150.6431 Q157.3921,150.9419 156.7529,151.0913 Q156.1138,151.2407 155.4082,151.2407 Q152.9014,151.2407 151.5815,149.5889 Q150.2617,147.937 150.2617,144.8159 Q150.2617,141.6865 151.5815,140.0347 Q152.9014,138.3828 155.4082,138.3828 Q156.1138,138.3828 156.7612,138.5322 Q157.4087,138.6816 157.9731,138.9805 L157.9731,141.7031 Q157.3423,141.1221 156.7488,140.8523 Q156.1553,140.5825 155.5244,140.5825 Q154.1797,140.5825 153.4949,141.6492 Q152.8101,142.7158 152.8101,144.8159 Q152.8101,146.9077 153.4949,147.9744 Q154.1797,149.041 155.5244,149.041 Q156.1553,149.041 156.7488,148.7712 Q157.3423,148.5015 157.9731,147.9204 Z "/><text fill="#000000" font-family="sans-serif" font-size="12" lengthAdjust="spacingAndGlyphs" textLength="24" x="172" y="149.5352">Leaf</text><line style="stroke: #A80036; stroke-width: 1.5;" x1="127.5" x2="211.5" y1="161" y2="161"/><line style="stroke: #A80036; stroke-width: 1.5;" x1="127.5" x2="211.5" y1="169" y2="169"/><ellipse cx="137.5" cy="180.9775" fill="#84BE84" rx="3" ry="3" style="stroke: #038048; stroke-width: 1.0;"/><text fill="#000000" font-family="sans-serif" font-size="11" lengthAdjust="spacingAndGlyphs" textLength="60" x="146.5" y="183.6348">operation()</text><!--class Composite--><rect fill="#FEFECE" filter="url(#f19szdr4fa4x04)" height="60.9551" id="Composite" style="stroke: #A80036; stroke-width: 1.5;" width="93" x="439" y="129"/><ellipse cx="454" cy="145" fill="#ADD1B2" rx="11" ry="11" style="stroke: #A80036; stroke-width: 1.0;"/><path d="M456.9731,150.6431 Q456.3921,150.9419 455.7529,151.0913 Q455.1138,151.2407 454.4082,151.2407 Q451.9014,151.2407 450.5815,149.5889 Q449.2617,147.937 449.2617,144.8159 Q449.2617,141.6865 450.5815,140.0347 Q451.9014,138.3828 454.4082,138.3828 Q455.1138,138.3828 455.7612,138.5322 Q456.4087,138.6816 456.9731,138.9805 L456.9731,141.7031 Q456.3423,141.1221 455.7488,140.8523 Q455.1553,140.5825 454.5244,140.5825 Q453.1797,140.5825 452.4949,141.6492 Q451.8101,142.7158 451.8101,144.8159 Q451.8101,146.9077 452.4949,147.9744 Q453.1797,149.041 454.5244,149.041 Q455.1553,149.041 455.7488,148.7712 Q456.3423,148.5015 456.9731,147.9204 Z "/><text fill="#000000" font-family="sans-serif" font-size="12" lengthAdjust="spacingAndGlyphs" textLength="61" x="468" y="149.5352">Composite</text><line style="stroke: #A80036; stroke-width: 1.5;" x1="440" x2="531" y1="161" y2="161"/><line style="stroke: #A80036; stroke-width: 1.5;" x1="440" x2="531" y1="169" y2="169"/><ellipse cx="450" cy="180.9775" fill="#84BE84" rx="3" ry="3" style="stroke: #038048; stroke-width: 1.0;"/><text fill="#000000" font-family="sans-serif" font-size="11" lengthAdjust="spacingAndGlyphs" textLength="60" x="459" y="183.6348">operation()</text><polygon fill="#FBFB77" filter="url(#f19szdr4fa4x04)" points="247.5,134,247.5,174.6211,403.5,174.6211,403.5,144,393.5,134,247.5,134" style="stroke: #A80036; stroke-width: 1.0;"/><polygon fill="#FBFB77" points="247.5,134,247.5,174.6211,403.5,174.6211,403.5,158.3105,443,179.4775,403.5,150.3105,403.5,144,393.5,134,247.5,134" style="stroke: #A80036; stroke-width: 1.0;"/><line style="stroke: #A80036; stroke-width: 1.0;" x1="393.5" x2="393.5" y1="134" y2="144"/><line style="stroke: #A80036; stroke-width: 1.0;" x1="403.5" x2="393.5" y1="144" y2="144"/><text fill="#000000" font-family="sans-serif" font-size="13" lengthAdjust="spacingAndGlyphs" textLength="131" x="253.5" y="151.5684">for c in components:</text><text fill="#000000" font-family="sans-serif" font-size="13" lengthAdjust="spacingAndGlyphs" textLength="79" x="261.5" y="166.8789">c.operation()</text><!--link Client to Component--><path d="M243.7813,38.5 C253.621,38.5 263.4607,38.5 273.3005,38.5 " fill="none" id="Client-Component" style="stroke: #A80036; stroke-width: 1.0;"/><polygon fill="#A80036" points="278.446,38.5,269.446,34.5,273.446,38.5,269.446,42.5,278.446,38.5" style="stroke: #A80036; stroke-width: 1.0;"/><!--link Component to BasicLeaf--><path d="M259.8148,69.4565 C191.4868,98.0324 170.6405,101.7107 109.5,129 C103.5533,131.6542 97.3462,134.5758 91.2651,137.5273 " fill="none" id="Component-BasicLeaf" style="stroke: #A80036; stroke-width: 1.0;"/><polygon fill="none" points="257.1175,62.9969,278.2628,61.6255,262.588,75.8839,257.1175,62.9969" style="stroke: #A80036; stroke-width: 1.0;"/><!--link Component to Leaf--><path d="M271.7366,81.2049 C251.151,96.9698 228.2548,114.5042 209.3573,128.9764 " fill="none" id="Component-Leaf" style="stroke: #A80036; stroke-width: 1.0;"/><polygon fill="none" points="267.4952,75.6361,287.6299,69.0334,276.0074,86.7512,267.4952,75.6361" style="stroke: #A80036; stroke-width: 1.0;"/><!--link Component to Composite--><path d="M371.9224,81.9299 C392.8314,98.6535 417.6137,117.2723 438.8132,132.0763 " fill="none" id="Component-Composite" style="stroke: #A80036; stroke-width: 1.0;"/><polygon fill="none" points="367.1918,87.1045,356.1267,69.0334,376.046,76.2599,367.1918,87.1045" style="stroke: #A80036; stroke-width: 1.0;"/><!--link Component to Composite--><path d="M376.6236,67.1753 C399.3973,83.0781 425.8646,103.0819 447.1636,120.4002 " fill="none" id="Component-Composite" style="stroke: #A80036; stroke-width: 1.0;"/><polygon fill="#A80036" points="457.4737,128.9153,455.3947,122.0104,448.2213,121.2738,450.3003,128.1787,457.4737,128.9153" style="stroke: #A80036; stroke-width: 1.0;"/><!--link Composite$$$LEFT to Composite--><!--
@startuml
allow_mixing

abstract class Component {
	+ operation()
}

agent Client

Client -right-> Component

class BasicLeaf extends Component

class Leaf extends Component {
	+ operation()
}

class Composite extends Component {
	+ operation()
}

Component - -* Composite

note left of Composite::operation
	for c in components: 
	  c.operation()
end note

@enduml

PlantUML version 1.2017.16(Sun Sep 03 12:53:37 CEST 2017)
(GPL source distribution)
Java Runtime: Java(TM) SE Runtime Environment
JVM: Java HotSpot(TM) 64-Bit Server VM
Java Version: 1.8.0_144-b01
Operating System: Mac OS X
OS Version: 10.13.1
Default Encoding: UTF-8
Language: en
Country: US
--></g></svg>