<?xml version="1.0" encoding="UTF-8" standalone="no"?><svg xmlns="http://www.w3.org/2000/svg" xmlns:xlink="http://www.w3.org/1999/xlink" contentScriptType="application/ecmascript" contentStyleType="text/css" height="588px" preserveAspectRatio="none" style="width:334px;height:588px;" version="1.1" viewBox="0 0 334 588" width="334px" zoomAndPan="magnify"><defs><filter height="300%" id="f19sp5jcvnqbw" width="300%" x="-1" y="-1"><feGaussianBlur result="blurOut" stdDeviation="2.0"/><feColorMatrix in="blurOut" result="blurOut2" type="matrix" values="0 0 0 0 0 0 0 0 0 0 0 0 0 0 0 0 0 0 .4 0"/><feOffset dx="4.0" dy="4.0" in="blurOut2" result="blurOut3"/><feBlend in="SourceGraphic" in2="blurOut3" mode="normal"/></filter></defs><g><!--entity Client--><rect fill="#FEFECE" filter="url(#f19sp5jcvnqbw)" height="36.4883" style="stroke: #A80036; stroke-width: 1.5;" width="60" x="146" y="8"/><text fill="#000000" font-family="sans-serif" font-size="14" lengthAdjust="spacingAndGlyphs" textLength="40" x="156" y="31.5352">Client</text><!--entity Invoker--><rect fill="#FEFECE" filter="url(#f19sp5jcvnqbw)" height="36.4883" style="stroke: #A80036; stroke-width: 1.5;" width="71" x="140.5" y="121"/><text fill="#000000" font-family="sans-serif" font-size="14" lengthAdjust="spacingAndGlyphs" textLength="51" x="150.5" y="144.5352">Invoker</text><!--class Command--><rect fill="#FEFECE" filter="url(#f19sp5jcvnqbw)" height="73.9102" id="Command" style="stroke: #A80036; stroke-width: 1.5;" width="91" x="130.5" y="234"/><ellipse cx="145.5" cy="250" fill="#B4A7E5" rx="11" ry="11" style="stroke: #A80036; stroke-width: 1.0;"/><path d="M141.4277,245.7651 L141.4277,243.6069 L148.8071,243.6069 L148.8071,245.7651 L146.3418,245.7651 L146.3418,253.8418 L148.8071,253.8418 L148.8071,256 L141.4277,256 L141.4277,253.8418 L143.8931,253.8418 L143.8931,245.7651 Z "/><text fill="#000000" font-family="sans-serif" font-size="12" font-style="italic" lengthAdjust="spacingAndGlyphs" textLength="59" x="159.5" y="254.5352">Command</text><line style="stroke: #A80036; stroke-width: 1.5;" x1="131.5" x2="220.5" y1="266" y2="266"/><line style="stroke: #A80036; stroke-width: 1.5;" x1="131.5" x2="220.5" y1="274" y2="274"/><ellipse cx="141.5" cy="285.9775" fill="#84BE84" rx="3" ry="3" style="stroke: #038048; stroke-width: 1.0;"/><text fill="#000000" font-family="sans-serif" font-size="11" lengthAdjust="spacingAndGlyphs" textLength="50" x="150.5" y="288.6348">execute()</text><ellipse cx="141.5" cy="298.9326" fill="#84BE84" rx="3" ry="3" style="stroke: #038048; stroke-width: 1.0;"/><text fill="#000000" font-family="sans-serif" font-size="11" lengthAdjust="spacingAndGlyphs" textLength="36" x="150.5" y="301.5898">undo()</text><!--class Receiver--><rect fill="#FEFECE" filter="url(#f19sp5jcvnqbw)" height="60.9551" id="Receiver" style="stroke: #A80036; stroke-width: 1.5;" width="81" x="176.5" y="517"/><ellipse cx="191.5" cy="533" fill="#ADD1B2" rx="11" ry="11" style="stroke: #A80036; stroke-width: 1.0;"/><path d="M194.4731,538.6431 Q193.8921,538.9419 193.2529,539.0913 Q192.6138,539.2407 191.9082,539.2407 Q189.4014,539.2407 188.0815,537.5889 Q186.7617,535.937 186.7617,532.8159 Q186.7617,529.6865 188.0815,528.0347 Q189.4014,526.3828 191.9082,526.3828 Q192.6138,526.3828 193.2612,526.5322 Q193.9087,526.6816 194.4731,526.9805 L194.4731,529.7031 Q193.8423,529.1221 193.2488,528.8523 Q192.6553,528.5825 192.0244,528.5825 Q190.6797,528.5825 189.9949,529.6492 Q189.3101,530.7158 189.3101,532.8159 Q189.3101,534.9077 189.9949,535.9744 Q190.6797,537.041 192.0244,537.041 Q192.6553,537.041 193.2488,536.7712 Q193.8423,536.5015 194.4731,535.9204 Z "/><text fill="#000000" font-family="sans-serif" font-size="12" lengthAdjust="spacingAndGlyphs" textLength="49" x="205.5" y="537.5352">Receiver</text><line style="stroke: #A80036; stroke-width: 1.5;" x1="177.5" x2="256.5" y1="549" y2="549"/><line style="stroke: #A80036; stroke-width: 1.5;" x1="177.5" x2="256.5" y1="557" y2="557"/><ellipse cx="187.5" cy="568.9775" fill="#84BE84" rx="3" ry="3" style="stroke: #038048; stroke-width: 1.0;"/><text fill="#000000" font-family="sans-serif" font-size="11" lengthAdjust="spacingAndGlyphs" textLength="41" x="196.5" y="571.6348">action()</text><!--class ConcreteCommand--><rect fill="#FEFECE" filter="url(#f19sp5jcvnqbw)" height="86.8652" id="ConcreteCommand" style="stroke: #A80036; stroke-width: 1.5;" width="142" x="6" y="369"/><ellipse cx="21" cy="385" fill="#ADD1B2" rx="11" ry="11" style="stroke: #A80036; stroke-width: 1.0;"/><path d="M23.9731,390.6431 Q23.3921,390.9419 22.7529,391.0913 Q22.1138,391.2407 21.4082,391.2407 Q18.9014,391.2407 17.5815,389.5889 Q16.2617,387.937 16.2617,384.8159 Q16.2617,381.6865 17.5815,380.0347 Q18.9014,378.3828 21.4082,378.3828 Q22.1138,378.3828 22.7612,378.5322 Q23.4087,378.6816 23.9731,378.9805 L23.9731,381.7031 Q23.3423,381.1221 22.7488,380.8523 Q22.1553,380.5825 21.5244,380.5825 Q20.1797,380.5825 19.4949,381.6492 Q18.8101,382.7158 18.8101,384.8159 Q18.8101,386.9077 19.4949,387.9744 Q20.1797,389.041 21.5244,389.041 Q22.1553,389.041 22.7488,388.7712 Q23.3423,388.5015 23.9731,387.9204 Z "/><text fill="#000000" font-family="sans-serif" font-size="12" lengthAdjust="spacingAndGlyphs" textLength="110" x="35" y="389.5352">ConcreteCommand</text><line style="stroke: #A80036; stroke-width: 1.5;" x1="7" x2="147" y1="401" y2="401"/><rect fill="none" height="6" style="stroke: #C82930; stroke-width: 1.0;" width="6" x="14" y="409.9775"/><text fill="#000000" font-family="sans-serif" font-size="11" lengthAdjust="spacingAndGlyphs" textLength="26" x="26" y="415.6348">state</text><line style="stroke: #A80036; stroke-width: 1.5;" x1="7" x2="147" y1="421.9551" y2="421.9551"/><ellipse cx="17" cy="433.9326" fill="#84BE84" rx="3" ry="3" style="stroke: #038048; stroke-width: 1.0;"/><text fill="#000000" font-family="sans-serif" font-size="11" lengthAdjust="spacingAndGlyphs" textLength="50" x="26" y="436.5898">execute()</text><ellipse cx="17" cy="446.8877" fill="#84BE84" rx="3" ry="3" style="stroke: #038048; stroke-width: 1.0;"/><text fill="#000000" font-family="sans-serif" font-size="11" lengthAdjust="spacingAndGlyphs" textLength="36" x="26" y="449.5449">undo()</text><polygon fill="#FBFB77" filter="url(#f19sp5jcvnqbw)" points="183.5,395,183.5,420.3105,304.5,420.3105,304.5,405,294.5,395,183.5,395" style="stroke: #A80036; stroke-width: 1.0;"/><polygon fill="#FBFB77" points="183.5,395,183.5,403.6553,76,432.4326,183.5,411.6553,183.5,420.3105,304.5,420.3105,304.5,405,294.5,395,183.5,395" style="stroke: #A80036; stroke-width: 1.0;"/><line style="stroke: #A80036; stroke-width: 1.0;" x1="294.5" x2="294.5" y1="395" y2="405"/><line style="stroke: #A80036; stroke-width: 1.0;" x1="304.5" x2="294.5" y1="405" y2="405"/><text fill="#000000" font-family="sans-serif" font-size="13" lengthAdjust="spacingAndGlyphs" textLength="100" x="189.5" y="412.5684">receiver.action()</text><!--link Invoker to Command--><path d="M176,170.0773 C176,170.0773 176,220.9336 176,220.9336 " fill="none" id="Invoker-Command" style="stroke: #A80036; stroke-width: 1.0;"/><polygon fill="#A80036" points="176,233.9336,180,224.9336,176,228.9336,172,224.9336,176,233.9336" style="stroke: #A80036; stroke-width: 1.0;"/><line style="stroke: #A80036; stroke-width: 1.0;" x1="176" x2="176" y1="228.9336" y2="220.9336"/><polygon fill="#FFFFFF" points="176,157.0773,172,163.0773,176,169.0773,180,163.0773,176,157.0773" style="stroke: #A80036; stroke-width: 1.0;"/><!--link Client to Receiver--><path d="M206.3549,26 C249.2656,26 322.5,26 322.5,26 C322.5,26 322.5,548 322.5,548 C322.5,548 262.7891,548 262.7891,548 " fill="none" id="Client-Receiver" style="stroke: #A80036; stroke-width: 1.0;"/><polygon fill="#A80036" points="257.7891,548,266.7891,552,262.7891,548,266.7891,544,257.7891,548" style="stroke: #A80036; stroke-width: 1.0;"/><!--link Command to ConcreteCommand--><path d="M139.25,328.1775 C139.25,328.1775 139.25,368.7912 139.25,368.7912 " fill="none" id="Command-ConcreteCommand" style="stroke: #A80036; stroke-width: 1.0; stroke-dasharray: 7.0,7.0;"/><polygon fill="none" points="132.2501,328.1775,139.25,308.1775,146.2501,328.1774,132.2501,328.1775" style="stroke: #A80036; stroke-width: 1.0;"/><!--link ConcreteCommand to Receiver--><path d="M148.2562,443 C165.9647,443 180,443 180,443 C180,443 180,511.9934 180,511.9934 " fill="none" id="ConcreteCommand-Receiver" style="stroke: #A80036; stroke-width: 1.0;"/><polygon fill="#A80036" points="180,516.9934,184,507.9934,180,511.9934,176,507.9934,180,516.9934" style="stroke: #A80036; stroke-width: 1.0;"/><!--link Client to ConcreteCommand--><path d="M145.9856,26 C114.1033,26 68.25,26 68.25,26 C68.25,26 68.25,363.9148 68.25,363.9148 " fill="none" id="Client-ConcreteCommand" style="stroke: #A80036; stroke-width: 1.0; stroke-dasharray: 7.0,7.0;"/><polygon fill="#A80036" points="68.25,368.9148,72.25,359.9148,68.25,363.9148,64.25,359.9148,68.25,368.9148" style="stroke: #A80036; stroke-width: 1.0;"/><text fill="#000000" font-family="sans-serif" font-size="13" lengthAdjust="spacingAndGlyphs" textLength="74" x="78" y="200.5684">instantiates</text><!--link Client to Invoker--><path d="M176,44.1554 C176,44.1554 176,115.8897 176,115.8897 " fill="none" id="Client-Invoker" style="stroke: #A80036; stroke-width: 1.0; stroke-dasharray: 7.0,7.0;"/><polygon fill="#A80036" points="176,120.8897,180,111.8897,176,115.8897,172,111.8897,176,120.8897" style="stroke: #A80036; stroke-width: 1.0;"/><text fill="#000000" font-family="sans-serif" font-size="13" lengthAdjust="spacingAndGlyphs" textLength="52" x="177" y="87.5684">controls</text><!--link ConcreteCommand to ConcreteCommand$$$RIGHT--><!--
@startuml
allow_mixing
skinparam linetype ortho

'left to right direction

agent Client

agent Invoker

interface Command {
	+ execute()
	+ undo()
}

Invoker o- -> Command

class Receiver {
	+ action()
}

Client - -> Receiver

class ConcreteCommand implements Command {
	+ execute()
	+ undo()
	- state
}

ConcreteCommand - -> Receiver

Client ..> ConcreteCommand : instantiates
Client ..> Invoker : controls

note right of ConcreteCommand::execute
	receiver.action()
endnote

@enduml

PlantUML version 1.2017.16(Sun Sep 03 12:53:37 CEST 2017)
(GPL source distribution)
Java Runtime: Java(TM) SE Runtime Environment
JVM: Java HotSpot(TM) 64-Bit Server VM
Java Version: 1.8.0_144-b01
Operating System: Mac OS X
OS Version: 10.13.1
Default Encoding: UTF-8
Language: en
Country: US
--></g></svg>