<?xml version="1.0" encoding="UTF-8" standalone="no"?><svg xmlns="http://www.w3.org/2000/svg" xmlns:xlink="http://www.w3.org/1999/xlink" contentScriptType="application/ecmascript" contentStyleType="text/css" height="145px" preserveAspectRatio="none" style="width:305px;height:145px;" version="1.1" viewBox="0 0 305 145" width="305px" zoomAndPan="magnify"><defs><filter height="300%" id="f1fg1j9n4tshtj" width="300%" x="-1" y="-1"><feGaussianBlur result="blurOut" stdDeviation="2.0"/><feColorMatrix in="blurOut" result="blurOut2" type="matrix" values="0 0 0 0 0 0 0 0 0 0 0 0 0 0 0 0 0 0 .4 0"/><feOffset dx="4.0" dy="4.0" in="blurOut2" result="blurOut3"/><feBlend in="SourceGraphic" in2="blurOut3" mode="normal"/></filter></defs><g><!--cluster shipment--><rect fill="#FFFFFF" filter="url(#f1fg1j9n4tshtj)" height="118" style="stroke: #000000; stroke-width: 2.0;" width="280" x="14" y="16"/><text fill="#000000" font-family="sans-serif" font-size="14" font-weight="bold" lengthAdjust="spacingAndGlyphs" textLength="68" x="120" y="31.5352">shipment</text><!--cluster shoebox--><rect fill="#FFFFFF" filter="url(#f1fg1j9n4tshtj)" height="83" style="stroke: #000000; stroke-width: 2.0;" width="82" x="204" y="43"/><text fill="#000000" font-family="sans-serif" font-size="14" font-weight="bold" lengthAdjust="spacingAndGlyphs" textLength="60" x="215" y="58.5352">shoebox</text><!--class Shirt--><rect fill="#FEFECE" filter="url(#f1fg1j9n4tshtj)" height="48" id="Shirt" style="stroke: #A80036; stroke-width: 1.5;" width="57" x="120.5" y="70"/><ellipse cx="135.5" cy="86" fill="#ADD1B2" rx="11" ry="11" style="stroke: #A80036; stroke-width: 1.0;"/><path d="M138.4731,91.6431 Q137.8921,91.9419 137.2529,92.0913 Q136.6138,92.2407 135.9082,92.2407 Q133.4014,92.2407 132.0815,90.5889 Q130.7617,88.937 130.7617,85.8159 Q130.7617,82.6865 132.0815,81.0347 Q133.4014,79.3828 135.9082,79.3828 Q136.6138,79.3828 137.2612,79.5322 Q137.9087,79.6816 138.4731,79.9805 L138.4731,82.7031 Q137.8423,82.1221 137.2488,81.8523 Q136.6553,81.5825 136.0244,81.5825 Q134.6797,81.5825 133.9949,82.6492 Q133.3101,83.7158 133.3101,85.8159 Q133.3101,87.9077 133.9949,88.9744 Q134.6797,90.041 136.0244,90.041 Q136.6553,90.041 137.2488,89.7712 Q137.8423,89.5015 138.4731,88.9204 Z "/><text fill="#000000" font-family="sans-serif" font-size="12" lengthAdjust="spacingAndGlyphs" textLength="25" x="149.5" y="90.5352">Shirt</text><line style="stroke: #A80036; stroke-width: 1.5;" x1="121.5" x2="176.5" y1="102" y2="102"/><line style="stroke: #A80036; stroke-width: 1.5;" x1="121.5" x2="176.5" y1="110" y2="110"/><!--class Pants--><rect fill="#FEFECE" filter="url(#f1fg1j9n4tshtj)" height="48" id="Pants" style="stroke: #A80036; stroke-width: 1.5;" width="63" x="22.5" y="70"/><ellipse cx="37.5" cy="86" fill="#ADD1B2" rx="11" ry="11" style="stroke: #A80036; stroke-width: 1.0;"/><path d="M40.4731,91.6431 Q39.8921,91.9419 39.2529,92.0913 Q38.6138,92.2407 37.9082,92.2407 Q35.4014,92.2407 34.0815,90.5889 Q32.7617,88.937 32.7617,85.8159 Q32.7617,82.6865 34.0815,81.0347 Q35.4014,79.3828 37.9082,79.3828 Q38.6138,79.3828 39.2612,79.5322 Q39.9087,79.6816 40.4731,79.9805 L40.4731,82.7031 Q39.8423,82.1221 39.2488,81.8523 Q38.6553,81.5825 38.0244,81.5825 Q36.6797,81.5825 35.9949,82.6492 Q35.3101,83.7158 35.3101,85.8159 Q35.3101,87.9077 35.9949,88.9744 Q36.6797,90.041 38.0244,90.041 Q38.6553,90.041 39.2488,89.7712 Q39.8423,89.5015 40.4731,88.9204 Z "/><text fill="#000000" font-family="sans-serif" font-size="12" lengthAdjust="spacingAndGlyphs" textLength="31" x="51.5" y="90.5352">Pants</text><line style="stroke: #A80036; stroke-width: 1.5;" x1="23.5" x2="84.5" y1="102" y2="102"/><line style="stroke: #A80036; stroke-width: 1.5;" x1="23.5" x2="84.5" y1="110" y2="110"/><!--class Shoes--><rect fill="#FEFECE" filter="url(#f1fg1j9n4tshtj)" height="48" id="Shoes" style="stroke: #A80036; stroke-width: 1.5;" width="65" x="212.5" y="70"/><ellipse cx="227.5" cy="86" fill="#ADD1B2" rx="11" ry="11" style="stroke: #A80036; stroke-width: 1.0;"/><path d="M230.4731,91.6431 Q229.8921,91.9419 229.2529,92.0913 Q228.6138,92.2407 227.9082,92.2407 Q225.4014,92.2407 224.0815,90.5889 Q222.7617,88.937 222.7617,85.8159 Q222.7617,82.6865 224.0815,81.0347 Q225.4014,79.3828 227.9082,79.3828 Q228.6138,79.3828 229.2612,79.5322 Q229.9087,79.6816 230.4731,79.9805 L230.4731,82.7031 Q229.8423,82.1221 229.2488,81.8523 Q228.6553,81.5825 228.0244,81.5825 Q226.6797,81.5825 225.9949,82.6492 Q225.3101,83.7158 225.3101,85.8159 Q225.3101,87.9077 225.9949,88.9744 Q226.6797,90.041 228.0244,90.041 Q228.6553,90.041 229.2488,89.7712 Q229.8423,89.5015 230.4731,88.9204 Z "/><text fill="#000000" font-family="sans-serif" font-size="12" lengthAdjust="spacingAndGlyphs" textLength="33" x="241.5" y="90.5352">Shoes</text><line style="stroke: #A80036; stroke-width: 1.5;" x1="213.5" x2="276.5" y1="102" y2="102"/><line style="stroke: #A80036; stroke-width: 1.5;" x1="213.5" x2="276.5" y1="110" y2="110"/><!--
@startuml

skinparam packageStyle rectangle

package shipment {
	class Shirt
	class Pants
	package shoebox {
		class Shoes
	}
}

@enduml

PlantUML version 1.2017.16(Sun Sep 03 12:53:37 CEST 2017)
(GPL source distribution)
Java Runtime: Java(TM) SE Runtime Environment
JVM: Java HotSpot(TM) 64-Bit Server VM
Java Version: 1.8.0_144-b01
Operating System: Mac OS X
OS Version: 10.13.1
Default Encoding: UTF-8
Language: en
Country: US
--></g></svg>