<?xml version="1.0" encoding="UTF-8" standalone="no"?><svg xmlns="http://www.w3.org/2000/svg" xmlns:xlink="http://www.w3.org/1999/xlink" contentScriptType="application/ecmascript" contentStyleType="text/css" height="313px" preserveAspectRatio="none" style="width:423px;height:313px;" version="1.1" viewBox="0 0 423 313" width="423px" zoomAndPan="magnify"><defs><filter height="300%" id="f1tyvythatkztp" width="300%" x="-1" y="-1"><feGaussianBlur result="blurOut" stdDeviation="2.0"/><feColorMatrix in="blurOut" result="blurOut2" type="matrix" values="0 0 0 0 0 0 0 0 0 0 0 0 0 0 0 0 0 0 .4 0"/><feOffset dx="4.0" dy="4.0" in="blurOut2" result="blurOut3"/><feBlend in="SourceGraphic" in2="blurOut3" mode="normal"/></filter></defs><g><!--class Aggregate--><rect fill="#FEFECE" filter="url(#f1tyvythatkztp)" height="60.9551" id="Aggregate" style="stroke: #A80036; stroke-width: 1.5;" width="145" x="6" y="14.5"/><ellipse cx="39.9" cy="30.5" fill="#B4A7E5" rx="11" ry="11" style="stroke: #A80036; stroke-width: 1.0;"/><path d="M35.8277,26.2651 L35.8277,24.1069 L43.2071,24.1069 L43.2071,26.2651 L40.7418,26.2651 L40.7418,34.3418 L43.2071,34.3418 L43.2071,36.5 L35.8277,36.5 L35.8277,34.3418 L38.2931,34.3418 L38.2931,26.2651 Z "/><text fill="#000000" font-family="sans-serif" font-size="12" font-style="italic" lengthAdjust="spacingAndGlyphs" textLength="59" x="58.1" y="35.0352">Aggregate</text><rect fill="#FFFFFF" height="16.1328" style="stroke: #000000; stroke-width: 1.0; stroke-dasharray: 2.0,2.0;" width="10" x="144" y="11.5"/><text fill="#000000" font-family="sans-serif" font-size="12" font-style="italic" lengthAdjust="spacingAndGlyphs" textLength="8" x="145" y="24.1016">T</text><line style="stroke: #A80036; stroke-width: 1.5;" x1="7" x2="150" y1="46.5" y2="46.5"/><line style="stroke: #A80036; stroke-width: 1.5;" x1="7" x2="150" y1="54.5" y2="54.5"/><ellipse cx="17" cy="66.4775" fill="#84BE84" rx="3" ry="3" style="stroke: #038048; stroke-width: 1.0;"/><text fill="#000000" font-family="sans-serif" font-size="11" lengthAdjust="spacingAndGlyphs" textLength="119" x="26" y="69.1348">iterator(): Iterator&lt;T&gt;</text><!--class Iterator--><rect fill="#FEFECE" filter="url(#f1tyvythatkztp)" height="73.9102" id="Iterator" style="stroke: #A80036; stroke-width: 1.5;" width="127" x="282" y="8"/><ellipse cx="315.45" cy="24" fill="#B4A7E5" rx="11" ry="11" style="stroke: #A80036; stroke-width: 1.0;"/><path d="M311.3777,19.7651 L311.3777,17.6069 L318.7571,17.6069 L318.7571,19.7651 L316.2918,19.7651 L316.2918,27.8418 L318.7571,27.8418 L318.7571,30 L311.3777,30 L311.3777,27.8418 L313.8431,27.8418 L313.8431,19.7651 Z "/><text fill="#000000" font-family="sans-serif" font-size="12" font-style="italic" lengthAdjust="spacingAndGlyphs" textLength="42" x="333.55" y="28.5352">Iterator</text><rect fill="#FFFFFF" height="16.1328" style="stroke: #000000; stroke-width: 1.0; stroke-dasharray: 2.0,2.0;" width="10" x="402" y="5"/><text fill="#000000" font-family="sans-serif" font-size="12" font-style="italic" lengthAdjust="spacingAndGlyphs" textLength="8" x="403" y="17.6016">T</text><line style="stroke: #A80036; stroke-width: 1.5;" x1="283" x2="408" y1="40" y2="40"/><line style="stroke: #A80036; stroke-width: 1.5;" x1="283" x2="408" y1="48" y2="48"/><ellipse cx="293" cy="59.9775" fill="#84BE84" rx="3" ry="3" style="stroke: #038048; stroke-width: 1.0;"/><text fill="#000000" font-family="sans-serif" font-size="11" lengthAdjust="spacingAndGlyphs" textLength="45" x="302" y="62.6348">next(): T</text><ellipse cx="293" cy="72.9326" fill="#84BE84" rx="3" ry="3" style="stroke: #038048; stroke-width: 1.0;"/><text fill="#000000" font-family="sans-serif" font-size="11" lengthAdjust="spacingAndGlyphs" textLength="101" x="302" y="75.5898">hasNext(): boolean</text><!--entity Client--><rect fill="#FEFECE" filter="url(#f1tyvythatkztp)" height="36.4883" style="stroke: #A80036; stroke-width: 1.5;" width="60" x="186.5" y="27"/><text fill="#000000" font-family="sans-serif" font-size="14" lengthAdjust="spacingAndGlyphs" textLength="40" x="196.5" y="50.5352">Client</text><!--class ConcreteAggregate--><rect fill="#FEFECE" filter="url(#f1tyvythatkztp)" height="60.9551" id="ConcreteAggregate" style="stroke: #A80036; stroke-width: 1.5;" width="154" x="44.5" y="148.5"/><ellipse cx="59.5" cy="164.5" fill="#ADD1B2" rx="11" ry="11" style="stroke: #A80036; stroke-width: 1.0;"/><path d="M62.4731,170.1431 Q61.8921,170.4419 61.2529,170.5913 Q60.6138,170.7407 59.9082,170.7407 Q57.4014,170.7407 56.0815,169.0889 Q54.7617,167.437 54.7617,164.3159 Q54.7617,161.1865 56.0815,159.5347 Q57.4014,157.8828 59.9082,157.8828 Q60.6138,157.8828 61.2612,158.0322 Q61.9087,158.1816 62.4731,158.4805 L62.4731,161.2031 Q61.8423,160.6221 61.2488,160.3523 Q60.6553,160.0825 60.0244,160.0825 Q58.6797,160.0825 57.9949,161.1492 Q57.3101,162.2158 57.3101,164.3159 Q57.3101,166.4077 57.9949,167.4744 Q58.6797,168.541 60.0244,168.541 Q60.6553,168.541 61.2488,168.2712 Q61.8423,168.0015 62.4731,167.4204 Z "/><text fill="#000000" font-family="sans-serif" font-size="12" lengthAdjust="spacingAndGlyphs" textLength="110" x="73.5" y="169.0352">ConcreteAggregate</text><rect fill="#FFFFFF" height="16.1328" style="stroke: #000000; stroke-width: 1.0; stroke-dasharray: 2.0,2.0;" width="10" x="191.5" y="145.5"/><text fill="#000000" font-family="sans-serif" font-size="12" font-style="italic" lengthAdjust="spacingAndGlyphs" textLength="8" x="192.5" y="158.1016">T</text><line style="stroke: #A80036; stroke-width: 1.5;" x1="45.5" x2="197.5" y1="180.5" y2="180.5"/><line style="stroke: #A80036; stroke-width: 1.5;" x1="45.5" x2="197.5" y1="188.5" y2="188.5"/><ellipse cx="55.5" cy="200.4775" fill="#84BE84" rx="3" ry="3" style="stroke: #038048; stroke-width: 1.0;"/><text fill="#000000" font-family="sans-serif" font-size="11" lengthAdjust="spacingAndGlyphs" textLength="119" x="64.5" y="203.1348">iterator(): Iterator&lt;T&gt;</text><polygon fill="#FBFB77" filter="url(#f1tyvythatkztp)" points="8.5,276,8.5,301.3105,234.5,301.3105,234.5,286,224.5,276,8.5,276" style="stroke: #A80036; stroke-width: 1.0;"/><polygon fill="#FBFB77" points="8.5,276,8.5,301.3105,234.5,301.3105,234.5,286,224.5,276,125.5,276,121.5,209.5019,117.5,276,8.5,276" style="stroke: #A80036; stroke-width: 1.0;"/><line style="stroke: #A80036; stroke-width: 1.0;" x1="224.5" x2="224.5" y1="276" y2="286"/><line style="stroke: #A80036; stroke-width: 1.0;" x1="234.5" x2="224.5" y1="286" y2="286"/><text fill="#000000" font-family="sans-serif" font-size="13" lengthAdjust="spacingAndGlyphs" textLength="205" x="14.5" y="293.5684">return new ConcreteIterator(this)</text><!--class ConcreteIterator--><rect fill="#FEFECE" filter="url(#f1tyvythatkztp)" height="73.9102" id="ConcreteIterator" style="stroke: #A80036; stroke-width: 1.5;" width="137" x="255" y="142"/><ellipse cx="270" cy="158" fill="#ADD1B2" rx="11" ry="11" style="stroke: #A80036; stroke-width: 1.0;"/><path d="M272.9731,163.6431 Q272.3921,163.9419 271.7529,164.0913 Q271.1138,164.2407 270.4082,164.2407 Q267.9014,164.2407 266.5815,162.5889 Q265.2617,160.937 265.2617,157.8159 Q265.2617,154.6865 266.5815,153.0347 Q267.9014,151.3828 270.4082,151.3828 Q271.1138,151.3828 271.7612,151.5322 Q272.4087,151.6816 272.9731,151.9805 L272.9731,154.7031 Q272.3423,154.1221 271.7488,153.8523 Q271.1553,153.5825 270.5244,153.5825 Q269.1797,153.5825 268.4949,154.6492 Q267.8101,155.7158 267.8101,157.8159 Q267.8101,159.9077 268.4949,160.9744 Q269.1797,162.041 270.5244,162.041 Q271.1553,162.041 271.7488,161.7712 Q272.3423,161.5015 272.9731,160.9204 Z "/><text fill="#000000" font-family="sans-serif" font-size="12" lengthAdjust="spacingAndGlyphs" textLength="93" x="284" y="162.5352">ConcreteIterator</text><rect fill="#FFFFFF" height="16.1328" style="stroke: #000000; stroke-width: 1.0; stroke-dasharray: 2.0,2.0;" width="10" x="385" y="139"/><text fill="#000000" font-family="sans-serif" font-size="12" font-style="italic" lengthAdjust="spacingAndGlyphs" textLength="8" x="386" y="151.6016">T</text><line style="stroke: #A80036; stroke-width: 1.5;" x1="256" x2="391" y1="174" y2="174"/><line style="stroke: #A80036; stroke-width: 1.5;" x1="256" x2="391" y1="182" y2="182"/><ellipse cx="266" cy="193.9775" fill="#84BE84" rx="3" ry="3" style="stroke: #038048; stroke-width: 1.0;"/><text fill="#000000" font-family="sans-serif" font-size="11" lengthAdjust="spacingAndGlyphs" textLength="45" x="275" y="196.6348">next(): T</text><ellipse cx="266" cy="206.9326" fill="#84BE84" rx="3" ry="3" style="stroke: #038048; stroke-width: 1.0;"/><text fill="#000000" font-family="sans-serif" font-size="11" lengthAdjust="spacingAndGlyphs" textLength="101" x="275" y="209.5898">hasNext(): boolean</text><!--link Aggregate to Client--><path d="M156.2447,45 C166.2666,45 176.2885,45 186.3104,45 " fill="none" id="Aggregate-Client" style="stroke: #A80036; stroke-width: 1.0;"/><polygon fill="#A80036" points="151.0039,45,160.0039,49,156.0039,45,160.0039,41,151.0039,45" style="stroke: #A80036; stroke-width: 1.0;"/><!--link Client to Iterator--><path d="M246.7344,45 C256.7,45 266.6655,45 276.6311,45 " fill="none" id="Client-Iterator" style="stroke: #A80036; stroke-width: 1.0;"/><polygon fill="#A80036" points="281.8425,45,272.8425,41,276.8425,45,272.8425,49,281.8425,45" style="stroke: #A80036; stroke-width: 1.0;"/><!--link Aggregate to ConcreteAggregate--><path d="M94.5316,94.9589 C100.2896,112.9024 106.6081,132.5925 111.6808,148.4007 " fill="none" id="Aggregate-ConcreteAggregate" style="stroke: #A80036; stroke-width: 1.0; stroke-dasharray: 7.0,7.0;"/><polygon fill="none" points="87.8109,96.9247,88.3651,75.7423,101.1414,92.647,87.8109,96.9247" style="stroke: #A80036; stroke-width: 1.0;"/><!--link Iterator to ConcreteIterator--><path d="M336.0539,102.5351 C333.8662,115.8601 331.5949,129.6949 329.5954,141.8737 " fill="none" id="Iterator-ConcreteIterator" style="stroke: #A80036; stroke-width: 1.0; stroke-dasharray: 7.0,7.0;"/><polygon fill="none" points="329.224,100.9282,339.3718,82.3265,343.039,103.1964,329.224,100.9282" style="stroke: #A80036; stroke-width: 1.0;"/><!--link ConcreteAggregate to ConcreteIterator--><path d="M198.8281,179 C217.4964,179 236.1648,179 254.8331,179 " fill="none" id="ConcreteAggregate-ConcreteIterator" style="stroke: #A80036; stroke-width: 1.0;"/><!--
@startuml
allow_mixing


interface Aggregate<T> {
	+ iterator(): Iterator<T>
}

interface Iterator<T> {
	+ next(): T
	+ hasNext(): boolean
}

agent Client
Aggregate <-left- Client
Client -right-> Iterator

class ConcreteAggregate<T> implements Aggregate {
	+ iterator(): Iterator<T>
}

note bottom of ConcreteAggregate
	return new ConcreteIterator(this)
end note

class ConcreteIterator<T> implements Iterator {
	+ next(): T
	+ hasNext(): boolean
}

ConcreteAggregate -right- ConcreteIterator

@enduml

PlantUML version 1.2017.16(Sun Sep 03 12:53:37 CEST 2017)
(GPL source distribution)
Java Runtime: Java(TM) SE Runtime Environment
JVM: Java HotSpot(TM) 64-Bit Server VM
Java Version: 1.8.0_144-b01
Operating System: Mac OS X
OS Version: 10.13.1
Default Encoding: UTF-8
Language: en
Country: US
--></g></svg>