<?xml version="1.0" encoding="UTF-8" standalone="no"?><svg xmlns="http://www.w3.org/2000/svg" xmlns:xlink="http://www.w3.org/1999/xlink" contentScriptType="application/ecmascript" contentStyleType="text/css" height="356px" preserveAspectRatio="none" style="width:381px;height:356px;" version="1.1" viewBox="0 0 381 356" width="381px" zoomAndPan="magnify"><defs><filter height="300%" id="fbjd1pqlmi7vz" width="300%" x="-1" y="-1"><feGaussianBlur result="blurOut" stdDeviation="2.0"/><feColorMatrix in="blurOut" result="blurOut2" type="matrix" values="0 0 0 0 0 0 0 0 0 0 0 0 0 0 0 0 0 0 .4 0"/><feOffset dx="4.0" dy="4.0" in="blurOut2" result="blurOut3"/><feBlend in="SourceGraphic" in2="blurOut3" mode="normal"/></filter></defs><g><!--entity Client--><ellipse cx="44.7877" cy="18" fill="#FEFECE" filter="url(#fbjd1pqlmi7vz)" rx="8" ry="8" style="stroke: #A80036; stroke-width: 2.0;"/><path d="M44.7877,26 L44.7877,53 M31.7877,34 L57.7877,34 M44.7877,53 L31.7877,68 M44.7877,53 L57.7877,68 " fill="#FEFECE" filter="url(#fbjd1pqlmi7vz)" style="stroke: #A80036; stroke-width: 2.0;"/><text fill="#000000" font-family="sans-serif" font-size="14" lengthAdjust="spacingAndGlyphs" textLength="40" x="24.7877" y="88.5352">Client</text><!--class Subject--><rect fill="#FEFECE" filter="url(#fbjd1pqlmi7vz)" height="60.9551" id="Subject" style="stroke: #A80036; stroke-width: 1.5;" width="75" x="100.2877" y="19"/><ellipse cx="115.7377" cy="35" fill="#B4A7E5" rx="11" ry="11" style="stroke: #A80036; stroke-width: 1.0;"/><path d="M111.6654,30.7651 L111.6654,28.6069 L119.0448,28.6069 L119.0448,30.7651 L116.5795,30.7651 L116.5795,38.8418 L119.0448,38.8418 L119.0448,41 L111.6654,41 L111.6654,38.8418 L114.1308,38.8418 L114.1308,30.7651 Z "/><text fill="#000000" font-family="sans-serif" font-size="12" font-style="italic" lengthAdjust="spacingAndGlyphs" textLength="42" x="129.8377" y="39.5352">Subject</text><line style="stroke: #A80036; stroke-width: 1.5;" x1="101.2877" x2="174.2877" y1="51" y2="51"/><line style="stroke: #A80036; stroke-width: 1.5;" x1="101.2877" x2="174.2877" y1="59" y2="59"/><ellipse cx="111.2877" cy="70.9775" fill="#84BE84" rx="3" ry="3" style="stroke: #038048; stroke-width: 1.0;"/><text fill="#000000" font-family="sans-serif" font-size="11" lengthAdjust="spacingAndGlyphs" textLength="49" x="120.2877" y="73.6348">request()</text><!--class RealSubject--><rect fill="#FEFECE" filter="url(#fbjd1pqlmi7vz)" height="60.9551" id="RealSubject" style="stroke: #A80036; stroke-width: 1.5;" width="99" x="88.2877" y="285"/><ellipse cx="103.2877" cy="301" fill="#ADD1B2" rx="11" ry="11" style="stroke: #A80036; stroke-width: 1.0;"/><path d="M106.2608,306.6431 Q105.6798,306.9419 105.0406,307.0913 Q104.4015,307.2407 103.6959,307.2407 Q101.1891,307.2407 99.8692,305.5889 Q98.5494,303.937 98.5494,300.8159 Q98.5494,297.6865 99.8692,296.0347 Q101.1891,294.3828 103.6959,294.3828 Q104.4015,294.3828 105.0489,294.5322 Q105.6964,294.6816 106.2608,294.9805 L106.2608,297.7031 Q105.63,297.1221 105.0365,296.8523 Q104.443,296.5825 103.8121,296.5825 Q102.4674,296.5825 101.7826,297.6492 Q101.0978,298.7158 101.0978,300.8159 Q101.0978,302.9077 101.7826,303.9744 Q102.4674,305.041 103.8121,305.041 Q104.443,305.041 105.0365,304.7712 Q105.63,304.5015 106.2608,303.9204 Z "/><text fill="#000000" font-family="sans-serif" font-size="12" lengthAdjust="spacingAndGlyphs" textLength="67" x="117.2877" y="305.5352">RealSubject</text><line style="stroke: #A80036; stroke-width: 1.5;" x1="89.2877" x2="186.2877" y1="317" y2="317"/><line style="stroke: #A80036; stroke-width: 1.5;" x1="89.2877" x2="186.2877" y1="325" y2="325"/><ellipse cx="99.2877" cy="336.9775" fill="#84BE84" rx="3" ry="3" style="stroke: #038048; stroke-width: 1.0;"/><text fill="#000000" font-family="sans-serif" font-size="11" lengthAdjust="spacingAndGlyphs" textLength="49" x="108.2877" y="339.6348">request()</text><!--class Proxy--><rect fill="#FEFECE" filter="url(#fbjd1pqlmi7vz)" height="73.9102" id="Proxy" style="stroke: #A80036; stroke-width: 1.5;" width="152" x="218.7877" y="151"/><ellipse cx="274.5377" cy="167" fill="#ADD1B2" rx="11" ry="11" style="stroke: #A80036; stroke-width: 1.0;"/><path d="M277.5108,172.6431 Q276.9298,172.9419 276.2906,173.0913 Q275.6515,173.2407 274.9459,173.2407 Q272.4391,173.2407 271.1192,171.5889 Q269.7994,169.937 269.7994,166.8159 Q269.7994,163.6865 271.1192,162.0347 Q272.4391,160.3828 274.9459,160.3828 Q275.6515,160.3828 276.2989,160.5322 Q276.9464,160.6816 277.5108,160.9805 L277.5108,163.7031 Q276.88,163.1221 276.2865,162.8523 Q275.693,162.5825 275.0621,162.5825 Q273.7174,162.5825 273.0326,163.6492 Q272.3478,164.7158 272.3478,166.8159 Q272.3478,168.9077 273.0326,169.9744 Q273.7174,171.041 275.0621,171.041 Q275.693,171.041 276.2865,170.7712 Q276.88,170.5015 277.5108,169.9204 Z "/><text fill="#000000" font-family="sans-serif" font-size="12" lengthAdjust="spacingAndGlyphs" textLength="32" x="295.0377" y="171.5352">Proxy</text><line style="stroke: #A80036; stroke-width: 1.5;" x1="219.7877" x2="369.7877" y1="183" y2="183"/><rect fill="none" height="6" style="stroke: #C82930; stroke-width: 1.0;" width="6" x="226.7877" y="191.9775"/><text fill="#000000" font-family="sans-serif" font-size="11" lengthAdjust="spacingAndGlyphs" textLength="126" x="238.7877" y="197.6348">realSubject: RealSubject</text><line style="stroke: #A80036; stroke-width: 1.5;" x1="219.7877" x2="369.7877" y1="203.9551" y2="203.9551"/><ellipse cx="229.7877" cy="215.9326" fill="#84BE84" rx="3" ry="3" style="stroke: #038048; stroke-width: 1.0;"/><text fill="#000000" font-family="sans-serif" font-size="11" lengthAdjust="spacingAndGlyphs" textLength="49" x="238.7877" y="218.5898">request()</text><polygon fill="#FBFB77" filter="url(#fbjd1pqlmi7vz)" points="34.2877,170.5,34.2877,195.8105,183.2877,195.8105,183.2877,180.5,173.2877,170.5,34.2877,170.5" style="stroke: #A80036; stroke-width: 1.0;"/><polygon fill="#FBFB77" points="34.2877,170.5,34.2877,195.8105,183.2877,195.8105,183.2877,188.5,222.7877,214.4326,183.2877,180.5,183.2877,180.5,173.2877,170.5,34.2877,170.5" style="stroke: #A80036; stroke-width: 1.0;"/><line style="stroke: #A80036; stroke-width: 1.0;" x1="173.2877" x2="173.2877" y1="170.5" y2="180.5"/><line style="stroke: #A80036; stroke-width: 1.0;" x1="183.2877" x2="173.2877" y1="180.5" y2="180.5"/><text fill="#000000" font-family="sans-serif" font-size="13" lengthAdjust="spacingAndGlyphs" textLength="128" x="40.2877" y="188.0684">realSubject.request()</text><!--link Client to Subject--><path d="M65.1315,49.5 C75.0405,49.5 84.9496,49.5 94.8587,49.5 " fill="none" id="Client-Subject" style="stroke: #A80036; stroke-width: 1.0;"/><polygon fill="#A80036" points="100.0405,49.5,91.0405,45.5,95.0405,49.5,91.0405,53.5,100.0405,49.5" style="stroke: #A80036; stroke-width: 1.0;"/><!--link Subject to RealSubject--><path d="M84.1357,91.0506 C53.6061,115.2848 20.6682,142.6798 16.7877,151 C2.886,180.8064 2.0599,195.593 16.7877,225 C31.7653,254.9057 61.8379,277.4711 88.2543,292.5897 " fill="none" id="Subject-RealSubject" style="stroke: #A80036; stroke-width: 1.0; stroke-dasharray: 7.0,7.0;"/><polygon fill="none" points="80.1357,85.2908,100.1804,78.4197,88.7956,96.2911,80.1357,85.2908" style="stroke: #A80036; stroke-width: 1.0;"/><!--link Subject to Proxy--><path d="M187.8967,93.7045 C208.8062,112.1501 232.8215,133.3355 252.7855,150.9471 " fill="none" id="Subject-Proxy" style="stroke: #A80036; stroke-width: 1.0; stroke-dasharray: 7.0,7.0;"/><polygon fill="none" points="182.9985,98.7179,172.6311,80.2376,192.2601,88.2192,182.9985,98.7179" style="stroke: #A80036; stroke-width: 1.0;"/><!--link Proxy to RealSubject--><path d="M248.9548,225.221 C226.9716,243.0736 200.8285,264.3044 179.4193,281.6909 " fill="none" id="Proxy-RealSubject" style="stroke: #A80036; stroke-width: 1.0;"/><polygon fill="#A80036" points="175.4789,284.8909,184.9869,282.3223,179.3602,281.7389,179.9436,276.1122,175.4789,284.8909" style="stroke: #A80036; stroke-width: 1.0;"/><!--link Proxy$$$LEFT to Proxy--><!--
@startuml
allow_mixing

'skinparam linetype ortho

actor Client

interface Subject {
	+ request()
}

Client -right-> Subject

class RealSubject implements Subject {
	+ request()
}

class Proxy implements Subject {
	- realSubject: RealSubject
	+ request()
}

Proxy - -> RealSubject

note left of Proxy::request
	realSubject.request()
endnote

@enduml

PlantUML version 1.2017.16(Sun Sep 03 12:53:37 CEST 2017)
(GPL source distribution)
Java Runtime: Java(TM) SE Runtime Environment
JVM: Java HotSpot(TM) 64-Bit Server VM
Java Version: 1.8.0_144-b01
Operating System: Mac OS X
OS Version: 10.13.1
Default Encoding: UTF-8
Language: en
Country: US
--></g></svg>