<?xml version="1.0" encoding="UTF-8" standalone="no"?><svg xmlns="http://www.w3.org/2000/svg" xmlns:xlink="http://www.w3.org/1999/xlink" contentScriptType="application/ecmascript" contentStyleType="text/css" height="308px" preserveAspectRatio="none" style="width:497px;height:308px;" version="1.1" viewBox="0 0 497 308" width="497px" zoomAndPan="magnify"><defs><filter height="300%" id="f1lxer1ib12ms" width="300%" x="-1" y="-1"><feGaussianBlur result="blurOut" stdDeviation="2.0"/><feColorMatrix in="blurOut" result="blurOut2" type="matrix" values="0 0 0 0 0 0 0 0 0 0 0 0 0 0 0 0 0 0 .4 0"/><feOffset dx="4.0" dy="4.0" in="blurOut2" result="blurOut3"/><feBlend in="SourceGraphic" in2="blurOut3" mode="normal"/></filter></defs><g><!--class Context--><rect fill="#FEFECE" filter="url(#f1lxer1ib12ms)" height="48" id="Context" style="stroke: #A80036; stroke-width: 1.5;" width="76" x="208.5" y="8"/><ellipse cx="223.5" cy="24" fill="#ADD1B2" rx="11" ry="11" style="stroke: #A80036; stroke-width: 1.0;"/><path d="M226.4731,29.6431 Q225.8921,29.9419 225.2529,30.0913 Q224.6138,30.2407 223.9082,30.2407 Q221.4014,30.2407 220.0815,28.5889 Q218.7617,26.937 218.7617,23.8159 Q218.7617,20.6865 220.0815,19.0347 Q221.4014,17.3828 223.9082,17.3828 Q224.6138,17.3828 225.2612,17.5322 Q225.9087,17.6816 226.4731,17.9805 L226.4731,20.7031 Q225.8423,20.1221 225.2488,19.8523 Q224.6553,19.5825 224.0244,19.5825 Q222.6797,19.5825 221.9949,20.6492 Q221.3101,21.7158 221.3101,23.8159 Q221.3101,25.9077 221.9949,26.9744 Q222.6797,28.041 224.0244,28.041 Q224.6553,28.041 225.2488,27.7712 Q225.8423,27.5015 226.4731,26.9204 Z "/><text fill="#000000" font-family="sans-serif" font-size="12" lengthAdjust="spacingAndGlyphs" textLength="44" x="237.5" y="28.5352">Context</text><line style="stroke: #A80036; stroke-width: 1.5;" x1="209.5" x2="283.5" y1="40" y2="40"/><line style="stroke: #A80036; stroke-width: 1.5;" x1="209.5" x2="283.5" y1="48" y2="48"/><!--class Strategy--><rect fill="#FEFECE" filter="url(#f1lxer1ib12ms)" height="60.9551" id="Strategy" style="stroke: #A80036; stroke-width: 1.5;" width="86" x="203.5" y="116"/><ellipse cx="222.1" cy="132" fill="#B4A7E5" rx="11" ry="11" style="stroke: #A80036; stroke-width: 1.0;"/><path d="M218.0277,127.7651 L218.0277,125.6069 L225.4071,125.6069 L225.4071,127.7651 L222.9418,127.7651 L222.9418,135.8418 L225.4071,135.8418 L225.4071,138 L218.0277,138 L218.0277,135.8418 L220.4931,135.8418 L220.4931,127.7651 Z "/><text fill="#000000" font-family="sans-serif" font-size="12" font-style="italic" lengthAdjust="spacingAndGlyphs" textLength="46" x="236.9" y="136.5352">Strategy</text><line style="stroke: #A80036; stroke-width: 1.5;" x1="204.5" x2="288.5" y1="148" y2="148"/><line style="stroke: #A80036; stroke-width: 1.5;" x1="204.5" x2="288.5" y1="156" y2="156"/><ellipse cx="214.5" cy="167.9775" fill="#84BE84" rx="3" ry="3" style="stroke: #038048; stroke-width: 1.0;"/><text fill="#000000" font-family="sans-serif" font-size="11" lengthAdjust="spacingAndGlyphs" textLength="60" x="223.5" y="170.6348">algorithm()</text><!--class ConcreteStrategyA--><rect fill="#FEFECE" filter="url(#f1lxer1ib12ms)" height="60.9551" id="ConcreteStrategyA" style="stroke: #A80036; stroke-width: 1.5;" width="137" x="6" y="237"/><ellipse cx="21" cy="253" fill="#ADD1B2" rx="11" ry="11" style="stroke: #A80036; stroke-width: 1.0;"/><path d="M23.9731,258.6431 Q23.3921,258.9419 22.7529,259.0913 Q22.1138,259.2407 21.4082,259.2407 Q18.9014,259.2407 17.5815,257.5889 Q16.2617,255.937 16.2617,252.8159 Q16.2617,249.6865 17.5815,248.0347 Q18.9014,246.3828 21.4082,246.3828 Q22.1138,246.3828 22.7612,246.5322 Q23.4087,246.6816 23.9731,246.9805 L23.9731,249.7031 Q23.3423,249.1221 22.7488,248.8523 Q22.1553,248.5825 21.5244,248.5825 Q20.1797,248.5825 19.4949,249.6492 Q18.8101,250.7158 18.8101,252.8159 Q18.8101,254.9077 19.4949,255.9744 Q20.1797,257.041 21.5244,257.041 Q22.1553,257.041 22.7488,256.7712 Q23.3423,256.5015 23.9731,255.9204 Z "/><text fill="#000000" font-family="sans-serif" font-size="12" lengthAdjust="spacingAndGlyphs" textLength="105" x="35" y="257.5352">ConcreteStrategyA</text><line style="stroke: #A80036; stroke-width: 1.5;" x1="7" x2="142" y1="269" y2="269"/><line style="stroke: #A80036; stroke-width: 1.5;" x1="7" x2="142" y1="277" y2="277"/><ellipse cx="17" cy="288.9775" fill="#84BE84" rx="3" ry="3" style="stroke: #038048; stroke-width: 1.0;"/><text fill="#000000" font-family="sans-serif" font-size="11" lengthAdjust="spacingAndGlyphs" textLength="60" x="26" y="291.6348">algorithm()</text><!--class ConcreteStrategyC--><rect fill="#FEFECE" filter="url(#f1lxer1ib12ms)" height="60.9551" id="ConcreteStrategyC" style="stroke: #A80036; stroke-width: 1.5;" width="137" x="178" y="237"/><ellipse cx="193" cy="253" fill="#ADD1B2" rx="11" ry="11" style="stroke: #A80036; stroke-width: 1.0;"/><path d="M195.9731,258.6431 Q195.3921,258.9419 194.7529,259.0913 Q194.1138,259.2407 193.4082,259.2407 Q190.9014,259.2407 189.5815,257.5889 Q188.2617,255.937 188.2617,252.8159 Q188.2617,249.6865 189.5815,248.0347 Q190.9014,246.3828 193.4082,246.3828 Q194.1138,246.3828 194.7612,246.5322 Q195.4087,246.6816 195.9731,246.9805 L195.9731,249.7031 Q195.3423,249.1221 194.7488,248.8523 Q194.1553,248.5825 193.5244,248.5825 Q192.1797,248.5825 191.4949,249.6492 Q190.8101,250.7158 190.8101,252.8159 Q190.8101,254.9077 191.4949,255.9744 Q192.1797,257.041 193.5244,257.041 Q194.1553,257.041 194.7488,256.7712 Q195.3423,256.5015 195.9731,255.9204 Z "/><text fill="#000000" font-family="sans-serif" font-size="12" lengthAdjust="spacingAndGlyphs" textLength="105" x="207" y="257.5352">ConcreteStrategyC</text><line style="stroke: #A80036; stroke-width: 1.5;" x1="179" x2="314" y1="269" y2="269"/><line style="stroke: #A80036; stroke-width: 1.5;" x1="179" x2="314" y1="277" y2="277"/><ellipse cx="189" cy="288.9775" fill="#84BE84" rx="3" ry="3" style="stroke: #038048; stroke-width: 1.0;"/><text fill="#000000" font-family="sans-serif" font-size="11" lengthAdjust="spacingAndGlyphs" textLength="60" x="198" y="291.6348">algorithm()</text><!--class ConcreteStrategyB--><rect fill="#FEFECE" filter="url(#f1lxer1ib12ms)" height="60.9551" id="ConcreteStrategyB" style="stroke: #A80036; stroke-width: 1.5;" width="136" x="350.5" y="237"/><ellipse cx="365.5" cy="253" fill="#ADD1B2" rx="11" ry="11" style="stroke: #A80036; stroke-width: 1.0;"/><path d="M368.4731,258.6431 Q367.8921,258.9419 367.2529,259.0913 Q366.6138,259.2407 365.9082,259.2407 Q363.4014,259.2407 362.0815,257.5889 Q360.7617,255.937 360.7617,252.8159 Q360.7617,249.6865 362.0815,248.0347 Q363.4014,246.3828 365.9082,246.3828 Q366.6138,246.3828 367.2612,246.5322 Q367.9087,246.6816 368.4731,246.9805 L368.4731,249.7031 Q367.8423,249.1221 367.2488,248.8523 Q366.6553,248.5825 366.0244,248.5825 Q364.6797,248.5825 363.9949,249.6492 Q363.3101,250.7158 363.3101,252.8159 Q363.3101,254.9077 363.9949,255.9744 Q364.6797,257.041 366.0244,257.041 Q366.6553,257.041 367.2488,256.7712 Q367.8423,256.5015 368.4731,255.9204 Z "/><text fill="#000000" font-family="sans-serif" font-size="12" lengthAdjust="spacingAndGlyphs" textLength="104" x="379.5" y="257.5352">ConcreteStrategyB</text><line style="stroke: #A80036; stroke-width: 1.5;" x1="351.5" x2="485.5" y1="269" y2="269"/><line style="stroke: #A80036; stroke-width: 1.5;" x1="351.5" x2="485.5" y1="277" y2="277"/><ellipse cx="361.5" cy="288.9775" fill="#84BE84" rx="3" ry="3" style="stroke: #038048; stroke-width: 1.0;"/><text fill="#000000" font-family="sans-serif" font-size="11" lengthAdjust="spacingAndGlyphs" textLength="60" x="370.5" y="291.6348">algorithm()</text><!--link Context to Strategy--><path d="M246.5,69.003 C246.5,69.003 246.5,102.9818 246.5,102.9818 " fill="none" id="Context-Strategy" style="stroke: #A80036; stroke-width: 1.0;"/><polygon fill="#A80036" points="246.5,115.9818,250.5,106.9818,246.5,110.9818,242.5,106.9818,246.5,115.9818" style="stroke: #A80036; stroke-width: 1.0;"/><line style="stroke: #A80036; stroke-width: 1.0;" x1="246.5" x2="246.5" y1="110.9818" y2="102.9818"/><polygon fill="#FFFFFF" points="246.5,56.003,242.5,62.003,246.5,68.003,250.5,62.003,246.5,56.003" style="stroke: #A80036; stroke-width: 1.0;"/><!--link Strategy to ConcreteStrategyA--><path d="M183.0971,147 C183.0971,147 74.5,147 74.5,147 C74.5,147 74.5,201.0798 74.5,236.781 " fill="none" id="Strategy-ConcreteStrategyA" style="stroke: #A80036; stroke-width: 1.0; stroke-dasharray: 7.0,7.0;"/><polygon fill="none" points="183.0972,139.9999,203.0971,147,183.0971,153.9999,183.0972,139.9999" style="stroke: #A80036; stroke-width: 1.0;"/><!--link Strategy to ConcreteStrategyC--><path d="M246.5,197.0334 C246.5,197.0334 246.5,236.9764 246.5,236.9764 " fill="none" id="Strategy-ConcreteStrategyC" style="stroke: #A80036; stroke-width: 1.0; stroke-dasharray: 7.0,7.0;"/><polygon fill="none" points="239.5001,197.0334,246.5,177.0334,253.5001,197.0334,239.5001,197.0334" style="stroke: #A80036; stroke-width: 1.0;"/><!--link Strategy to ConcreteStrategyB--><path d="M309.9029,147 C309.9029,147 418.5,147 418.5,147 C418.5,147 418.5,201.0798 418.5,236.781 " fill="none" id="Strategy-ConcreteStrategyB" style="stroke: #A80036; stroke-width: 1.0; stroke-dasharray: 7.0,7.0;"/><polygon fill="none" points="309.9029,153.9999,289.9029,147,309.9028,139.9999,309.9029,153.9999" style="stroke: #A80036; stroke-width: 1.0;"/><!--
@startuml

skinparam linetype ortho

class Context

interface Strategy {
	+ algorithm()
}

Context o- -> Strategy

class ConcreteStrategyA implements Strategy {
	+ algorithm()
}

class ConcreteStrategyC implements Strategy {
	+ algorithm()
}

class ConcreteStrategyB implements Strategy {
	+ algorithm()
}

@enduml

PlantUML version 1.2017.16(Sun Sep 03 12:53:37 CEST 2017)
(GPL source distribution)
Java Runtime: Java(TM) SE Runtime Environment
JVM: Java HotSpot(TM) 64-Bit Server VM
Java Version: 1.8.0_144-b01
Operating System: Mac OS X
OS Version: 10.13.1
Default Encoding: UTF-8
Language: en
Country: US
--></g></svg>