<?xml version="1.0" encoding="UTF-8" standalone="no"?><svg xmlns="http://www.w3.org/2000/svg" xmlns:xlink="http://www.w3.org/1999/xlink" contentScriptType="application/ecmascript" contentStyleType="text/css" height="283px" preserveAspectRatio="none" style="width:343px;height:283px;" version="1.1" viewBox="0 0 343 283" width="343px" zoomAndPan="magnify"><defs><filter height="300%" id="fiwcdypogtpbg" width="300%" x="-1" y="-1"><feGaussianBlur result="blurOut" stdDeviation="2.0"/><feColorMatrix in="blurOut" result="blurOut2" type="matrix" values="0 0 0 0 0 0 0 0 0 0 0 0 0 0 0 0 0 0 .4 0"/><feOffset dx="4.0" dy="4.0" in="blurOut2" result="blurOut3"/><feBlend in="SourceGraphic" in2="blurOut3" mode="normal"/></filter></defs><g><!--class List--><rect fill="#FEFECE" filter="url(#fiwcdypogtpbg)" height="48" id="List" style="stroke: #A80036; stroke-width: 1.5;" width="51" x="145" y="8"/><ellipse cx="160" cy="24" fill="#B4A7E5" rx="11" ry="11" style="stroke: #A80036; stroke-width: 1.0;"/><path d="M155.9277,19.7651 L155.9277,17.6069 L163.3071,17.6069 L163.3071,19.7651 L160.8418,19.7651 L160.8418,27.8418 L163.3071,27.8418 L163.3071,30 L155.9277,30 L155.9277,27.8418 L158.3931,27.8418 L158.3931,19.7651 Z "/><text fill="#000000" font-family="sans-serif" font-size="12" font-style="italic" lengthAdjust="spacingAndGlyphs" textLength="19" x="174" y="28.5352">List</text><line style="stroke: #A80036; stroke-width: 1.5;" x1="146" x2="195" y1="40" y2="40"/><line style="stroke: #A80036; stroke-width: 1.5;" x1="146" x2="195" y1="48" y2="48"/><!--class List<Number>--><rect fill="#FEFECE" filter="url(#fiwcdypogtpbg)" height="48" id="List&lt;Number&gt;" style="stroke: #A80036; stroke-width: 1.5;" width="118" x="36.5" y="116"/><ellipse cx="51.5" cy="132" fill="#B4A7E5" rx="11" ry="11" style="stroke: #A80036; stroke-width: 1.0;"/><path d="M47.4277,127.7651 L47.4277,125.6069 L54.8071,125.6069 L54.8071,127.7651 L52.3418,127.7651 L52.3418,135.8418 L54.8071,135.8418 L54.8071,138 L47.4277,138 L47.4277,135.8418 L49.8931,135.8418 L49.8931,127.7651 Z "/><text fill="#000000" font-family="sans-serif" font-size="12" font-style="italic" lengthAdjust="spacingAndGlyphs" textLength="86" x="65.5" y="136.5352">List&lt;Number&gt;</text><line style="stroke: #A80036; stroke-width: 1.5;" x1="37.5" x2="153.5" y1="148" y2="148"/><line style="stroke: #A80036; stroke-width: 1.5;" x1="37.5" x2="153.5" y1="156" y2="156"/><!--class List<Integer>--><rect fill="#FEFECE" filter="url(#fiwcdypogtpbg)" height="48" id="List&lt;Integer&gt;" style="stroke: #A80036; stroke-width: 1.5;" width="111" x="198" y="116"/><ellipse cx="213" cy="132" fill="#B4A7E5" rx="11" ry="11" style="stroke: #A80036; stroke-width: 1.0;"/><path d="M208.9277,127.7651 L208.9277,125.6069 L216.3071,125.6069 L216.3071,127.7651 L213.8418,127.7651 L213.8418,135.8418 L216.3071,135.8418 L216.3071,138 L208.9277,138 L208.9277,135.8418 L211.3931,135.8418 L211.3931,127.7651 Z "/><text fill="#000000" font-family="sans-serif" font-size="12" font-style="italic" lengthAdjust="spacingAndGlyphs" textLength="79" x="227" y="136.5352">List&lt;Integer&gt;</text><line style="stroke: #A80036; stroke-width: 1.5;" x1="199" x2="308" y1="148" y2="148"/><line style="stroke: #A80036; stroke-width: 1.5;" x1="199" x2="308" y1="156" y2="156"/><!--class ArrayList<Number>--><rect fill="#FEFECE" filter="url(#fiwcdypogtpbg)" height="48" id="ArrayList&lt;Number&gt;" style="stroke: #A80036; stroke-width: 1.5;" width="149" x="6" y="224"/><ellipse cx="21" cy="240" fill="#ADD1B2" rx="11" ry="11" style="stroke: #A80036; stroke-width: 1.0;"/><path d="M23.9731,245.6431 Q23.3921,245.9419 22.7529,246.0913 Q22.1138,246.2407 21.4082,246.2407 Q18.9014,246.2407 17.5815,244.5889 Q16.2617,242.937 16.2617,239.8159 Q16.2617,236.6865 17.5815,235.0347 Q18.9014,233.3828 21.4082,233.3828 Q22.1138,233.3828 22.7612,233.5322 Q23.4087,233.6816 23.9731,233.9805 L23.9731,236.7031 Q23.3423,236.1221 22.7488,235.8523 Q22.1553,235.5825 21.5244,235.5825 Q20.1797,235.5825 19.4949,236.6492 Q18.8101,237.7158 18.8101,239.8159 Q18.8101,241.9077 19.4949,242.9744 Q20.1797,244.041 21.5244,244.041 Q22.1553,244.041 22.7488,243.7712 Q23.3423,243.5015 23.9731,242.9204 Z "/><text fill="#000000" font-family="sans-serif" font-size="12" lengthAdjust="spacingAndGlyphs" textLength="117" x="35" y="244.5352">ArrayList&lt;Number&gt;</text><line style="stroke: #A80036; stroke-width: 1.5;" x1="7" x2="154" y1="256" y2="256"/><line style="stroke: #A80036; stroke-width: 1.5;" x1="7" x2="154" y1="264" y2="264"/><!--class ArrayList<Integer>--><rect fill="#FEFECE" filter="url(#fiwcdypogtpbg)" height="48" id="ArrayList&lt;Integer&gt;" style="stroke: #A80036; stroke-width: 1.5;" width="142" x="190.5" y="224"/><ellipse cx="205.5" cy="240" fill="#ADD1B2" rx="11" ry="11" style="stroke: #A80036; stroke-width: 1.0;"/><path d="M208.4731,245.6431 Q207.8921,245.9419 207.2529,246.0913 Q206.6138,246.2407 205.9082,246.2407 Q203.4014,246.2407 202.0815,244.5889 Q200.7617,242.937 200.7617,239.8159 Q200.7617,236.6865 202.0815,235.0347 Q203.4014,233.3828 205.9082,233.3828 Q206.6138,233.3828 207.2612,233.5322 Q207.9087,233.6816 208.4731,233.9805 L208.4731,236.7031 Q207.8423,236.1221 207.2488,235.8523 Q206.6553,235.5825 206.0244,235.5825 Q204.6797,235.5825 203.9949,236.6492 Q203.3101,237.7158 203.3101,239.8159 Q203.3101,241.9077 203.9949,242.9744 Q204.6797,244.041 206.0244,244.041 Q206.6553,244.041 207.2488,243.7712 Q207.8423,243.5015 208.4731,242.9204 Z "/><text fill="#000000" font-family="sans-serif" font-size="12" lengthAdjust="spacingAndGlyphs" textLength="110" x="219.5" y="244.5352">ArrayList&lt;Integer&gt;</text><line style="stroke: #A80036; stroke-width: 1.5;" x1="191.5" x2="331.5" y1="256" y2="256"/><line style="stroke: #A80036; stroke-width: 1.5;" x1="191.5" x2="331.5" y1="264" y2="264"/><!--link List to List<Number>--><path d="M142.077,72.9291 C132.025,87.4039 121.0473,103.2119 112.2753,115.8436 " fill="none" id="List-List&lt;Number&gt;" style="stroke: #A80036; stroke-width: 1.0;"/><polygon fill="none" points="136.511,68.6719,153.6685,56.2373,148.0102,76.6575,136.511,68.6719" style="stroke: #A80036; stroke-width: 1.0;"/><!--link List to List<Integer>--><path d="M201.5884,72.4524 C212.8116,87.0561 225.121,103.073 234.9353,115.8436 " fill="none" id="List-List&lt;Integer&gt;" style="stroke: #A80036; stroke-width: 1.0;"/><polygon fill="none" points="195.7637,76.3608,189.1268,56.2373,206.8643,67.8298,195.7637,76.3608" style="stroke: #A80036; stroke-width: 1.0;"/><!--link List<Number> to ArrayList<Number>--><path d="M89.3485,184.2911 C87.4698,197.8171 85.4745,212.1835 83.8551,223.8436 " fill="none" id="List&lt;Number&gt;-ArrayList&lt;Number&gt;" style="stroke: #A80036; stroke-width: 1.0;"/><polygon fill="none" points="82.4488,183.0841,92.1337,164.2373,96.3157,185.0102,82.4488,183.0841" style="stroke: #A80036; stroke-width: 1.0;"/><!--link List<Integer> to ArrayList<Integer>--><path d="M256.7808,184.2911 C257.7827,197.8171 258.8469,212.1835 259.7106,223.8436 " fill="none" id="List&lt;Integer&gt;-ArrayList&lt;Integer&gt;" style="stroke: #A80036; stroke-width: 1.0;"/><polygon fill="none" points="249.792,184.6998,255.2954,164.2373,263.7538,183.6655,249.792,184.6998" style="stroke: #A80036; stroke-width: 1.0;"/><!--
@startuml
interface List {
	
}

interface "List<Number>" extends List {
	
}

interface "List<Integer>" extends List {
	
}

class "ArrayList<Number>" {
	
}

class "ArrayList<Integer>" {
	
}

"List<Number>" <|- - "ArrayList<Number>"
"List<Integer>" <|- - "ArrayList<Integer>"
@enduml

PlantUML version 1.2017.16(Sun Sep 03 12:53:37 CEST 2017)
(GPL source distribution)
Java Runtime: Java(TM) SE Runtime Environment
JVM: Java HotSpot(TM) 64-Bit Server VM
Java Version: 1.8.0_144-b01
Operating System: Mac OS X
OS Version: 10.12.6
Default Encoding: UTF-8
Language: en
Country: US
--></g></svg>