<?xml version="1.0" encoding="UTF-8" standalone="no"?><svg xmlns="http://www.w3.org/2000/svg" xmlns:xlink="http://www.w3.org/1999/xlink" contentScriptType="application/ecmascript" contentStyleType="text/css" height="360px" preserveAspectRatio="none" style="width:371px;height:360px;" version="1.1" viewBox="0 0 371 360" width="371px" zoomAndPan="magnify"><defs><filter height="300%" id="f1hidecpo7coir" width="300%" x="-1" y="-1"><feGaussianBlur result="blurOut" stdDeviation="2.0"/><feColorMatrix in="blurOut" result="blurOut2" type="matrix" values="0 0 0 0 0 0 0 0 0 0 0 0 0 0 0 0 0 0 .4 0"/><feOffset dx="4.0" dy="4.0" in="blurOut2" result="blurOut3"/><feBlend in="SourceGraphic" in2="blurOut3" mode="normal"/></filter></defs><g><!--class Message--><rect fill="#FEFECE" filter="url(#f1hidecpo7coir)" height="60.9551" id="Message" style="stroke: #A80036; stroke-width: 1.5;" width="93" x="97.5" y="8"/><ellipse cx="117.45" cy="24" fill="#ADD1B2" rx="11" ry="11" style="stroke: #A80036; stroke-width: 1.0;"/><path d="M119.9231,30.1431 Q119.3421,30.4419 118.7029,30.5913 Q118.0638,30.7407 117.3582,30.7407 Q114.8514,30.7407 113.5315,29.0889 Q112.2117,27.437 112.2117,24.3159 Q112.2117,21.1865 113.5315,19.5347 Q114.8514,17.8828 117.3582,17.8828 Q118.0638,17.8828 118.7112,18.0322 Q119.3587,18.1816 119.9231,18.4805 L119.9231,21.2031 Q119.2923,20.6221 118.6988,20.3523 Q118.1053,20.0825 117.4744,20.0825 Q116.1297,20.0825 115.4449,21.1492 Q114.7601,22.2158 114.7601,24.3159 Q114.7601,26.4077 115.4449,27.4744 Q116.1297,28.541 117.4744,28.541 Q118.1053,28.541 118.6988,28.2712 Q119.2923,28.0015 119.9231,27.4204 Z "/><text fill="#000000" font-family="sans-serif" font-size="12" lengthAdjust="spacingAndGlyphs" textLength="50" x="132.55" y="28.5352">Message</text><line style="stroke: #A80036; stroke-width: 1.5;" x1="98.5" x2="189.5" y1="40" y2="40"/><line style="stroke: #A80036; stroke-width: 1.5;" x1="98.5" x2="189.5" y1="48" y2="48"/><ellipse cx="108.5" cy="59.9775" fill="#84BE84" rx="3" ry="3" style="stroke: #038048; stroke-width: 1.0;"/><text fill="#000000" font-family="sans-serif" font-size="11" lengthAdjust="spacingAndGlyphs" textLength="67" x="117.5" y="62.6348">text(): String</text><!--class Escalatable--><rect fill="#FEFECE" filter="url(#f1hidecpo7coir)" height="60.9551" id="Escalatable" style="stroke: #A80036; stroke-width: 1.5;" width="122" x="238" y="8"/><ellipse cx="264.25" cy="24" fill="#B4A7E5" rx="11" ry="11" style="stroke: #A80036; stroke-width: 1.0;"/><path d="M260.6777,20.2651 L260.6777,18.1069 L268.0571,18.1069 L268.0571,20.2651 L265.5918,20.2651 L265.5918,28.3418 L268.0571,28.3418 L268.0571,30.5 L260.6777,30.5 L260.6777,28.3418 L263.1431,28.3418 L263.1431,20.2651 Z "/><text fill="#000000" font-family="sans-serif" font-size="12" font-style="italic" lengthAdjust="spacingAndGlyphs" textLength="65" x="280.75" y="28.5352">Escalatable</text><line style="stroke: #A80036; stroke-width: 1.5;" x1="239" x2="359" y1="40" y2="40"/><line style="stroke: #A80036; stroke-width: 1.5;" x1="239" x2="359" y1="48" y2="48"/><ellipse cx="249" cy="59.9775" fill="#84BE84" rx="3" ry="3" style="stroke: #038048; stroke-width: 1.0;"/><text fill="#000000" font-family="sans-serif" font-size="11" lengthAdjust="spacingAndGlyphs" textLength="96" x="258" y="62.6348">escalated(): String</text><!--class EscalatedMessage--><rect fill="#FEFECE" filter="url(#f1hidecpo7coir)" height="73.9102" id="EscalatedMessage" style="stroke: #A80036; stroke-width: 1.5;" width="137" x="169.5" y="129"/><ellipse cx="184.5" cy="145" fill="#ADD1B2" rx="11" ry="11" style="stroke: #A80036; stroke-width: 1.0;"/><path d="M186.9731,151.1431 Q186.3921,151.4419 185.7529,151.5913 Q185.1138,151.7407 184.4082,151.7407 Q181.9014,151.7407 180.5815,150.0889 Q179.2617,148.437 179.2617,145.3159 Q179.2617,142.1865 180.5815,140.5347 Q181.9014,138.8828 184.4082,138.8828 Q185.1138,138.8828 185.7612,139.0322 Q186.4087,139.1816 186.9731,139.4805 L186.9731,142.2031 Q186.3423,141.6221 185.7488,141.3523 Q185.1553,141.0825 184.5244,141.0825 Q183.1797,141.0825 182.4949,142.1492 Q181.8101,143.2158 181.8101,145.3159 Q181.8101,147.4077 182.4949,148.4744 Q183.1797,149.541 184.5244,149.541 Q185.1553,149.541 185.7488,149.2712 Q186.3423,149.0015 186.9731,148.4204 Z "/><text fill="#000000" font-family="sans-serif" font-size="12" lengthAdjust="spacingAndGlyphs" textLength="105" x="198.5" y="149.5352">EscalatedMessage</text><line style="stroke: #A80036; stroke-width: 1.5;" x1="170.5" x2="305.5" y1="161" y2="161"/><line style="stroke: #A80036; stroke-width: 1.5;" x1="170.5" x2="305.5" y1="169" y2="169"/><ellipse cx="180.5" cy="180.9775" fill="#84BE84" rx="3" ry="3" style="stroke: #038048; stroke-width: 1.0;"/><text fill="#000000" font-family="sans-serif" font-size="11" lengthAdjust="spacingAndGlyphs" textLength="67" x="189.5" y="183.6348">text(): String</text><ellipse cx="180.5" cy="193.9326" fill="#84BE84" rx="3" ry="3" style="stroke: #038048; stroke-width: 1.0;"/><text fill="#000000" font-family="sans-serif" font-size="11" lengthAdjust="spacingAndGlyphs" textLength="96" x="189.5" y="196.5898">escalated(): String</text><!--class UnicodeMessage--><rect fill="#FEFECE" filter="url(#f1hidecpo7coir)" height="73.9102" id="UnicodeMessage" style="stroke: #A80036; stroke-width: 1.5;" width="128" x="6" y="129"/><ellipse cx="21" cy="145" fill="#ADD1B2" rx="11" ry="11" style="stroke: #A80036; stroke-width: 1.0;"/><path d="M23.4731,151.1431 Q22.8921,151.4419 22.2529,151.5913 Q21.6138,151.7407 20.9082,151.7407 Q18.4014,151.7407 17.0815,150.0889 Q15.7617,148.437 15.7617,145.3159 Q15.7617,142.1865 17.0815,140.5347 Q18.4014,138.8828 20.9082,138.8828 Q21.6138,138.8828 22.2612,139.0322 Q22.9087,139.1816 23.4731,139.4805 L23.4731,142.2031 Q22.8423,141.6221 22.2488,141.3523 Q21.6553,141.0825 21.0244,141.0825 Q19.6797,141.0825 18.9949,142.1492 Q18.3101,143.2158 18.3101,145.3159 Q18.3101,147.4077 18.9949,148.4744 Q19.6797,149.541 21.0244,149.541 Q21.6553,149.541 22.2488,149.2712 Q22.8423,149.0015 23.4731,148.4204 Z "/><text fill="#000000" font-family="sans-serif" font-size="12" lengthAdjust="spacingAndGlyphs" textLength="96" x="35" y="149.5352">UnicodeMessage</text><line style="stroke: #A80036; stroke-width: 1.5;" x1="7" x2="133" y1="161" y2="161"/><line style="stroke: #A80036; stroke-width: 1.5;" x1="7" x2="133" y1="169" y2="169"/><ellipse cx="17" cy="180.9775" fill="#84BE84" rx="3" ry="3" style="stroke: #038048; stroke-width: 1.0;"/><text fill="#000000" font-family="sans-serif" font-size="11" lengthAdjust="spacingAndGlyphs" textLength="67" x="26" y="183.6348">text(): String</text><ellipse cx="17" cy="193.9326" fill="#84BE84" rx="3" ry="3" style="stroke: #038048; stroke-width: 1.0;"/><text fill="#000000" font-family="sans-serif" font-size="11" lengthAdjust="spacingAndGlyphs" textLength="68" x="26" y="196.5898">utf8(): String</text><!--class EscalatedUnicodeMessage--><rect fill="#FEFECE" filter="url(#f1hidecpo7coir)" height="86.8652" id="EscalatedUnicodeMessage" style="stroke: #A80036; stroke-width: 1.5;" width="183" x="123.5" y="263"/><ellipse cx="138.5" cy="279" fill="#ADD1B2" rx="11" ry="11" style="stroke: #A80036; stroke-width: 1.0;"/><path d="M140.9731,285.1431 Q140.3921,285.4419 139.7529,285.5913 Q139.1138,285.7407 138.4082,285.7407 Q135.9014,285.7407 134.5815,284.0889 Q133.2617,282.437 133.2617,279.3159 Q133.2617,276.1865 134.5815,274.5347 Q135.9014,272.8828 138.4082,272.8828 Q139.1138,272.8828 139.7612,273.0322 Q140.4087,273.1816 140.9731,273.4805 L140.9731,276.2031 Q140.3423,275.6221 139.7488,275.3523 Q139.1553,275.0825 138.5244,275.0825 Q137.1797,275.0825 136.4949,276.1492 Q135.8101,277.2158 135.8101,279.3159 Q135.8101,281.4077 136.4949,282.4744 Q137.1797,283.541 138.5244,283.541 Q139.1553,283.541 139.7488,283.2712 Q140.3423,283.0015 140.9731,282.4204 Z "/><text fill="#000000" font-family="sans-serif" font-size="12" lengthAdjust="spacingAndGlyphs" textLength="151" x="152.5" y="283.5352">EscalatedUnicodeMessage</text><line style="stroke: #A80036; stroke-width: 1.5;" x1="124.5" x2="305.5" y1="295" y2="295"/><line style="stroke: #A80036; stroke-width: 1.5;" x1="124.5" x2="305.5" y1="303" y2="303"/><ellipse cx="134.5" cy="314.9775" fill="#84BE84" rx="3" ry="3" style="stroke: #038048; stroke-width: 1.0;"/><text fill="#000000" font-family="sans-serif" font-size="11" lengthAdjust="spacingAndGlyphs" textLength="67" x="143.5" y="317.6348">text(): String</text><ellipse cx="134.5" cy="327.9326" fill="#84BE84" rx="3" ry="3" style="stroke: #038048; stroke-width: 1.0;"/><text fill="#000000" font-family="sans-serif" font-size="11" lengthAdjust="spacingAndGlyphs" textLength="96" x="143.5" y="330.5898">escalated(): String</text><ellipse cx="134.5" cy="340.8877" fill="#84BE84" rx="3" ry="3" style="stroke: #038048; stroke-width: 1.0;"/><text fill="#000000" font-family="sans-serif" font-size="11" lengthAdjust="spacingAndGlyphs" textLength="68" x="143.5" y="343.5449">utf8(): String</text><!--link Message to EscalatedMessage--><path d="M178.4091,85.1719 C189.025,99.5712 200.5661,115.2253 210.6396,128.8888 " fill="none" id="Message-EscalatedMessage" style="stroke: #A80036; stroke-width: 1.0;"/><polygon fill="none" points="172.7494,89.2913,166.5153,69.0394,184.018,80.9835,172.7494,89.2913" style="stroke: #A80036; stroke-width: 1.0;"/><!--link Escalatable to EscalatedMessage--><path d="M275.5424,87.5302 C268.9704,101.2668 261.9369,115.9679 255.7551,128.8888 " fill="none" id="Escalatable-EscalatedMessage" style="stroke: #A80036; stroke-width: 1.0; stroke-dasharray: 7.0,7.0;"/><polygon fill="none" points="269.4428,84.0598,284.389,69.0394,282.0718,90.102,269.4428,84.0598" style="stroke: #A80036; stroke-width: 1.0;"/><!--link Message to UnicodeMessage--><path d="M116.0922,86.5844 C107.9635,100.59 99.2106,115.6709 91.539,128.8888 " fill="none" id="Message-UnicodeMessage" style="stroke: #A80036; stroke-width: 1.0;"/><polygon fill="none" points="110.1815,82.8233,126.2752,69.0394,122.2899,89.8509,110.1815,82.8233" style="stroke: #A80036; stroke-width: 1.0;"/><!--link UnicodeMessage to EscalatedUnicodeMessage--><path d="M123.2695,217.6163 C138.5853,232.4568 155.1354,248.4932 169.9059,262.8053 " fill="none" id="UnicodeMessage-EscalatedUnicodeMessage" style="stroke: #A80036; stroke-width: 1.0;"/><polygon fill="none" points="117.9688,222.2272,108.4767,203.2825,127.7111,212.1729,117.9688,222.2272" style="stroke: #A80036; stroke-width: 1.0;"/><!--link Escalatable to EscalatedUnicodeMessage--><path d="M320.1371,88.0027 C331.2735,121.6254 339.6964,166.4502 324,203 C314.063,226.1387 296.1293,246.5397 277.6398,262.9791 " fill="none" id="Escalatable-EscalatedUnicodeMessage" style="stroke: #A80036; stroke-width: 1.0; stroke-dasharray: 7.0,7.0;"/><polygon fill="none" points="313.5447,90.3569,313.2369,69.1695,326.6902,85.5405,313.5447,90.3569" style="stroke: #A80036; stroke-width: 1.0;"/><!--
@startuml mixin-diamond-2

class Message {
	+text(): String
}

interface Escalatable {
	+escalated(): String
}

class EscalatedMessage extends Message implements Escalatable{
	+text(): String
	+escalated(): String
}

class UnicodeMessage extends Message {
	+text(): String
	+utf8(): String
}

class EscalatedUnicodeMessage extends UnicodeMessage implements Escalatable {
	+text(): String
	+escalated(): String
	+utf8(): String
}

@enduml

PlantUML version 1.2018.07(Mon Jun 11 19:29:06 CEST 2018)
(GPL source distribution)
Java Runtime: Java(TM) SE Runtime Environment
JVM: Java HotSpot(TM) 64-Bit Server VM
Java Version: 1.8.0_144-b01
Operating System: Mac OS X
OS Version: 10.14
Default Encoding: UTF-8
Language: en
Country: US
--></g></svg>