<?xml version="1.0" encoding="UTF-8" standalone="no"?><svg xmlns="http://www.w3.org/2000/svg" xmlns:xlink="http://www.w3.org/1999/xlink" contentScriptType="application/ecmascript" contentStyleType="text/css" height="213px" preserveAspectRatio="none" style="width:317px;height:213px;" version="1.1" viewBox="0 0 317 213" width="317px" zoomAndPan="magnify"><defs><filter height="300%" id="f1rpjjlcco9kmm" width="300%" x="-1" y="-1"><feGaussianBlur result="blurOut" stdDeviation="2.0"/><feColorMatrix in="blurOut" result="blurOut2" type="matrix" values="0 0 0 0 0 0 0 0 0 0 0 0 0 0 0 0 0 0 .4 0"/><feOffset dx="4.0" dy="4.0" in="blurOut2" result="blurOut3"/><feBlend in="SourceGraphic" in2="blurOut3" mode="normal"/></filter></defs><g><!--class Message--><rect fill="#FEFECE" filter="url(#f1rpjjlcco9kmm)" height="60.9551" id="Message" style="stroke: #A80036; stroke-width: 1.5;" width="93" x="112" y="8"/><ellipse cx="131.95" cy="24" fill="#ADD1B2" rx="11" ry="11" style="stroke: #A80036; stroke-width: 1.0;"/><path d="M134.4231,30.1431 Q133.8421,30.4419 133.2029,30.5913 Q132.5638,30.7407 131.8582,30.7407 Q129.3514,30.7407 128.0315,29.0889 Q126.7117,27.437 126.7117,24.3159 Q126.7117,21.1865 128.0315,19.5347 Q129.3514,17.8828 131.8582,17.8828 Q132.5638,17.8828 133.2112,18.0322 Q133.8587,18.1816 134.4231,18.4805 L134.4231,21.2031 Q133.7923,20.6221 133.1988,20.3523 Q132.6053,20.0825 131.9744,20.0825 Q130.6297,20.0825 129.9449,21.1492 Q129.2601,22.2158 129.2601,24.3159 Q129.2601,26.4077 129.9449,27.4744 Q130.6297,28.541 131.9744,28.541 Q132.6053,28.541 133.1988,28.2712 Q133.7923,28.0015 134.4231,27.4204 Z "/><text fill="#000000" font-family="sans-serif" font-size="12" lengthAdjust="spacingAndGlyphs" textLength="50" x="147.05" y="28.5352">Message</text><line style="stroke: #A80036; stroke-width: 1.5;" x1="113" x2="204" y1="40" y2="40"/><line style="stroke: #A80036; stroke-width: 1.5;" x1="113" x2="204" y1="48" y2="48"/><ellipse cx="123" cy="59.9775" fill="#84BE84" rx="3" ry="3" style="stroke: #038048; stroke-width: 1.0;"/><text fill="#000000" font-family="sans-serif" font-size="11" lengthAdjust="spacingAndGlyphs" textLength="67" x="132" y="62.6348">text(): String</text><!--class EscalatedMessage--><rect fill="#FEFECE" filter="url(#f1rpjjlcco9kmm)" height="73.9102" id="EscalatedMessage" style="stroke: #A80036; stroke-width: 1.5;" width="137" x="6" y="129"/><ellipse cx="21" cy="145" fill="#ADD1B2" rx="11" ry="11" style="stroke: #A80036; stroke-width: 1.0;"/><path d="M23.4731,151.1431 Q22.8921,151.4419 22.2529,151.5913 Q21.6138,151.7407 20.9082,151.7407 Q18.4014,151.7407 17.0815,150.0889 Q15.7617,148.437 15.7617,145.3159 Q15.7617,142.1865 17.0815,140.5347 Q18.4014,138.8828 20.9082,138.8828 Q21.6138,138.8828 22.2612,139.0322 Q22.9087,139.1816 23.4731,139.4805 L23.4731,142.2031 Q22.8423,141.6221 22.2488,141.3523 Q21.6553,141.0825 21.0244,141.0825 Q19.6797,141.0825 18.9949,142.1492 Q18.3101,143.2158 18.3101,145.3159 Q18.3101,147.4077 18.9949,148.4744 Q19.6797,149.541 21.0244,149.541 Q21.6553,149.541 22.2488,149.2712 Q22.8423,149.0015 23.4731,148.4204 Z "/><text fill="#000000" font-family="sans-serif" font-size="12" lengthAdjust="spacingAndGlyphs" textLength="105" x="35" y="149.5352">EscalatedMessage</text><line style="stroke: #A80036; stroke-width: 1.5;" x1="7" x2="142" y1="161" y2="161"/><line style="stroke: #A80036; stroke-width: 1.5;" x1="7" x2="142" y1="169" y2="169"/><ellipse cx="17" cy="180.9775" fill="#84BE84" rx="3" ry="3" style="stroke: #038048; stroke-width: 1.0;"/><text fill="#000000" font-family="sans-serif" font-size="11" lengthAdjust="spacingAndGlyphs" textLength="67" x="26" y="183.6348">text(): String</text><ellipse cx="17" cy="193.9326" fill="#84BE84" rx="3" ry="3" style="stroke: #038048; stroke-width: 1.0;"/><text fill="#000000" font-family="sans-serif" font-size="11" lengthAdjust="spacingAndGlyphs" textLength="96" x="26" y="196.5898">escalated(): String</text><!--class UnicodeMessage--><rect fill="#FEFECE" filter="url(#f1rpjjlcco9kmm)" height="73.9102" id="UnicodeMessage" style="stroke: #A80036; stroke-width: 1.5;" width="128" x="178.5" y="129"/><ellipse cx="193.5" cy="145" fill="#ADD1B2" rx="11" ry="11" style="stroke: #A80036; stroke-width: 1.0;"/><path d="M195.9731,151.1431 Q195.3921,151.4419 194.7529,151.5913 Q194.1138,151.7407 193.4082,151.7407 Q190.9014,151.7407 189.5815,150.0889 Q188.2617,148.437 188.2617,145.3159 Q188.2617,142.1865 189.5815,140.5347 Q190.9014,138.8828 193.4082,138.8828 Q194.1138,138.8828 194.7612,139.0322 Q195.4087,139.1816 195.9731,139.4805 L195.9731,142.2031 Q195.3423,141.6221 194.7488,141.3523 Q194.1553,141.0825 193.5244,141.0825 Q192.1797,141.0825 191.4949,142.1492 Q190.8101,143.2158 190.8101,145.3159 Q190.8101,147.4077 191.4949,148.4744 Q192.1797,149.541 193.5244,149.541 Q194.1553,149.541 194.7488,149.2712 Q195.3423,149.0015 195.9731,148.4204 Z "/><text fill="#000000" font-family="sans-serif" font-size="12" lengthAdjust="spacingAndGlyphs" textLength="96" x="207.5" y="149.5352">UnicodeMessage</text><line style="stroke: #A80036; stroke-width: 1.5;" x1="179.5" x2="305.5" y1="161" y2="161"/><line style="stroke: #A80036; stroke-width: 1.5;" x1="179.5" x2="305.5" y1="169" y2="169"/><ellipse cx="189.5" cy="180.9775" fill="#84BE84" rx="3" ry="3" style="stroke: #038048; stroke-width: 1.0;"/><text fill="#000000" font-family="sans-serif" font-size="11" lengthAdjust="spacingAndGlyphs" textLength="67" x="198.5" y="183.6348">text(): String</text><ellipse cx="189.5" cy="193.9326" fill="#84BE84" rx="3" ry="3" style="stroke: #038048; stroke-width: 1.0;"/><text fill="#000000" font-family="sans-serif" font-size="11" lengthAdjust="spacingAndGlyphs" textLength="68" x="198.5" y="196.5898">utf8(): String</text><!--link Message to EscalatedMessage--><path d="M127.1316,86.1128 C117.8171,100.2508 107.7558,115.5224 98.9497,128.8888 " fill="none" id="Message-EscalatedMessage" style="stroke: #A80036; stroke-width: 1.0;"/><polygon fill="none" points="121.5313,81.8895,138.3799,69.0394,133.2221,89.5918,121.5313,81.8895" style="stroke: #A80036; stroke-width: 1.0;"/><!--link Message to UnicodeMessage--><path d="M189.8684,86.1128 C199.1829,100.2508 209.2442,115.5224 218.0503,128.8888 " fill="none" id="Message-UnicodeMessage" style="stroke: #A80036; stroke-width: 1.0;"/><polygon fill="none" points="183.7779,89.5918,178.6201,69.0394,195.4687,81.8895,183.7779,89.5918" style="stroke: #A80036; stroke-width: 1.0;"/><!--
@startuml mixin-diamond-1

class Message {
	+text(): String
}

class EscalatedMessage extends Message {
	+text(): String
	+escalated(): String
}

class UnicodeMessage extends Message {
	+text(): String
	+utf8(): String
}


@enduml

PlantUML version 1.2018.07(Mon Jun 11 19:29:06 CEST 2018)
(GPL source distribution)
Java Runtime: Java(TM) SE Runtime Environment
JVM: Java HotSpot(TM) 64-Bit Server VM
Java Version: 1.8.0_144-b01
Operating System: Mac OS X
OS Version: 10.14
Default Encoding: UTF-8
Language: en
Country: US
--></g></svg>