<?xml version="1.0" encoding="UTF-8" standalone="no"?><svg xmlns="http://www.w3.org/2000/svg" xmlns:xlink="http://www.w3.org/1999/xlink" contentScriptType="application/ecmascript" contentStyleType="text/css" height="328px" preserveAspectRatio="none" style="width:201px;height:328px;" version="1.1" viewBox="0 0 201 328" width="201px" zoomAndPan="magnify"><defs><filter height="300%" id="f7l4uymn1em5l" width="300%" x="-1" y="-1"><feGaussianBlur result="blurOut" stdDeviation="2.0"/><feColorMatrix in="blurOut" result="blurOut2" type="matrix" values="0 0 0 0 0 0 0 0 0 0 0 0 0 0 0 0 0 0 .4 0"/><feOffset dx="4.0" dy="4.0" in="blurOut2" result="blurOut3"/><feBlend in="SourceGraphic" in2="blurOut3" mode="normal"/></filter></defs><g><!--entity Model--><rect fill="#FEFECE" filter="url(#f7l4uymn1em5l)" height="36.4883" style="stroke: #000000; stroke-width: 1.5;" width="62" x="76" y="8"/><text fill="#000000" font-family="sans-serif" font-size="14" lengthAdjust="spacingAndGlyphs" textLength="42" x="86" y="31.5352">Model</text><!--entity Controller--><rect fill="#FEFECE" filter="url(#f7l4uymn1em5l)" height="36.4883" style="stroke: #000000; stroke-width: 1.5;" width="90" x="6" y="121"/><text fill="#000000" font-family="sans-serif" font-size="14" lengthAdjust="spacingAndGlyphs" textLength="70" x="16" y="144.5352">Controller</text><!--entity View--><rect fill="#FEFECE" filter="url(#f7l4uymn1em5l)" height="36.4883" style="stroke: #000000; stroke-width: 1.5;" width="52" x="137" y="121"/><text fill="#000000" font-family="sans-serif" font-size="14" lengthAdjust="spacingAndGlyphs" textLength="32" x="147" y="144.5352">View</text><!--entity User--><ellipse cx="106" cy="244" fill="#FEFECE" filter="url(#f7l4uymn1em5l)" rx="8" ry="8" style="stroke: #A80036; stroke-width: 2.0;"/><path d="M106,252 L106,279 M93,260 L119,260 M106,279 L93,294 M106,279 L119,294 " fill="#FEFECE" filter="url(#f7l4uymn1em5l)" style="stroke: #A80036; stroke-width: 2.0;"/><text fill="#000000" font-family="sans-serif" font-size="14" lengthAdjust="spacingAndGlyphs" textLength="31" x="90.5" y="314.5352">User</text><!--link Model to View--><path d="M115.9974,44.1554 C125.7128,63.7598 141.2075,95.0258 151.728,116.2547 " fill="none" id="Model-View" style="stroke: #A80036; stroke-width: 1.0;"/><polygon fill="#A80036" points="154.025,120.8897,153.6125,111.0495,151.8047,116.4097,146.4445,114.6019,154.025,120.8897" style="stroke: #A80036; stroke-width: 1.0;"/><text fill="#000000" font-family="sans-serif" font-size="13" lengthAdjust="spacingAndGlyphs" textLength="50" x="139" y="87.5684">updates</text><!--link Model to Controller--><path d="M71.4605,44.4854 C60.6131,52.0617 49.9802,61.9255 44,74 C36.7462,88.6461 39.8678,107.3817 43.9876,120.9721 " fill="none" id="Model-Controller" style="stroke: #A80036; stroke-width: 1.0;"/><polygon fill="#A80036" points="75.7812,41.5894,66.0781,43.2778,71.6279,44.3733,70.5324,49.9231,75.7812,41.5894" style="stroke: #A80036; stroke-width: 1.0;"/><text fill="#000000" font-family="sans-serif" font-size="13" lengthAdjust="spacingAndGlyphs" textLength="77" x="45" y="87.5684">manipulates</text><!--link View to User--><path d="M153.4259,161.9275 C144.7304,182.7509 131.7457,213.8459 121.5602,238.2374 " fill="none" id="View-User" style="stroke: #A80036; stroke-width: 1.0; stroke-dasharray: 7.0,7.0;"/><polygon fill="#A80036" points="155.4308,157.1261,148.2717,163.8898,153.5041,161.74,155.6539,166.9724,155.4308,157.1261" style="stroke: #A80036; stroke-width: 1.0;"/><text fill="#000000" font-family="sans-serif" font-size="13" lengthAdjust="spacingAndGlyphs" textLength="28" x="143" y="200.5684">sees</text><!--link Controller to User--><path d="M60.2027,161.8394 C68.4338,182.2676 80.6686,212.6321 90.4222,236.8387 " fill="none" id="Controller-User" style="stroke: #A80036; stroke-width: 1.0; stroke-dasharray: 7.0,7.0;"/><polygon fill="#A80036" points="58.3036,157.1261,57.9571,166.9689,60.1723,161.7638,65.3774,163.9789,58.3036,157.1261" style="stroke: #A80036; stroke-width: 1.0;"/><text fill="#000000" font-family="sans-serif" font-size="13" lengthAdjust="spacingAndGlyphs" textLength="29" x="77" y="200.5684">uses</text><!--
@startuml

rectangle Model
rectangle Controller
rectangle View

Model - -> View : updates
Model <- - Controller : manipulates

actor User

View <.. User : sees
Controller <.. User : uses

@enduml

PlantUML version 1.2017.16(Sun Sep 03 12:53:37 CEST 2017)
(GPL source distribution)
Java Runtime: Java(TM) SE Runtime Environment
JVM: Java HotSpot(TM) 64-Bit Server VM
Java Version: 1.8.0_144-b01
Operating System: Mac OS X
OS Version: 10.13.1
Default Encoding: UTF-8
Language: en
Country: US
--></g></svg>