<?xml version="1.0" encoding="UTF-8" standalone="no"?><svg xmlns="http://www.w3.org/2000/svg" xmlns:xlink="http://www.w3.org/1999/xlink" contentScriptType="application/ecmascript" contentStyleType="text/css" height="500px" preserveAspectRatio="none" style="width:639px;height:500px;" version="1.1" viewBox="0 0 639 500" width="639px" zoomAndPan="magnify"><defs><filter height="300%" id="fppmlgvepe3zo" width="300%" x="-1" y="-1"><feGaussianBlur result="blurOut" stdDeviation="2.0"/><feColorMatrix in="blurOut" result="blurOut2" type="matrix" values="0 0 0 0 0 0 0 0 0 0 0 0 0 0 0 0 0 0 .4 0"/><feOffset dx="4.0" dy="4.0" in="blurOut2" result="blurOut3"/><feBlend in="SourceGraphic" in2="blurOut3" mode="normal"/></filter></defs><g><rect fill="#FFFFFF" filter="url(#fppmlgvepe3zo)" height="34.3105" style="stroke: #A80036; stroke-width: 1.0;" width="10" x="144.5" y="69.4883"/><rect fill="#FFFFFF" filter="url(#fppmlgvepe3zo)" height="29" style="stroke: #A80036; stroke-width: 1.0;" width="10" x="144.5" y="123.1094"/><rect fill="#FFFFFF" filter="url(#fppmlgvepe3zo)" height="29" style="stroke: #A80036; stroke-width: 1.0;" width="10" x="144.5" y="219.7305"/><rect fill="#FFFFFF" filter="url(#fppmlgvepe3zo)" height="29" style="stroke: #A80036; stroke-width: 1.0;" width="10" x="144.5" y="316.3516"/><rect fill="#FFFFFF" filter="url(#fppmlgvepe3zo)" height="38.3105" style="stroke: #A80036; stroke-width: 1.0;" width="10" x="144.5" y="412.9727"/><rect fill="#FFFFFF" filter="url(#fppmlgvepe3zo)" height="19.3105" style="stroke: #A80036; stroke-width: 1.0;" width="10" x="355.5" y="103.7988"/><rect fill="#FFFFFF" filter="url(#fppmlgvepe3zo)" height="26.9658" style="stroke: #A80036; stroke-width: 1.0;" width="10" x="455" y="152.1094"/><rect fill="#FFFFFF" filter="url(#fppmlgvepe3zo)" height="14" style="stroke: #A80036; stroke-width: 1.0;" width="10" x="455" y="205.7305"/><rect fill="#FFFFFF" filter="url(#fppmlgvepe3zo)" height="26.9658" style="stroke: #A80036; stroke-width: 1.0;" width="10" x="455" y="248.7305"/><rect fill="#FFFFFF" filter="url(#fppmlgvepe3zo)" height="14" style="stroke: #A80036; stroke-width: 1.0;" width="10" x="455" y="302.3516"/><rect fill="#FFFFFF" filter="url(#fppmlgvepe3zo)" height="26.9658" style="stroke: #A80036; stroke-width: 1.0;" width="10" x="455" y="345.3516"/><rect fill="#FFFFFF" filter="url(#fppmlgvepe3zo)" height="14" style="stroke: #A80036; stroke-width: 1.0;" width="10" x="455" y="398.9727"/><rect fill="#FFFFFF" filter="url(#fppmlgvepe3zo)" height="26.6553" style="stroke: #A80036; stroke-width: 1.0;" width="10" x="538.5" y="179.0752"/><rect fill="#FFFFFF" filter="url(#fppmlgvepe3zo)" height="26.6553" style="stroke: #A80036; stroke-width: 1.0;" width="10" x="538.5" y="275.6963"/><rect fill="#FFFFFF" filter="url(#fppmlgvepe3zo)" height="26.6553" style="stroke: #A80036; stroke-width: 1.0;" width="10" x="538.5" y="372.3174"/><line style="stroke: #A80036; stroke-width: 1.0; stroke-dasharray: 5.0,5.0;" x1="26" x2="26" y1="38.4883" y2="460.2832"/><line style="stroke: #A80036; stroke-width: 1.0; stroke-dasharray: 5.0,5.0;" x1="149.5" x2="149.5" y1="38.4883" y2="460.2832"/><line style="stroke: #A80036; stroke-width: 1.0; stroke-dasharray: 5.0,5.0;" x1="360.5" x2="360.5" y1="38.4883" y2="460.2832"/><line style="stroke: #A80036; stroke-width: 1.0; stroke-dasharray: 5.0,5.0;" x1="459.5" x2="459.5" y1="38.4883" y2="460.2832"/><line style="stroke: #A80036; stroke-width: 1.0; stroke-dasharray: 5.0,5.0;" x1="543.5" x2="543.5" y1="38.4883" y2="460.2832"/><rect fill="#FEFECE" filter="url(#fppmlgvepe3zo)" height="30.4883" style="stroke: #A80036; stroke-width: 1.5;" width="33" x="8" y="3"/><text fill="#000000" font-family="sans-serif" font-size="14" lengthAdjust="spacingAndGlyphs" textLength="19" x="15" y="23.5352">OS</text><rect fill="#FEFECE" filter="url(#fppmlgvepe3zo)" height="30.4883" style="stroke: #A80036; stroke-width: 1.5;" width="33" x="8" y="459.2832"/><text fill="#000000" font-family="sans-serif" font-size="14" lengthAdjust="spacingAndGlyphs" textLength="19" x="15" y="479.8184">OS</text><rect fill="#FEFECE" filter="url(#fppmlgvepe3zo)" height="30.4883" style="stroke: #A80036; stroke-width: 1.5;" width="48" x="123.5" y="3"/><text fill="#000000" font-family="sans-serif" font-size="14" lengthAdjust="spacingAndGlyphs" textLength="34" x="130.5" y="23.5352">main</text><rect fill="#FEFECE" filter="url(#fppmlgvepe3zo)" height="30.4883" style="stroke: #A80036; stroke-width: 1.5;" width="48" x="123.5" y="459.2832"/><text fill="#000000" font-family="sans-serif" font-size="14" lengthAdjust="spacingAndGlyphs" textLength="34" x="130.5" y="479.8184">main</text><rect fill="#FEFECE" filter="url(#fppmlgvepe3zo)" height="30.4883" style="stroke: #A80036; stroke-width: 1.5;" width="92" x="312.5" y="3"/><text fill="#000000" font-family="sans-serif" font-size="14" lengthAdjust="spacingAndGlyphs" textLength="78" x="319.5" y="23.5352">MyProgram</text><rect fill="#FEFECE" filter="url(#fppmlgvepe3zo)" height="30.4883" style="stroke: #A80036; stroke-width: 1.5;" width="92" x="312.5" y="459.2832"/><text fill="#000000" font-family="sans-serif" font-size="14" lengthAdjust="spacingAndGlyphs" textLength="78" x="319.5" y="479.8184">MyProgram</text><rect fill="#FEFECE" filter="url(#fppmlgvepe3zo)" height="30.4883" style="stroke: #A80036; stroke-width: 1.5;" width="79" x="418.5" y="3"/><text fill="#000000" font-family="sans-serif" font-size="14" lengthAdjust="spacingAndGlyphs" textLength="65" x="425.5" y="23.5352">printNum</text><rect fill="#FEFECE" filter="url(#fppmlgvepe3zo)" height="30.4883" style="stroke: #A80036; stroke-width: 1.5;" width="79" x="418.5" y="459.2832"/><text fill="#000000" font-family="sans-serif" font-size="14" lengthAdjust="spacingAndGlyphs" textLength="65" x="425.5" y="479.8184">printNum</text><rect fill="#FEFECE" filter="url(#fppmlgvepe3zo)" height="30.4883" style="stroke: #A80036; stroke-width: 1.5;" width="60" x="511.5" y="3"/><text fill="#000000" font-family="sans-serif" font-size="14" lengthAdjust="spacingAndGlyphs" textLength="46" x="518.5" y="23.5352">println</text><rect fill="#FEFECE" filter="url(#fppmlgvepe3zo)" height="30.4883" style="stroke: #A80036; stroke-width: 1.5;" width="60" x="511.5" y="459.2832"/><text fill="#000000" font-family="sans-serif" font-size="14" lengthAdjust="spacingAndGlyphs" textLength="46" x="518.5" y="479.8184">println</text><rect fill="#FFFFFF" filter="url(#fppmlgvepe3zo)" height="34.3105" style="stroke: #A80036; stroke-width: 1.0;" width="10" x="144.5" y="69.4883"/><rect fill="#FFFFFF" filter="url(#fppmlgvepe3zo)" height="29" style="stroke: #A80036; stroke-width: 1.0;" width="10" x="144.5" y="123.1094"/><rect fill="#FFFFFF" filter="url(#fppmlgvepe3zo)" height="29" style="stroke: #A80036; stroke-width: 1.0;" width="10" x="144.5" y="219.7305"/><rect fill="#FFFFFF" filter="url(#fppmlgvepe3zo)" height="29" style="stroke: #A80036; stroke-width: 1.0;" width="10" x="144.5" y="316.3516"/><rect fill="#FFFFFF" filter="url(#fppmlgvepe3zo)" height="38.3105" style="stroke: #A80036; stroke-width: 1.0;" width="10" x="144.5" y="412.9727"/><rect fill="#FFFFFF" filter="url(#fppmlgvepe3zo)" height="19.3105" style="stroke: #A80036; stroke-width: 1.0;" width="10" x="355.5" y="103.7988"/><rect fill="#FFFFFF" filter="url(#fppmlgvepe3zo)" height="26.9658" style="stroke: #A80036; stroke-width: 1.0;" width="10" x="455" y="152.1094"/><rect fill="#FFFFFF" filter="url(#fppmlgvepe3zo)" height="14" style="stroke: #A80036; stroke-width: 1.0;" width="10" x="455" y="205.7305"/><rect fill="#FFFFFF" filter="url(#fppmlgvepe3zo)" height="26.9658" style="stroke: #A80036; stroke-width: 1.0;" width="10" x="455" y="248.7305"/><rect fill="#FFFFFF" filter="url(#fppmlgvepe3zo)" height="14" style="stroke: #A80036; stroke-width: 1.0;" width="10" x="455" y="302.3516"/><rect fill="#FFFFFF" filter="url(#fppmlgvepe3zo)" height="26.9658" style="stroke: #A80036; stroke-width: 1.0;" width="10" x="455" y="345.3516"/><rect fill="#FFFFFF" filter="url(#fppmlgvepe3zo)" height="14" style="stroke: #A80036; stroke-width: 1.0;" width="10" x="455" y="398.9727"/><rect fill="#FFFFFF" filter="url(#fppmlgvepe3zo)" height="26.6553" style="stroke: #A80036; stroke-width: 1.0;" width="10" x="538.5" y="179.0752"/><rect fill="#FFFFFF" filter="url(#fppmlgvepe3zo)" height="26.6553" style="stroke: #A80036; stroke-width: 1.0;" width="10" x="538.5" y="275.6963"/><rect fill="#FFFFFF" filter="url(#fppmlgvepe3zo)" height="26.6553" style="stroke: #A80036; stroke-width: 1.0;" width="10" x="538.5" y="372.3174"/><polygon fill="#A80036" points="132.5,65.4883,142.5,69.4883,132.5,73.4883,136.5,69.4883" style="stroke: #A80036; stroke-width: 1.0;"/><line style="stroke: #A80036; stroke-width: 1.0; stroke-dasharray: 2.0,2.0;" x1="26.5" x2="138.5" y1="69.4883" y2="69.4883"/><text fill="#000000" font-family="sans-serif" font-size="13" lengthAdjust="spacingAndGlyphs" textLength="99" x="33.5" y="65.0566">java MyProgram</text><polygon fill="#A80036" points="343.5,99.7988,353.5,103.7988,343.5,107.7988,347.5,103.7988" style="stroke: #A80036; stroke-width: 1.0;"/><line style="stroke: #A80036; stroke-width: 1.0; stroke-dasharray: 2.0,2.0;" x1="149.5" x2="349.5" y1="103.7988" y2="103.7988"/><text fill="#000000" font-family="sans-serif" font-size="13" lengthAdjust="spacingAndGlyphs" textLength="182" x="156.5" y="99.3672">mp = new MyProgram("Test")</text><polygon fill="#FBFB77" filter="url(#fppmlgvepe3zo)" points="370,82.7988,370,107.7988,554,107.7988,554,92.7988,544,82.7988,370,82.7988" style="stroke: #A80036; stroke-width: 1.0;"/><line style="stroke: #A80036; stroke-width: 1.0;" x1="544" x2="544" y1="82.7988" y2="92.7988"/><line style="stroke: #A80036; stroke-width: 1.0;" x1="554" x2="544" y1="92.7988" y2="92.7988"/><text fill="#000000" font-family="sans-serif" font-size="13" lengthAdjust="spacingAndGlyphs" textLength="163" x="376" y="100.3672">"Created MyProgram Test"</text><polygon fill="#A80036" points="165.5,119.1094,155.5,123.1094,165.5,127.1094,161.5,123.1094" style="stroke: #A80036; stroke-width: 1.0;"/><line style="stroke: #A80036; stroke-width: 1.0; stroke-dasharray: 2.0,2.0;" x1="159.5" x2="359.5" y1="123.1094" y2="123.1094"/><polygon fill="#A80036" points="443,148.1094,453,152.1094,443,156.1094,447,152.1094" style="stroke: #A80036; stroke-width: 1.0;"/><line style="stroke: #A80036; stroke-width: 1.0; stroke-dasharray: 2.0,2.0;" x1="149.5" x2="449" y1="152.1094" y2="152.1094"/><text fill="#000000" font-family="sans-serif" font-size="13" lengthAdjust="spacingAndGlyphs" textLength="100" x="156.5" y="147.6777">mp.printNum(0)</text><polygon fill="#A80036" points="526.5,175.0752,536.5,179.0752,526.5,183.0752,530.5,179.0752" style="stroke: #A80036; stroke-width: 1.0;"/><line style="stroke: #A80036; stroke-width: 1.0; stroke-dasharray: 2.0,2.0;" x1="460" x2="532.5" y1="179.0752" y2="179.0752"/><polygon fill="#FBFB77" filter="url(#fppmlgvepe3zo)" points="553,165.4199,553,190.4199,627,190.4199,627,175.4199,617,165.4199,553,165.4199" style="stroke: #A80036; stroke-width: 1.0;"/><line style="stroke: #A80036; stroke-width: 1.0;" x1="617" x2="617" y1="165.4199" y2="175.4199"/><line style="stroke: #A80036; stroke-width: 1.0;" x1="627" x2="617" y1="175.4199" y2="175.4199"/><text fill="#000000" font-family="sans-serif" font-size="13" lengthAdjust="spacingAndGlyphs" textLength="53" x="559" y="182.9883">"Test: 0"</text><polygon fill="#A80036" points="476,201.7305,466,205.7305,476,209.7305,472,205.7305" style="stroke: #A80036; stroke-width: 1.0;"/><line style="stroke: #A80036; stroke-width: 1.0; stroke-dasharray: 2.0,2.0;" x1="470" x2="542.5" y1="205.7305" y2="205.7305"/><polygon fill="#A80036" points="165.5,215.7305,155.5,219.7305,165.5,223.7305,161.5,219.7305" style="stroke: #A80036; stroke-width: 1.0;"/><line style="stroke: #A80036; stroke-width: 1.0; stroke-dasharray: 2.0,2.0;" x1="159.5" x2="459" y1="219.7305" y2="219.7305"/><polygon fill="#A80036" points="443,244.7305,453,248.7305,443,252.7305,447,248.7305" style="stroke: #A80036; stroke-width: 1.0;"/><line style="stroke: #A80036; stroke-width: 1.0; stroke-dasharray: 2.0,2.0;" x1="149.5" x2="449" y1="248.7305" y2="248.7305"/><text fill="#000000" font-family="sans-serif" font-size="13" lengthAdjust="spacingAndGlyphs" textLength="100" x="156.5" y="244.2988">mp.printNum(1)</text><polygon fill="#A80036" points="526.5,271.6963,536.5,275.6963,526.5,279.6963,530.5,275.6963" style="stroke: #A80036; stroke-width: 1.0;"/><line style="stroke: #A80036; stroke-width: 1.0; stroke-dasharray: 2.0,2.0;" x1="460" x2="532.5" y1="275.6963" y2="275.6963"/><polygon fill="#FBFB77" filter="url(#fppmlgvepe3zo)" points="553,262.041,553,287.041,627,287.041,627,272.041,617,262.041,553,262.041" style="stroke: #A80036; stroke-width: 1.0;"/><line style="stroke: #A80036; stroke-width: 1.0;" x1="617" x2="617" y1="262.041" y2="272.041"/><line style="stroke: #A80036; stroke-width: 1.0;" x1="627" x2="617" y1="272.041" y2="272.041"/><text fill="#000000" font-family="sans-serif" font-size="13" lengthAdjust="spacingAndGlyphs" textLength="53" x="559" y="279.6094">"Test: 1"</text><polygon fill="#A80036" points="476,298.3516,466,302.3516,476,306.3516,472,302.3516" style="stroke: #A80036; stroke-width: 1.0;"/><line style="stroke: #A80036; stroke-width: 1.0; stroke-dasharray: 2.0,2.0;" x1="470" x2="542.5" y1="302.3516" y2="302.3516"/><polygon fill="#A80036" points="165.5,312.3516,155.5,316.3516,165.5,320.3516,161.5,316.3516" style="stroke: #A80036; stroke-width: 1.0;"/><line style="stroke: #A80036; stroke-width: 1.0; stroke-dasharray: 2.0,2.0;" x1="159.5" x2="459" y1="316.3516" y2="316.3516"/><polygon fill="#A80036" points="443,341.3516,453,345.3516,443,349.3516,447,345.3516" style="stroke: #A80036; stroke-width: 1.0;"/><line style="stroke: #A80036; stroke-width: 1.0; stroke-dasharray: 2.0,2.0;" x1="149.5" x2="449" y1="345.3516" y2="345.3516"/><text fill="#000000" font-family="sans-serif" font-size="13" lengthAdjust="spacingAndGlyphs" textLength="100" x="156.5" y="340.9199">mp.printNum(2)</text><polygon fill="#A80036" points="526.5,368.3174,536.5,372.3174,526.5,376.3174,530.5,372.3174" style="stroke: #A80036; stroke-width: 1.0;"/><line style="stroke: #A80036; stroke-width: 1.0; stroke-dasharray: 2.0,2.0;" x1="460" x2="532.5" y1="372.3174" y2="372.3174"/><polygon fill="#FBFB77" filter="url(#fppmlgvepe3zo)" points="553,358.6621,553,383.6621,627,383.6621,627,368.6621,617,358.6621,553,358.6621" style="stroke: #A80036; stroke-width: 1.0;"/><line style="stroke: #A80036; stroke-width: 1.0;" x1="617" x2="617" y1="358.6621" y2="368.6621"/><line style="stroke: #A80036; stroke-width: 1.0;" x1="627" x2="617" y1="368.6621" y2="368.6621"/><text fill="#000000" font-family="sans-serif" font-size="13" lengthAdjust="spacingAndGlyphs" textLength="53" x="559" y="376.2305">"Test: 2"</text><polygon fill="#A80036" points="476,394.9727,466,398.9727,476,402.9727,472,398.9727" style="stroke: #A80036; stroke-width: 1.0;"/><line style="stroke: #A80036; stroke-width: 1.0; stroke-dasharray: 2.0,2.0;" x1="470" x2="542.5" y1="398.9727" y2="398.9727"/><polygon fill="#A80036" points="165.5,408.9727,155.5,412.9727,165.5,416.9727,161.5,412.9727" style="stroke: #A80036; stroke-width: 1.0;"/><line style="stroke: #A80036; stroke-width: 1.0; stroke-dasharray: 2.0,2.0;" x1="159.5" x2="459" y1="412.9727" y2="412.9727"/><polygon fill="#A80036" points="37.5,437.9727,27.5,441.9727,37.5,445.9727,33.5,441.9727" style="stroke: #A80036; stroke-width: 1.0;"/><line style="stroke: #A80036; stroke-width: 1.0; stroke-dasharray: 2.0,2.0;" x1="31.5" x2="143.5" y1="441.9727" y2="441.9727"/><text fill="#000000" font-family="sans-serif" font-size="13" lengthAdjust="spacingAndGlyphs" textLength="83" x="43.5" y="437.541">end of main()</text><!--
@startuml

OS - -> main : java MyProgram
activate main

main - -> MyProgram : mp = new MyProgram("Test")
note right : "Created MyProgram Test"
deactivate main
activate MyProgram

MyProgram - -> main
deactivate MyProgram
activate main

main - -> printNum : mp.printNum(0)
deactivate main
activate printNum

printNum - -> println
note right: "Test: 0"
deactivate printNum
activate println

println - -> printNum
deactivate println
activate printNum

printNum - -> main
deactivate printNum
activate main

main - -> printNum : mp.printNum(1)
deactivate main
activate printNum

printNum - -> println
note right: "Test: 1"
deactivate printNum
activate println

println - -> printNum
deactivate println
activate printNum

printNum - -> main
deactivate printNum
activate main

main - -> printNum : mp.printNum(2)
deactivate main
activate printNum

printNum - -> println
note right : "Test: 2"
deactivate printNum
activate println

println - -> printNum
deactivate println
activate printNum

printNum - -> main
deactivate printNum
activate main

main - -> OS : end of main()

@enduml

PlantUML version 1.2017.16(Sun Sep 03 12:53:37 CEST 2017)
(GPL source distribution)
Java Runtime: Java(TM) SE Runtime Environment
JVM: Java HotSpot(TM) 64-Bit Server VM
Java Version: 1.8.0_144-b01
Operating System: Mac OS X
OS Version: 10.13.1
Default Encoding: UTF-8
Language: en
Country: US
--></g></svg>