<?xml version="1.0" encoding="UTF-8" standalone="no"?><svg xmlns="http://www.w3.org/2000/svg" xmlns:xlink="http://www.w3.org/1999/xlink" contentScriptType="application/ecmascript" contentStyleType="text/css" height="255px" preserveAspectRatio="none" style="width:834px;height:255px;" version="1.1" viewBox="0 0 834 255" width="834px" zoomAndPan="magnify"><defs><filter height="300%" id="f2ctsccbrl9cy" width="300%" x="-1" y="-1"><feGaussianBlur result="blurOut" stdDeviation="2.0"/><feColorMatrix in="blurOut" result="blurOut2" type="matrix" values="0 0 0 0 0 0 0 0 0 0 0 0 0 0 0 0 0 0 .4 0"/><feOffset dx="4.0" dy="4.0" in="blurOut2" result="blurOut3"/><feBlend in="SourceGraphic" in2="blurOut3" mode="normal"/></filter></defs><g><ellipse cx="16" cy="116.5" fill="#000000" filter="url(#f2ctsccbrl9cy)" rx="10" ry="10" style="stroke: none; stroke-width: 1.0;"/><rect fill="#FEFECE" filter="url(#f2ctsccbrl9cy)" height="50" rx="12.5" ry="12.5" style="stroke: #A80036; stroke-width: 1.5;" width="58" x="125" y="91.5"/><line style="stroke: #A80036; stroke-width: 1.5;" x1="125" x2="183" y1="117.9883" y2="117.9883"/><text fill="#000000" font-family="sans-serif" font-size="14" lengthAdjust="spacingAndGlyphs" textLength="38" x="135" y="110.0352">ready</text><rect fill="#FEFECE" filter="url(#f2ctsccbrl9cy)" height="50" rx="12.5" ry="12.5" style="stroke: #A80036; stroke-width: 1.5;" width="75" x="437.5" y="48.5"/><line style="stroke: #A80036; stroke-width: 1.5;" x1="437.5" x2="512.5" y1="74.9883" y2="74.9883"/><text fill="#000000" font-family="sans-serif" font-size="14" lengthAdjust="spacingAndGlyphs" textLength="55" x="447.5" y="67.0352">running</text><rect fill="#FEFECE" filter="url(#f2ctsccbrl9cy)" height="93.0195" rx="12.5" ry="12.5" style="stroke: #A80036; stroke-width: 1.5;" width="103" x="719" y="128"/><line style="stroke: #A80036; stroke-width: 1.5;" x1="719" x2="822" y1="154.4883" y2="154.4883"/><text fill="#000000" font-family="sans-serif" font-size="14" lengthAdjust="spacingAndGlyphs" textLength="52" x="744.5" y="146.5352">inactive</text><text fill="#000000" font-family="sans-serif" font-size="12" lengthAdjust="spacingAndGlyphs" textLength="48" x="724" y="171.0898">sleeping</text><text fill="#000000" font-family="sans-serif" font-size="12" lengthAdjust="spacingAndGlyphs" textLength="40" x="724" y="185.2227">waiting</text><text fill="#000000" font-family="sans-serif" font-size="12" lengthAdjust="spacingAndGlyphs" textLength="70" x="724" y="199.3555">blocked (IO)</text><text fill="#000000" font-family="sans-serif" font-size="12" lengthAdjust="spacingAndGlyphs" textLength="83" x="724" y="213.4883">blocked (sync)</text><!--link *start to ready--><path d="M26.3724,116.5 C45.9265,116.5 89.0313,116.5 119.7298,116.5 " fill="none" id="*start-ready" style="stroke: #A80036; stroke-width: 1.0;"/><polygon fill="#A80036" points="124.9261,116.5,115.9261,112.5,119.9261,116.5,115.9261,120.5,124.9261,116.5" style="stroke: #A80036; stroke-width: 1.0;"/><text fill="#000000" font-family="sans-serif" font-size="13" lengthAdjust="spacingAndGlyphs" textLength="37" x="57" y="113.0684">start()</text><!--link ready to running--><path d="M166.0904,91.242 C176.0002,73.7292 191.8387,51.7774 213,41.5 C284.2218,6.9096 378.6557,33.5897 432.5232,54.5898 " fill="none" id="ready-running" style="stroke: #A80036; stroke-width: 1.0;"/><polygon fill="#A80036" points="437.2879,56.4739,430.3893,49.4447,432.6382,54.6353,427.4476,56.8842,437.2879,56.4739" style="stroke: #A80036; stroke-width: 1.0;"/><text fill="#000000" font-family="sans-serif" font-size="13" lengthAdjust="spacingAndGlyphs" textLength="171" x="214" y="22.0684">chosen by scheduler to run</text><!--link running to ready--><path d="M437.3443,74.7187 C386.1393,76.9138 291.8853,82.8683 213,98.5 C204.8226,100.1204 196.163,102.4197 188.0706,104.8352 " fill="none" id="running-ready" style="stroke: #A80036; stroke-width: 1.0;"/><polygon fill="#A80036" points="183.1146,106.3491,192.8905,107.5454,187.8965,104.8884,190.5534,99.8944,183.1146,106.3491" style="stroke: #A80036; stroke-width: 1.0;"/><text fill="#000000" font-family="sans-serif" font-size="13" lengthAdjust="spacingAndGlyphs" textLength="142" x="228.5" y="75.0684">scheduler swaps it out</text><!--link running to ready--><path d="M440.0038,98.6583 C424.2915,108.4585 405.0316,118.5201 386,123.5 C317.6827,141.3763 234.1805,131.4977 188.2977,123.4865 " fill="none" id="running-ready" style="stroke: #A80036; stroke-width: 1.0;"/><polygon fill="#A80036" points="183.1635,122.5703,191.3208,128.0892,188.0857,123.4487,192.7263,120.2137,183.1635,122.5703" style="stroke: #A80036; stroke-width: 1.0;"/><text fill="#000000" font-family="sans-serif" font-size="13" lengthAdjust="spacingAndGlyphs" textLength="38" x="280.5" y="120.0684">yield()</text><!--link running to inactive--><path d="M512.7254,86.3943 C563.6505,103.8002 654.8063,134.9566 713.9469,155.1705 " fill="none" id="running-inactive" style="stroke: #A80036; stroke-width: 1.0;"/><polygon fill="#A80036" points="718.8572,156.8488,711.6346,150.1529,714.1259,155.2317,709.0472,157.723,718.8572,156.8488" style="stroke: #A80036; stroke-width: 1.0;"/><text fill="#000000" font-family="sans-serif" font-size="13" lengthAdjust="spacingAndGlyphs" textLength="123" x="565" y="103.0684">sleep(), wait(), join()</text><!--link inactive to ready--><path d="M718.8789,177.5953 C619.4043,182.239 394.9132,186.2863 213,142.5 C204.7087,140.5043 196.1269,137.3936 188.1618,134.0084 " fill="none" id="inactive-ready" style="stroke: #A80036; stroke-width: 1.0;"/><polygon fill="#A80036" points="183.2902,131.8727,189.9266,139.1499,187.8694,133.8804,193.1389,131.8232,183.2902,131.8727" style="stroke: #A80036; stroke-width: 1.0;"/><text fill="#000000" font-family="sans-serif" font-size="13" lengthAdjust="spacingAndGlyphs" textLength="58" x="446" y="171.0684">unblocks</text><!--link inactive to ready--><path d="M718.8442,183.9122 C708.9556,185.5612 698.6717,187.1717 689,188.5 C620.3892,197.9233 603.1634,200.9397 534,204.5 C391.0554,211.8582 340.6922,243.1684 213,178.5 C197.9941,170.9004 184.7225,157.8984 174.5857,145.7579 " fill="none" id="inactive-ready" style="stroke: #A80036; stroke-width: 1.0;"/><polygon fill="#A80036" points="171.2702,141.6827,173.8473,151.1884,174.4257,145.5612,180.0529,146.1396,171.2702,141.6827" style="stroke: #A80036; stroke-width: 1.0;"/><text fill="#000000" font-family="sans-serif" font-size="13" lengthAdjust="spacingAndGlyphs" textLength="116" x="417" y="201.0684">notify(), interrupt()</text><!--
@startuml
left to right direction

[*] - -> ready : start()

ready - -> running : chosen by scheduler to run

running - -> ready : scheduler swaps it out

running - -> ready : yield()

running - -> inactive : sleep(), wait(), join()
inactive: sleeping
inactive: waiting
inactive: blocked (IO)
inactive: blocked (sync)

inactive - -> ready : unblocks

inactive - -> ready : notify(), interrupt()

@enduml

PlantUML version 1.2017.16(Sun Sep 03 12:53:37 CEST 2017)
(GPL source distribution)
Java Runtime: Java(TM) SE Runtime Environment
JVM: Java HotSpot(TM) 64-Bit Server VM
Java Version: 1.8.0_144-b01
Operating System: Mac OS X
OS Version: 10.13.1
Default Encoding: UTF-8
Language: en
Country: US
--></g></svg>