<?xml version="1.0" encoding="UTF-8" standalone="no"?><svg xmlns="http://www.w3.org/2000/svg" xmlns:xlink="http://www.w3.org/1999/xlink" contentScriptType="application/ecmascript" contentStyleType="text/css" height="118px" preserveAspectRatio="none" style="width:675px;height:118px;" version="1.1" viewBox="0 0 675 118" width="675px" zoomAndPan="magnify"><defs><filter height="300%" id="f1g3x0swc8b12u" width="300%" x="-1" y="-1"><feGaussianBlur result="blurOut" stdDeviation="2.0"/><feColorMatrix in="blurOut" result="blurOut2" type="matrix" values="0 0 0 0 0 0 0 0 0 0 0 0 0 0 0 0 0 0 .4 0"/><feOffset dx="4.0" dy="4.0" in="blurOut2" result="blurOut3"/><feBlend in="SourceGraphic" in2="blurOut3" mode="normal"/></filter></defs><g><ellipse cx="16" cy="82" fill="#000000" filter="url(#f1g3x0swc8b12u)" rx="10" ry="10" style="stroke: none; stroke-width: 1.0;"/><rect fill="#FEFECE" filter="url(#f1g3x0swc8b12u)" height="50" rx="12.5" ry="12.5" style="stroke: #A80036; stroke-width: 1.5;" width="75" x="87" y="57"/><line style="stroke: #A80036; stroke-width: 1.5;" x1="87" x2="162" y1="83.4883" y2="83.4883"/><text fill="#000000" font-family="sans-serif" font-size="14" lengthAdjust="spacingAndGlyphs" textLength="55" x="97" y="75.5352">threadA</text><rect fill="#FEFECE" filter="url(#f1g3x0swc8b12u)" height="50" rx="12.5" ry="12.5" style="stroke: #A80036; stroke-width: 1.5;" width="57" x="261" y="8"/><line style="stroke: #A80036; stroke-width: 1.5;" x1="261" x2="318" y1="34.4883" y2="34.4883"/><text fill="#000000" font-family="sans-serif" font-size="14" lengthAdjust="spacingAndGlyphs" textLength="37" x="271" y="26.5352">lock2</text><rect fill="#FEFECE" filter="url(#f1g3x0swc8b12u)" height="50" rx="12.5" ry="12.5" style="stroke: #A80036; stroke-width: 1.5;" width="73" x="434" y="8"/><line style="stroke: #A80036; stroke-width: 1.5;" x1="434" x2="507" y1="34.4883" y2="34.4883"/><text fill="#000000" font-family="sans-serif" font-size="14" lengthAdjust="spacingAndGlyphs" textLength="53" x="444" y="26.5352">threadB</text><rect fill="#FEFECE" filter="url(#f1g3x0swc8b12u)" height="50" rx="12.5" ry="12.5" style="stroke: #A80036; stroke-width: 1.5;" width="57" x="606" y="57"/><line style="stroke: #A80036; stroke-width: 1.5;" x1="606" x2="663" y1="83.4883" y2="83.4883"/><text fill="#000000" font-family="sans-serif" font-size="14" lengthAdjust="spacingAndGlyphs" textLength="37" x="616" y="75.5352">lock1</text><!--link *start to threadA--><path d="M26.0129,82 C38.6839,82 61.3173,82 81.694,82 " fill="none" id="*start-threadA" style="stroke: #A80036; stroke-width: 1.0;"/><polygon fill="#A80036" points="86.8184,82,77.8184,78,81.8184,82,77.8184,86,86.8184,82" style="stroke: #A80036; stroke-width: 1.0;"/><!--link threadA to lock2--><path d="M162.3543,70.7584 C190.5686,62.3796 228.752,51.0403 255.892,42.9806 " fill="none" id="threadA-lock2" style="stroke: #A80036; stroke-width: 1.0;"/><polygon fill="#A80036" points="260.8262,41.5152,251.0599,40.2429,256.0331,42.9386,253.3373,47.9118,260.8262,41.5152" style="stroke: #A80036; stroke-width: 1.0;"/><text fill="#000000" font-family="sans-serif" font-size="13" lengthAdjust="spacingAndGlyphs" textLength="37" x="193" y="48.5684">wants</text><!--link lock2 to threadB--><path d="M318.18,33 C347.8906,33 394.6288,33 428.5013,33 " fill="none" id="lock2-threadB" style="stroke: #A80036; stroke-width: 1.0;"/><polygon fill="#A80036" points="433.8226,33,424.8226,29,428.8226,33,424.8226,37,433.8226,33" style="stroke: #A80036; stroke-width: 1.0;"/><text fill="#000000" font-family="sans-serif" font-size="13" lengthAdjust="spacingAndGlyphs" textLength="54" x="349" y="29.5684">taken by</text><!--link threadB to lock1--><path d="M507.3048,43.9966 C535.3989,52.3905 573.786,63.8598 601.0209,71.9971 " fill="none" id="threadB-lock1" style="stroke: #A80036; stroke-width: 1.0;"/><polygon fill="#A80036" points="605.9714,73.4762,598.4932,67.067,601.1807,72.0448,596.203,74.7322,605.9714,73.4762" style="stroke: #A80036; stroke-width: 1.0;"/><text fill="#000000" font-family="sans-serif" font-size="13" lengthAdjust="spacingAndGlyphs" textLength="37" x="538" y="50.5684">wants</text><!--link lock1 to threadA--><path d="M605.7609,82 C520.4773,82 268.4923,82 167.2874,82 " fill="none" id="lock1-threadA" style="stroke: #A80036; stroke-width: 1.0;"/><polygon fill="#A80036" points="162.0015,82,171.0015,86,167.0015,82,171.0015,78,162.0015,82" style="stroke: #A80036; stroke-width: 1.0;"/><text fill="#000000" font-family="sans-serif" font-size="13" lengthAdjust="spacingAndGlyphs" textLength="54" x="349" y="78.5684">taken by</text><!--
@startuml
left to right direction

[*] - -> threadA

threadA - -> lock2 : wants

lock2 - -> threadB : taken by

threadB - -> lock1 : wants

lock1 - -> threadA : taken by

@enduml

PlantUML version 1.2017.16(Sun Sep 03 12:53:37 CEST 2017)
(GPL source distribution)
Java Runtime: Java(TM) SE Runtime Environment
JVM: Java HotSpot(TM) 64-Bit Server VM
Java Version: 1.8.0_144-b01
Operating System: Mac OS X
OS Version: 10.13.1
Default Encoding: UTF-8
Language: en
Country: US
--></g></svg>