<?xml version="1.0" encoding="UTF-8" standalone="no"?><svg xmlns="http://www.w3.org/2000/svg" xmlns:xlink="http://www.w3.org/1999/xlink" contentScriptType="application/ecmascript" contentStyleType="text/css" height="471px" preserveAspectRatio="none" style="width:395px;height:471px;" version="1.1" viewBox="0 0 395 471" width="395px" zoomAndPan="magnify"><defs><filter height="300%" id="foxi15atrhlp8" width="300%" x="-1" y="-1"><feGaussianBlur result="blurOut" stdDeviation="2.0"/><feColorMatrix in="blurOut" result="blurOut2" type="matrix" values="0 0 0 0 0 0 0 0 0 0 0 0 0 0 0 0 0 0 .4 0"/><feOffset dx="4.0" dy="4.0" in="blurOut2" result="blurOut3"/><feBlend in="SourceGraphic" in2="blurOut3" mode="normal"/></filter></defs><g><rect fill="#FFFFFF" filter="url(#foxi15atrhlp8)" height="63.6211" style="stroke: #A80036; stroke-width: 1.0;" width="10" x="39.5" y="48.4883"/><rect fill="#FFFFFF" filter="url(#foxi15atrhlp8)" height="195.2422" style="stroke: #FFFFFF; stroke-width: 1.0;" width="10" x="39.5" y="197.7305"/><line style="stroke: #A80036; stroke-width: 1.0;" x1="39.5" x2="39.5" y1="197.7305" y2="392.9727"/><line style="stroke: #A80036; stroke-width: 1.0;" x1="49.5" x2="49.5" y1="197.7305" y2="392.9727"/><line style="stroke: #A80036; stroke-width: 1.0;" x1="39.5" x2="49.5" y1="197.7305" y2="197.7305"/><rect fill="#FFFFFF" filter="url(#foxi15atrhlp8)" height="1" style="stroke: #FFFFFF; stroke-width: 1.0;" width="10" x="39.5" y="420.9727"/><line style="stroke: #A80036; stroke-width: 1.0;" x1="39.5" x2="39.5" y1="420.9727" y2="421.9727"/><line style="stroke: #A80036; stroke-width: 1.0;" x1="49.5" x2="49.5" y1="420.9727" y2="421.9727"/><rect fill="#FFFFFF" filter="url(#foxi15atrhlp8)" height="85.6211" style="stroke: #A80036; stroke-width: 1.0;" width="10" x="154.5" y="112.1094"/><rect fill="#FFFFFF" filter="url(#foxi15atrhlp8)" height="115.6211" style="stroke: #A80036; stroke-width: 1.0;" width="10" x="154.5" y="227.041"/><rect fill="#FFFFFF" filter="url(#foxi15atrhlp8)" height="144.9316" style="stroke: #A80036; stroke-width: 1.0;" width="10" x="264.5" y="112.1094"/><rect fill="#FFFFFF" filter="url(#foxi15atrhlp8)" height="50.3105" style="stroke: #FFFFFF; stroke-width: 1.0;" width="10" x="264.5" y="342.6621"/><line style="stroke: #A80036; stroke-width: 1.0;" x1="264.5" x2="264.5" y1="342.6621" y2="392.9727"/><line style="stroke: #A80036; stroke-width: 1.0;" x1="274.5" x2="274.5" y1="342.6621" y2="392.9727"/><line style="stroke: #A80036; stroke-width: 1.0;" x1="264.5" x2="274.5" y1="342.6621" y2="342.6621"/><rect fill="#FFFFFF" filter="url(#foxi15atrhlp8)" height="1" style="stroke: #FFFFFF; stroke-width: 1.0;" width="10" x="264.5" y="420.9727"/><line style="stroke: #A80036; stroke-width: 1.0;" x1="264.5" x2="264.5" y1="420.9727" y2="421.9727"/><line style="stroke: #A80036; stroke-width: 1.0;" x1="274.5" x2="274.5" y1="420.9727" y2="421.9727"/><line style="stroke: #A80036; stroke-width: 1.0;" x1="44" x2="44" y1="38.4883" y2="392.9727"/><line style="stroke: #A80036; stroke-width: 1.0; stroke-dasharray: 1.0,4.0;" x1="44" x2="44" y1="392.9727" y2="420.9727"/><line style="stroke: #A80036; stroke-width: 1.0;" x1="44" x2="44" y1="420.9727" y2="430.9727"/><line style="stroke: #A80036; stroke-width: 1.0;" x1="159.5" x2="159.5" y1="38.4883" y2="392.9727"/><line style="stroke: #A80036; stroke-width: 1.0; stroke-dasharray: 1.0,4.0;" x1="159.5" x2="159.5" y1="392.9727" y2="420.9727"/><line style="stroke: #A80036; stroke-width: 1.0;" x1="159.5" x2="159.5" y1="420.9727" y2="430.9727"/><line style="stroke: #A80036; stroke-width: 1.0;" x1="269" x2="269" y1="38.4883" y2="392.9727"/><line style="stroke: #A80036; stroke-width: 1.0; stroke-dasharray: 1.0,4.0;" x1="269" x2="269" y1="392.9727" y2="420.9727"/><line style="stroke: #A80036; stroke-width: 1.0;" x1="269" x2="269" y1="420.9727" y2="430.9727"/><rect fill="#FEFECE" filter="url(#foxi15atrhlp8)" height="30.4883" style="stroke: #A80036; stroke-width: 1.5;" width="69" x="8" y="3"/><text fill="#000000" font-family="sans-serif" font-size="14" lengthAdjust="spacingAndGlyphs" textLength="55" x="15" y="23.5352">threadA</text><rect fill="#FEFECE" filter="url(#foxi15atrhlp8)" height="30.4883" style="stroke: #A80036; stroke-width: 1.5;" width="69" x="8" y="429.9727"/><text fill="#000000" font-family="sans-serif" font-size="14" lengthAdjust="spacingAndGlyphs" textLength="55" x="15" y="450.5078">threadA</text><rect fill="#FEFECE" filter="url(#foxi15atrhlp8)" height="30.4883" style="stroke: #A80036; stroke-width: 1.5;" width="42" x="136.5" y="3"/><text fill="#000000" font-family="sans-serif" font-size="14" lengthAdjust="spacingAndGlyphs" textLength="28" x="143.5" y="23.5352">lock</text><rect fill="#FEFECE" filter="url(#foxi15atrhlp8)" height="30.4883" style="stroke: #A80036; stroke-width: 1.5;" width="42" x="136.5" y="429.9727"/><text fill="#000000" font-family="sans-serif" font-size="14" lengthAdjust="spacingAndGlyphs" textLength="28" x="143.5" y="450.5078">lock</text><rect fill="#FEFECE" filter="url(#foxi15atrhlp8)" height="30.4883" style="stroke: #A80036; stroke-width: 1.5;" width="67" x="234" y="3"/><text fill="#000000" font-family="sans-serif" font-size="14" lengthAdjust="spacingAndGlyphs" textLength="53" x="241" y="23.5352">threadB</text><rect fill="#FEFECE" filter="url(#foxi15atrhlp8)" height="30.4883" style="stroke: #A80036; stroke-width: 1.5;" width="67" x="234" y="429.9727"/><text fill="#000000" font-family="sans-serif" font-size="14" lengthAdjust="spacingAndGlyphs" textLength="53" x="241" y="450.5078">threadB</text><rect fill="#FFFFFF" filter="url(#foxi15atrhlp8)" height="63.6211" style="stroke: #A80036; stroke-width: 1.0;" width="10" x="39.5" y="48.4883"/><rect fill="#FFFFFF" filter="url(#foxi15atrhlp8)" height="195.2422" style="stroke: #FFFFFF; stroke-width: 1.0;" width="10" x="39.5" y="197.7305"/><line style="stroke: #A80036; stroke-width: 1.0;" x1="39.5" x2="39.5" y1="197.7305" y2="392.9727"/><line style="stroke: #A80036; stroke-width: 1.0;" x1="49.5" x2="49.5" y1="197.7305" y2="392.9727"/><line style="stroke: #A80036; stroke-width: 1.0;" x1="39.5" x2="49.5" y1="197.7305" y2="197.7305"/><rect fill="#FFFFFF" filter="url(#foxi15atrhlp8)" height="1" style="stroke: #FFFFFF; stroke-width: 1.0;" width="10" x="39.5" y="420.9727"/><line style="stroke: #A80036; stroke-width: 1.0;" x1="39.5" x2="39.5" y1="420.9727" y2="421.9727"/><line style="stroke: #A80036; stroke-width: 1.0;" x1="49.5" x2="49.5" y1="420.9727" y2="421.9727"/><rect fill="#FFFFFF" filter="url(#foxi15atrhlp8)" height="85.6211" style="stroke: #A80036; stroke-width: 1.0;" width="10" x="154.5" y="112.1094"/><rect fill="#FFFFFF" filter="url(#foxi15atrhlp8)" height="115.6211" style="stroke: #A80036; stroke-width: 1.0;" width="10" x="154.5" y="227.041"/><rect fill="#FFFFFF" filter="url(#foxi15atrhlp8)" height="144.9316" style="stroke: #A80036; stroke-width: 1.0;" width="10" x="264.5" y="112.1094"/><rect fill="#FFFFFF" filter="url(#foxi15atrhlp8)" height="50.3105" style="stroke: #FFFFFF; stroke-width: 1.0;" width="10" x="264.5" y="342.6621"/><line style="stroke: #A80036; stroke-width: 1.0;" x1="264.5" x2="264.5" y1="342.6621" y2="392.9727"/><line style="stroke: #A80036; stroke-width: 1.0;" x1="274.5" x2="274.5" y1="342.6621" y2="392.9727"/><line style="stroke: #A80036; stroke-width: 1.0;" x1="264.5" x2="274.5" y1="342.6621" y2="342.6621"/><rect fill="#FFFFFF" filter="url(#foxi15atrhlp8)" height="1" style="stroke: #FFFFFF; stroke-width: 1.0;" width="10" x="264.5" y="420.9727"/><line style="stroke: #A80036; stroke-width: 1.0;" x1="264.5" x2="264.5" y1="420.9727" y2="421.9727"/><line style="stroke: #A80036; stroke-width: 1.0;" x1="274.5" x2="274.5" y1="420.9727" y2="421.9727"/><line style="stroke: #A80036; stroke-width: 1.0; stroke-dasharray: 2.0,2.0;" x1="49.5" x2="91.5" y1="69.7988" y2="69.7988"/><line style="stroke: #A80036; stroke-width: 1.0; stroke-dasharray: 2.0,2.0;" x1="91.5" x2="91.5" y1="69.7988" y2="82.7988"/><line style="stroke: #A80036; stroke-width: 1.0; stroke-dasharray: 2.0,2.0;" x1="50.5" x2="91.5" y1="82.7988" y2="82.7988"/><polygon fill="#A80036" points="60.5,78.7988,50.5,82.7988,60.5,86.7988,56.5,82.7988" style="stroke: #A80036; stroke-width: 1.0;"/><text fill="#000000" font-family="sans-serif" font-size="13" lengthAdjust="spacingAndGlyphs" textLength="91" x="56.5" y="65.0566">doSomething()</text><polygon fill="#A80036" points="142.5,108.1094,152.5,112.1094,142.5,116.1094,146.5,112.1094" style="stroke: #A80036; stroke-width: 1.0;"/><line style="stroke: #A80036; stroke-width: 1.0; stroke-dasharray: 2.0,2.0;" x1="44.5" x2="148.5" y1="112.1094" y2="112.1094"/><text fill="#000000" font-family="sans-serif" font-size="13" lengthAdjust="spacingAndGlyphs" textLength="65" x="51.5" y="107.3672">lock.wait()</text><line style="stroke: #A80036; stroke-width: 1.0; stroke-dasharray: 2.0,2.0;" x1="274.5" x2="316.5" y1="141.4199" y2="141.4199"/><line style="stroke: #A80036; stroke-width: 1.0; stroke-dasharray: 2.0,2.0;" x1="316.5" x2="316.5" y1="141.4199" y2="154.4199"/><line style="stroke: #A80036; stroke-width: 1.0; stroke-dasharray: 2.0,2.0;" x1="275.5" x2="316.5" y1="154.4199" y2="154.4199"/><polygon fill="#A80036" points="285.5,150.4199,275.5,154.4199,285.5,158.4199,281.5,154.4199" style="stroke: #A80036; stroke-width: 1.0;"/><text fill="#000000" font-family="sans-serif" font-size="13" lengthAdjust="spacingAndGlyphs" textLength="102" x="281.5" y="136.6777">doOtherThings()</text><polygon fill="#A80036" points="175.5,179.7305,165.5,183.7305,175.5,187.7305,171.5,183.7305" style="stroke: #A80036; stroke-width: 1.0;"/><line style="stroke: #A80036; stroke-width: 1.0; stroke-dasharray: 2.0,2.0;" x1="169.5" x2="263.5" y1="183.7305" y2="183.7305"/><text fill="#000000" font-family="sans-serif" font-size="13" lengthAdjust="spacingAndGlyphs" textLength="76" x="181.5" y="178.9883">lock.notify()</text><polygon fill="#A80036" points="60.5,193.7305,50.5,197.7305,60.5,201.7305,56.5,197.7305" style="stroke: #A80036; stroke-width: 1.0;"/><line style="stroke: #A80036; stroke-width: 1.0; stroke-dasharray: 2.0,2.0;" x1="54.5" x2="158.5" y1="197.7305" y2="197.7305"/><polygon fill="#A80036" points="175.5,223.041,165.5,227.041,175.5,231.041,171.5,227.041" style="stroke: #A80036; stroke-width: 1.0;"/><line style="stroke: #A80036; stroke-width: 1.0; stroke-dasharray: 2.0,2.0;" x1="169.5" x2="263.5" y1="227.041" y2="227.041"/><text fill="#000000" font-family="sans-serif" font-size="13" lengthAdjust="spacingAndGlyphs" textLength="65" x="181.5" y="222.2988">lock.wait()</text><line style="stroke: #A80036; stroke-width: 1.0; stroke-dasharray: 2.0,2.0;" x1="49.5" x2="91.5" y1="286.3516" y2="286.3516"/><line style="stroke: #A80036; stroke-width: 1.0; stroke-dasharray: 2.0,2.0;" x1="91.5" x2="91.5" y1="286.3516" y2="299.3516"/><line style="stroke: #A80036; stroke-width: 1.0; stroke-dasharray: 2.0,2.0;" x1="50.5" x2="91.5" y1="299.3516" y2="299.3516"/><polygon fill="#A80036" points="60.5,295.3516,50.5,299.3516,60.5,303.3516,56.5,299.3516" style="stroke: #A80036; stroke-width: 1.0;"/><text fill="#000000" font-family="sans-serif" font-size="13" lengthAdjust="spacingAndGlyphs" textLength="91" x="56.5" y="281.6094">doSomething()</text><polygon fill="#A80036" points="142.5,324.6621,152.5,328.6621,142.5,332.6621,146.5,328.6621" style="stroke: #A80036; stroke-width: 1.0;"/><line style="stroke: #A80036; stroke-width: 1.0; stroke-dasharray: 2.0,2.0;" x1="49.5" x2="148.5" y1="328.6621" y2="328.6621"/><text fill="#000000" font-family="sans-serif" font-size="13" lengthAdjust="spacingAndGlyphs" textLength="76" x="56.5" y="323.9199">lock.notify()</text><polygon fill="#A80036" points="252.5,338.6621,262.5,342.6621,252.5,346.6621,256.5,342.6621" style="stroke: #A80036; stroke-width: 1.0;"/><line style="stroke: #A80036; stroke-width: 1.0; stroke-dasharray: 2.0,2.0;" x1="159.5" x2="258.5" y1="342.6621" y2="342.6621"/><line style="stroke: #A80036; stroke-width: 1.0; stroke-dasharray: 2.0,2.0;" x1="274.5" x2="316.5" y1="371.9727" y2="371.9727"/><line style="stroke: #A80036; stroke-width: 1.0; stroke-dasharray: 2.0,2.0;" x1="316.5" x2="316.5" y1="371.9727" y2="384.9727"/><line style="stroke: #A80036; stroke-width: 1.0; stroke-dasharray: 2.0,2.0;" x1="275.5" x2="316.5" y1="384.9727" y2="384.9727"/><polygon fill="#A80036" points="285.5,380.9727,275.5,384.9727,285.5,388.9727,281.5,384.9727" style="stroke: #A80036; stroke-width: 1.0;"/><text fill="#000000" font-family="sans-serif" font-size="13" lengthAdjust="spacingAndGlyphs" textLength="102" x="281.5" y="367.2305">doOtherThings()</text><!--MD5=[57ab44f1c62f91b3795683d7ff1a161c]
@startuml

activate threadA
threadA - -> threadA : doSomething()


threadA - -> lock : lock.wait()
deactivate threadA
activate lock

activate threadB
threadB - -> threadB : doOtherThings()


threadB - -> lock : lock.notify()
lock - -> threadA
deactivate lock
activate threadA

threadB - -> lock : lock.wait()
activate lock
deactivate threadB

threadA - -> threadA : doSomething()

threadA - -> lock : lock.notify()
lock - -> threadB
deactivate lock
activate threadB

threadB - -> threadB : doOtherThings()

...


@enduml

PlantUML version 1.2019.10(Fri Sep 13 22:53:03 CEST 2019)
(GPL source distribution)
Java Runtime: OpenJDK Runtime Environment
JVM: OpenJDK 64-Bit Server VM
Java Version: 12.0.1+12
Operating System: Mac OS X
Default Encoding: UTF-8
Language: en
Country: GB
--></g></svg>